<?xml version="1.0" encoding="utf-8"?>
<!-- Generator: Adobe Illustrator 16.0.0, SVG Export Plug-In . SVG Version: 6.00 Build 0)  -->
<!DOCTYPE svg PUBLIC "-//W3C//DTD SVG 1.1//EN" "http://www.w3.org/Graphics/SVG/1.1/DTD/svg11.dtd">
<svg version="1.1" id="Layer_1" xmlns="http://www.w3.org/2000/svg" xmlns:xlink="http://www.w3.org/1999/xlink" x="0px" y="0px"
	 width="1024px" height="696.729px" viewBox="0 0 1024 696.729" enable-background="new 0 0 1024 696.729" xml:space="preserve">
<path fill="#7670B3" d="M202.909,22.649c0,0,34.759,274.313-31.94,266.797c-66.699-7.516-123.064-31.638-154.065,0.151
	c-31.002,31.789-18.789,126.671,31.939,128.55c50.729,1.879,129.406-11.273,140.797,10.334
	c11.391,21.606,46.149,63.881,16.088,237.674c0,0,183.188,51.669,211.371,20.668c28.183-31.001-6.576-116.488,6.576-162.521
	c13.151-46.032,61.063-46.972,98.639-47.911c37.578-0.939,98.641,14.092,88.307,93.004
	c-10.334,78.911-38.517,119.307,19.728,120.246c58.245,0.939,205.734-17.85,205.734-17.85s-52.607-234.855,11.273-259.281
	l96.761,6.576c0,0,81.73,12.213,79.852-76.094c-1.879-88.306-49.79-74.214-74.215-72.335s-110.853,6.576-131.52-19.728
	c0,0-9.395-171.915,15.03-228.281L704.563,10.437c0,0-104.276-23.485-111.792,40.396c0,0,31.002,95.821,5.637,138.096
	c-25.364,42.274-155.005,43.213-177.551-16.91c0,0,2.818-115.549,10.333-125.883c7.516-10.334,11.273-44.153-100.519-46.032
	C218.88-1.776,202.909,22.649,202.909,22.649z"/>
<g>
</g>
<g>
</g>
<g>
</g>
<g>
</g>
<g>
</g>
<g>
</g>
</svg>
