<?xml version="1.0" encoding="utf-8"?>
<!-- Generator: Adobe Illustrator 16.0.0, SVG Export Plug-In . SVG Version: 6.00 Build 0)  -->
<!DOCTYPE svg PUBLIC "-//W3C//DTD SVG 1.1//EN" "http://www.w3.org/Graphics/SVG/1.1/DTD/svg11.dtd">
<svg version="1.1" id="Layer_1" xmlns="http://www.w3.org/2000/svg" xmlns:xlink="http://www.w3.org/1999/xlink" x="0px" y="0px"
	 width="1023.999px" height="1023.999px" viewBox="3 3.001 1023.999 1023.999" enable-background="new 3 3.001 1023.999 1023.999"
	 xml:space="preserve">
<path fill="#ED5025" d="M528.419,1027c-9.289,0-18.58,0-27.871,0c-0.507-0.365-0.963-0.901-1.53-1.071
	c-11.896-3.569-15.844-8.243-16.881-20.278c-0.235-2.737-0.084-5.507-0.235-8.252c-0.558-10.057-2.32-19.783-7.894-28.466
	c-2.645-4.116-6.058-6.229-11.18-7.118c-22.34-3.879-44.807-7.449-66.75-13.017c-10.535-2.672-17.271,0.213-23.6,7.286
	c-2.84,3.173-5.405,6.692-7.535,10.38c-3.428,5.938-6.166,12.269-9.605,18.197c-4.388,7.558-11.28,10.703-19.717,8.545
	c-7.118-1.822-14.161-4.257-20.893-7.208c-20.078-8.807-22.726-16.342-15.46-36.83c2.819-7.949,4.113-16.638,4.759-25.092
	c0.479-6.271-1.156-12.272-8.079-15.891c-21.528-11.248-41.479-24.994-60.471-40.108c-3.539-2.815-7.375-4.275-11.447-2.73
	c-6.664,2.527-13.479,5.099-19.45,8.882c-6.181,3.916-11.271,9.51-17.131,13.987c-6.741,5.15-14.162,5.518-20.999,0.474
	c-5.908-4.359-11.524-9.244-16.66-14.495c-15.535-15.883-15.438-24.181-0.255-40.178c6.944-7.318,12.612-15.446,15.134-25.397
	c1.32-5.208,0.568-9.635-2.829-14.416c-12.818-18.053-25.703-36.13-37.142-55.058c-5.084-8.411-10.546-13.05-20.186-12.575
	c-3.073,0.149-6.253,0.034-9.183,0.807c-8.438,2.224-16.702,5.129-25.17,7.217c-9.376,2.313-16.548-0.361-20.948-8.861
	c-4.711-9.104-8.785-18.664-11.916-28.42c-3.299-10.275-0.071-17.048,9.122-22.705c2.905-1.784,6.104-3.103,9.2-4.566
	c9.903-4.682,19.067-10.257,25.083-19.87c2.222-3.55,2.561-6.971,1.651-11.212c-4.901-22.843-10.053-45.669-13.669-68.729
	c-1.415-9.019-5.478-13.841-13.043-17.181c-9.004-3.978-18.502-4.877-28.195-5.077c-14.41-0.298-21.673-5.596-23.467-17.5
	c-0.057-0.381-0.639-0.68-0.977-1.018c0-9.635,0-19.271,0-28.903c0.366-0.508,0.902-0.964,1.072-1.53
	c3.57-11.896,8.242-15.844,20.279-16.881c2.736-0.235,5.504-0.084,8.25-0.235c10.057-0.559,19.784-2.32,28.463-7.894
	c4.119-2.644,6.23-6.055,7.12-11.179c3.879-22.338,7.463-44.802,13.019-66.748c2.663-10.521-0.201-17.272-7.284-23.601
	c-3.176-2.837-6.693-5.405-10.379-7.534c-5.936-3.429-12.27-6.167-18.197-9.607c-7.558-4.386-10.707-11.275-8.55-19.713
	c1.82-7.118,4.255-14.16,7.207-20.892c8.806-20.079,16.345-22.731,36.824-15.469c7.949,2.819,16.637,4.115,25.091,4.762
	c6.269,0.479,12.276-1.149,15.895-8.071c11.252-21.525,24.987-41.481,40.104-60.469c2.818-3.539,4.305-7.383,2.736-11.442
	c-2.628-6.801-5.347-13.72-9.207-19.846c-3.808-6.046-9.285-11.013-13.654-16.738c-5.145-6.744-5.538-14.168-0.483-20.997
	c4.47-6.04,9.452-11.806,14.845-17.037c15.61-15.143,23.962-14.958,39.82,0.095c7.316,6.944,15.442,12.617,25.395,15.139
	c5.203,1.32,9.633,0.588,14.418-2.811c18.05-12.819,36.128-25.702,55.053-37.144c8.405-5.08,13.041-10.546,12.591-20.175
	c-0.144-3.072-0.028-6.253-0.799-9.183c-2.223-8.438-5.129-16.702-7.221-25.168c-2.317-9.379,0.345-16.553,8.843-20.957
	c9.098-4.716,18.662-8.788,28.413-11.924c10.277-3.306,17.06-0.084,22.715,9.098c1.789,2.903,3.116,6.098,4.571,9.198
	c4.504,9.597,9.927,18.461,18.974,24.56c3.914,2.639,7.749,3.146,12.599,2.093c22.829-4.953,45.682-9.959,68.732-13.641
	c8.365-1.338,13.042-5.079,16.287-11.993c4.488-9.562,5.248-19.787,5.55-30.172c0.348-11.933,4.278-20.731,18.442-22.518
	c0.382-0.048,0.697-0.606,1.046-0.926c8.945,0,17.893,0,26.838,0c0.519,0.337,0.997,0.859,1.562,0.982
	c12.346,2.704,17.032,8.117,17.923,20.912c0.19,2.742,0.05,5.507,0.221,8.252c0.612,9.875,2.396,19.425,7.882,27.942
	c2.654,4.124,6.078,6.213,11.192,7.102c22.339,3.885,44.804,7.457,66.746,13.019c10.536,2.67,17.268-0.234,23.592-7.309
	c2.84-3.175,5.403-6.694,7.531-10.381c3.429-5.936,6.162-12.271,9.605-18.197c4.392-7.556,11.291-10.686,19.725-8.525
	c7.117,1.823,14.159,4.259,20.889,7.213c20.07,8.805,22.71,16.331,15.44,36.835c-2.818,7.947-4.105,16.637-4.755,25.092
	c-0.479,6.272,1.175,12.267,8.091,15.882c21.522,11.253,41.478,24.991,60.466,40.106c3.541,2.818,7.377,4.27,11.447,2.727
	c6.662-2.527,13.479-5.099,19.447-8.882c6.181-3.918,11.271-9.51,17.131-13.988c6.741-5.15,14.162-5.514,20.999-0.47
	c5.907,4.358,11.522,9.245,16.657,14.494c15.535,15.882,15.438,24.182,0.258,40.176c-6.943,7.317-12.612,15.445-15.135,25.396
	c-1.319,5.207-0.572,9.634,2.822,14.416c12.818,18.052,25.686,36.14,37.139,55.056c4.963,8.198,10.299,12.824,19.669,12.609
	c3.244-0.074,6.601-0.028,9.695-0.837c8.442-2.202,16.701-5.124,25.17-7.214c9.376-2.314,16.55,0.354,20.952,8.851
	c4.713,9.1,8.786,18.662,11.921,28.413c3.304,10.277,0.081,17.056-9.104,22.711c-2.904,1.788-6.099,3.115-9.199,4.571
	c-9.597,4.504-18.46,9.928-24.557,18.975c-2.639,3.915-3.14,7.749-2.087,12.599c4.951,22.831,9.959,45.681,13.641,68.731
	c1.337,8.366,5.075,13.042,11.991,16.286c9.563,4.487,19.786,5.248,30.172,5.549c11.93,0.349,20.729,4.275,22.518,18.442
	c0.049,0.381,0.604,0.699,0.925,1.045c0,9.291,0,18.581,0,27.871c-0.365,0.507-0.957,0.971-1.064,1.527
	c-2.206,11.415-8.558,16.09-21.83,16.965c-2.4,0.157-4.819,0.026-7.222,0.176c-9.875,0.614-19.43,2.39-27.948,7.87
	c-4.117,2.646-6.229,6.056-7.12,11.18c-3.879,22.34-7.459,44.805-13.02,66.748c-2.669,10.529,0.207,17.271,7.284,23.6
	c3.174,2.841,6.692,5.407,10.38,7.536c5.935,3.43,12.269,6.168,18.196,9.607c7.559,4.385,10.707,11.274,8.55,19.712
	c-1.819,7.118-4.254,14.162-7.205,20.891c-8.807,20.082-16.347,22.732-36.826,15.473c-7.947-2.82-16.636-4.115-25.091-4.763
	c-6.268-0.479-12.272,1.147-15.894,8.07c-11.176,21.367-24.743,41.236-39.816,60.038c-3.378,4.214-4.596,8.692-2.764,13.394
	c2.466,6.324,5.224,12.688,8.924,18.335c3.925,5.988,9.306,11.001,13.675,16.729c5.146,6.743,5.54,14.167,0.485,20.997
	c-4.472,6.038-9.453,11.805-14.846,17.036c-15.61,15.144-23.965,14.958-39.819-0.095c-7.317-6.943-15.444-12.616-25.395-15.141
	c-5.205-1.319-9.635-0.584-14.42,2.813c-18.195,12.911-36.279,26.152-55.521,37.353c-10.024,5.832-12.62,13.005-12.133,23.053
	c0.101,2.046,0.221,4.15,0.771,6.107c2.354,8.403,5.168,16.688,7.26,25.157c2.316,9.381-0.346,16.552-8.842,20.957
	c-9.1,4.716-18.661,8.789-28.414,11.925c-10.277,3.306-17.06,0.083-22.715-9.099c-1.789-2.901-3.109-6.102-4.572-9.196
	c-4.675-9.906-10.252-19.068-19.854-25.095c-3.548-2.224-6.965-2.577-11.212-1.667c-22.841,4.901-45.666,10.06-68.727,13.675
	c-9.241,1.447-14.068,5.708-17.406,13.486c-3.955,9.215-4.611,18.906-4.934,28.752c-0.389,11.931-4.284,20.73-18.449,22.519
	C529.084,1026.124,528.767,1026.681,528.419,1027z M152.555,511.389c-0.047,30.038,3.557,55.954,14.687,80.351
	c12.076,26.474,31.432,43.568,61.533,45.84c18.339,1.385,35.457-2.888,51.365-12.174c25.729-15.021,47.896-34.436,68.603-55.613
	c18.327-18.746,25.967-41.236,22.88-67.343c-1.952-16.498-7.607-31.707-16.043-45.894c-1.694-2.848-4.122-5.522-6.793-7.486
	c-25.436-18.701-50.965-37.273-76.55-55.769c-3.992-2.886-8.162-6.735-12.674-7.449c-10.943-1.732-22.254-3.293-33.208-2.39
	c-29.851,2.462-55.181,24.096-62.89,52.439C156.439,461.729,152.681,488.048,152.555,511.389z M447.932,383.022
	c2.91-0.221,5.838-0.311,8.729-0.686c26.67-3.452,47.265-17.6,64.736-37.081c1.991-2.224,3.724-4.992,4.651-7.812
	c10.836-32.909,21.509-65.871,32.158-98.842c0.617-1.909,1.271-4.148,0.854-5.993c-2.455-10.843-3.996-22.116-8.136-32.314
	c-10.563-26.025-39.805-45.14-65.552-44.11c-23.086,0.923-45.856,4.167-68.197,10.106c-30.42,8.087-58.838,20.26-82.528,41.656
	c-13.903,12.555-24.2,27.46-26.331,46.52c-3.094,27.674,7.278,50.603,26.972,69.428c20.435,19.532,44.64,33.647,69.455,46.816
	C418.308,377.906,432.362,382.962,447.932,383.022z M464.181,870.113c2.057,0,4.117,0.078,6.169-0.012
	c19.631-0.84,38.465-4.694,53.606-18.129c22.43-19.898,29-45.724,24.517-74.408c-4.529-28.985-16.524-55.504-29.305-81.676
	c-7.878-16.129-18.194-29.955-34.098-38.896c-25.002-14.058-51.457-14.157-78.496-7.736c-1.59,0.378-3.076,1.47-4.444,2.462
	c-28.11,20.396-56.205,40.815-84.271,61.272c-1.497,1.091-3.069,2.34-4.021,3.877c-10.006,16.146-16.29,33.484-14.427,52.743
	c2.154,22.266,11.317,41.362,30.387,53.726c14.942,9.686,30.756,18.278,46.912,25.786
	C404.335,861.958,433.391,869.941,464.181,870.113z M738.524,470.648c0,0.007,0,0.014,0,0.021c17.347,0,34.691,0.044,52.038-0.051
	c2.341-0.013,4.979-0.162,6.964-1.218c7.715-4.105,15.684-7.961,22.723-13.063c30.029-21.761,36.259-61.945,24.406-86.533
	c-8.193-16.996-15.838-34.352-25.351-50.596c-16.241-27.739-36.96-51.75-64.772-68.743c-22.073-13.485-45.395-18.996-70.205-8.176
	c-22.426,9.78-37.185,27.095-46.329,49.525c-10.839,26.58-17.19,54.313-21.116,82.634c-3.02,21.778,2.037,41.671,15.333,59.265
	c12.009,15.892,27.805,26.948,45.923,34.777c3.039,1.313,6.575,2.023,9.896,2.063C704.86,470.759,721.693,470.648,738.524,470.648z
	 M736.213,562.229c-9.984,0.981-27.952,2.505-45.854,4.58c-16.793,1.946-32.593,6.838-45.996,17.774
	c-19.574,15.971-29.107,37.432-33.307,61.631c-1.035,5.969-2.263,12.706-0.564,18.216c10.303,33.434,21.416,66.615,32.313,99.865
	c0.572,1.751,1.34,3.593,2.517,4.967c7.887,9.206,16.938,16.991,27.609,22.926c27.199,15.127,62.936,9.365,81.243-7.71
	c13.562-12.647,27.438-25.099,39.795-38.872c21.93-24.441,38.728-52.038,46.764-84.386c10.179-40.967-6.156-74.511-44.821-91.21
	C779.408,562.885,761.829,562.532,736.213,562.229z M514.97,561.31c25.632,0.024,46.28-20.538,46.341-46.148
	c0.062-25.663-20.435-46.358-46.021-46.468c-25.906-0.112-46.638,20.532-46.599,46.405
	C468.729,540.727,489.318,561.285,514.97,561.31z"/>
</svg>
