<?xml version="1.0" encoding="utf-8"?>
<!-- Generator: Adobe Illustrator 16.0.0, SVG Export Plug-In . SVG Version: 6.00 Build 0)  -->
<!DOCTYPE svg PUBLIC "-//W3C//DTD SVG 1.1//EN" "http://www.w3.org/Graphics/SVG/1.1/DTD/svg11.dtd">
<svg version="1.1" id="Science_1_" xmlns="http://www.w3.org/2000/svg" xmlns:xlink="http://www.w3.org/1999/xlink" x="0px" y="0px"
	 width="210px" height="210.042px" viewBox="0 0 210 210.042" enable-background="new 0 0 210 210.042" xml:space="preserve">
<rect y="0.042" fill="#7670B3" width="210" height="210"/>
<g>
	<path d="M21.471,68.544h43.895v7.611H29.395v28.047h29.715v7.611H29.395v29.298h-7.924V68.544z"/>
	<path d="M92.574,68.544h17.62l19.497,72.463h-7.924l-5.526-18.142H86.005l-5.213,18.246h-8.028L92.574,68.544z M87.882,115.15
		h26.691l-10.739-39.203h-5.213L87.882,115.15z"/>
	<path d="M175.353,141.216c-2.502,0.625-5.422,0.938-8.653,0.938c-22.521,0-28.568-12.721-28.568-36.909
		c0-23.98,6.256-37.744,28.568-37.744c22.312,0,28.464,13.659,28.464,37.744c0,16.994-2.815,27.942-11.887,33.26l8.759,14.18
		l-7.507,3.545L175.353,141.216z M186.926,105.246c0-19.185-3.857-30.133-20.227-30.133c-16.578,0-20.228,10.844-20.228,30.133
		c0,19.288,3.44,29.298,20.228,29.298C183.381,134.543,186.926,125.16,186.926,105.246z"/>
</g>
<g>
</g>
<g>
</g>
<g>
</g>
<g>
</g>
<g>
</g>
<g>
</g>
<g>
</g>
<g>
</g>
<g>
</g>
<g>
</g>
<g>
</g>
<g>
</g>
<g>
</g>
<g>
</g>
<g>
</g>
</svg>
