<?xml version="1.0" encoding="utf-8"?>
<!-- Generator: Adobe Illustrator 16.0.0, SVG Export Plug-In . SVG Version: 6.00 Build 0)  -->
<!DOCTYPE svg PUBLIC "-//W3C//DTD SVG 1.1//EN" "http://www.w3.org/Graphics/SVG/1.1/DTD/svg11.dtd">
<svg version="1.1" id="Layer_1" xmlns="http://www.w3.org/2000/svg" xmlns:xlink="http://www.w3.org/1999/xlink" x="0px" y="0px"
	 width="1024px" height="1007.742px" viewBox="3.009 12.34 1024 1007.742" enable-background="new 3.009 12.34 1024 1007.742"
	 xml:space="preserve">
<path fill="#EBAF20" d="M665.072,169.492c-83.007,0-166.408,0-250.915,0c-0.872,11.569-1.815,22.892-2.564,34.227
	c-4.388,66.42-8.272,132.877-13.188,199.258c-8.958,120.95-18.122,241.928-42.377,361.064c-8.687,42.662-17.779,85.308-28.8,127.406
	c-8.62,32.935-23.838,63.183-47.918,88.163c-29.742,30.854-76.65,41.068-112.648,24.503
	c-40.647-18.708-64.477-70.729-50.087-115.589c6.481-20.197,17.523-39.444,29.221-57.345c19.561-29.935,42.451-57.703,61.843-87.738
	c23.442-36.309,32.74-78.307,42.699-119.705c16.151-67.142,26.85-135.271,30.827-204.142c4.67-80.937,6.928-162.015,10.201-243.032
	c0.081-1.997-0.199-4.009-0.366-6.987c-24.259-5.612-48.637-6.177-73.105-1.922c-58.908,10.24-103.125,43.761-138.912,89.604
	c-13.027,16.688-23.851,35.092-36.404,53.794c-11.985,0-25.398,0-39.402,0c0-2.015-0.416-4,0.061-5.744
	c19.573-71.652,46.795-139.715,94.929-197.577c38.975-46.852,86.849-79.95,147.585-91.851c11.86-2.324,24.137-3.531,36.222-3.535
	c244.091-0.042,488.183,0.167,732.274,0.323c4.004,0.002,8.008,0,12.762,0c0,52.231,0,103.699,0,156.054
	c-81.888,0-163.56,0-246.88,0c-1.944,13.103-4.323,25.564-5.571,38.137c-10.216,102.852-21.975,205.598-29.594,308.644
	c-4.173,56.457-2.855,113.493-0.972,170.166c1.337,40.197,11.733,78.997,37.25,111.754c28.465,36.542,67.625,47.073,111.315,41.446
	c57.649-7.425,90.031-43.102,94.874-101.113c0.219-2.621,0.704-5.219,1.121-8.197c12.15,0,23.782,0,37.637,0
	c-3.714,25.119-6.425,49.525-11.063,73.563c-9.84,50.99-27.228,99.046-60.114,140.192c-37.985,47.527-87.582,73.672-148.34,76.582
	c-53.85,2.578-94.25-21.827-123.006-66.456c-26.099-40.501-38.813-85.928-47.646-132.665
	c-9.567-50.604-13.361-101.77-14.728-153.183c-2.836-106.68,5.059-212.763,18.351-318.47
	C647.133,289.536,656.422,230.175,665.072,169.492z"/>
</svg>
