<?xml version="1.0" encoding="utf-8"?>
<!-- Generator: Adobe Illustrator 16.0.0, SVG Export Plug-In . SVG Version: 6.00 Build 0)  -->
<!DOCTYPE svg PUBLIC "-//W3C//DTD SVG 1.1//EN" "http://www.w3.org/Graphics/SVG/1.1/DTD/svg11.dtd">
<svg version="1.1" id="Layer_1" xmlns="http://www.w3.org/2000/svg" xmlns:xlink="http://www.w3.org/1999/xlink" x="0px" y="0px"
	 width="909.111px" height="1026.996px" viewBox="58.548 0 909.111 1026.996" enable-background="new 58.548 0 909.111 1026.996"
	 xml:space="preserve">
<path fill="#3AB14A" d="M380.33,759.88c-29.544,9.851-57.934,19.312-86.593,28.865c-5.771,25.313-19.726,43.906-46.313,48.817
	c-26.114,4.826-46.968-5.067-62.055-28.45c-14.75,0-29.931,0.895-44.967-0.207c-24.509-1.795-48.896-6.113-65.98-25.938
	c-13.067-15.158-19.516-32.252-13.756-53.805c13.844-51.805,45.374-92.387,80.996-129.951
	c26.405-27.846,55.772-52.877,83.824-79.164c1.953-1.826,3.927-3.643,6.655-6.172c-14.688-13.145-29.118-25.602-43.044-38.596
	c-41.095-38.348-79.783-78.862-106.104-129.183c-7.39-14.128-12.817-29.785-16.253-45.377c-7.049-31.988,7.569-57.5,37.969-69.399
	c27.761-10.868,56.791-10.803,85.821-8.409c63.312,5.216,123.469,23.584,182.871,44.894c1.888,0.677,3.792,1.304,5.511,1.894
	c11.161-45.121,22.254-89.97,33.539-135.593c-22.362-26.147-27.213-49.774-14.348-73.144c13.147-23.881,34.912-32.684,69.435-27.649
	c12.131-13.173,25.979-25.087,44.414-29.202c6.533-1.456,14.038-1.548,20.482,0.116c28.46,7.358,45.996,28.232,60.841,51.763
	c27.16,43.049,42.556,90.818,54.717,139.741c5.896,23.718,10.753,47.693,16.301,72.547c11.824-3.843,23.516-7.804,35.302-11.452
	c58.127-17.992,116.873-32.562,178.438-29.301c22.796,1.21,45.056,5.516,63.125,20.959c20.085,17.169,22.763,39.479,16.948,63.683
	c-8.073,33.61-26.8,61.642-47.511,88.43c-30.462,39.404-65.989,73.938-103.844,106.157c-2.293,1.951-4.404,4.119-7.316,6.857
	c17.112,15.19,33.874,30.067,50.632,44.938c27.287-10.987,52.482-9.164,72.065,13.89c18.596,21.895,18.063,46.182,3.451,70.418
	c7.35,12.184,15.948,23.69,21.616,36.491c7.865,17.767,14.484,36.234,19.797,54.927c3.523,12.393-7.189,41.998-27.439,54.033
	c-26.886,15.975-56.353,17.104-86.158,15.913c-62.602-2.491-121.976-19.95-180.731-40.022c-2.534-0.867-5.085-1.699-8.658-2.885
	c-3.419,16.67-6.456,33.022-10.146,49.229c-11.709,51.387-25.701,102.146-51.777,148.365c-9.339,16.551-20.97,32.387-34.105,46.109
	c-28.155,29.411-62.607,28.993-91.808,0.616c-24.244-23.563-39.101-53.104-51.771-83.805c-20.007-48.473-32.161-99.18-41.728-150.58
	C382.006,767.651,381.199,764.075,380.33,759.88z M373.759,309.765c-70.546-29.254-140.707-57.04-216.479-65.286
	c-18.311-1.995-37.762,0.34-55.871,4.365c-18.607,4.135-27.68,21.015-21.99,39.233c4.843,15.503,11.562,31.165,20.793,44.427
	c43.754,62.855,103.381,109.391,162.947,156.056c33.775-23.741,67.05-47.129,100.105-70.361
	C366.74,382.299,370.198,346.56,373.759,309.765z M417.678,745.054c1.598,11.822,2.994,23.148,4.671,34.431
	c8.027,53.961,18.168,107.463,37.194,158.811c8.67,23.402,18.253,46.566,36.684,64.443c17.679,17.146,36.356,17.428,52.747-1.076
	c9.908-11.186,18.302-24.287,24.861-37.752c19.609-40.242,30.084-83.5,38.38-127.236c5.613-29.582,10.096-59.379,15.001-88.588
	c-37.815-17.131-73.93-33.484-109.533-49.609C484.456,713.956,451.556,729.276,417.678,745.054z M287.442,754.122
	c28.863-11.41,57.531-22.74,86.234-34.084c-3.602-37.644-7.081-73.996-10.51-109.85c-33.23-23.568-66.17-46.935-99.097-70.287
	c-1.081,0.442-2.14,0.641-2.912,1.223c-52.33,39.439-102.847,80.951-145.657,130.92c-17.126,19.986-33.295,40.906-40.444,66.963
	c-5.671,20.681,1.103,36.357,19.062,43.215c27.579,10.533,55.468,5.898,83.423,1.494c2.926-29.09,15.438-50.192,43.992-57.506
	C249.27,719.112,270.942,729.604,287.442,754.122z M768.198,488.177c1.128-0.658,2.65-1.334,3.938-2.324
	c48.548-37.25,95.154-76.652,134.865-123.514c15.521-18.312,29.87-37.614,37.445-60.807c8.765-26.841-2.048-45.219-29.724-50.762
	c-23.842-4.776-47.656-2.307-71.263,1.939c-59.964,10.787-116.817,31.464-172.911,54.433c3.783,40.012,7.511,79.443,11.237,118.874
	C710.344,446.556,739.06,467.216,768.198,488.177z M517.751,330.508c36.412-16.31,72.29-32.381,108.646-48.664
	c-6.96-53.823-15.785-107.141-31.364-159.157c-8.438-28.173-17.917-55.946-34.588-80.521c-24.392-35.959-50.237-36.345-75.561-1.424
	c-0.332,0.457-0.261,1.205-0.437,2.131c19.243,18.106,27.433,39.92,17.729,65.609c-10.027,26.551-31.096,37.63-60.993,37.38
	c-8.254,46.228-16.496,92.379-24.635,137.954C451.751,300.058,484.714,315.266,517.751,330.508z M904.971,660.882
	c-25.193,9.816-47.413,8.074-66.167-10.221c-18.79-18.334-22.777-40.426-12.603-65.982c-19.085-15.227-38.234-30.51-57.297-45.719
	c-29.94,21.723-59.057,42.85-87.004,63.125c-3.791,40.646-7.472,80.104-11.16,119.67c0.387,0.328,0.811,0.896,1.375,1.131
	c55.643,23.371,112.261,43.879,171.704,55.24c26.427,5.053,53.241,9.188,80.087,2.033c23.402-6.236,32.977-22.629,26.592-46.031
	C942.629,705.294,923.644,683.356,904.971,660.882z M639.321,449.477c-40.354-23.408-80.815-46.882-121.621-70.558
	c-37.868,21.61-74.712,42.642-112.156,64.013c0,47.827,0,94.944,0,142.823c37.656,21.51,74.738,42.695,112.15,64.066
	c41.301-24.099,81.713-47.679,121.627-70.97C639.321,534.919,639.321,492.821,639.321,449.477z M360.994,471.282
	c-21.368,14.471-41.651,28.207-63.185,42.791c21.627,14.713,41.691,28.36,63.185,42.979
	C360.994,527.804,360.994,500.735,360.994,471.282z M637.065,630.591c-25.296,14.851-48.426,28.431-73.24,43
	c23.62,11.178,45.05,21.316,67.612,31.996C633.352,680.081,635.13,656.37,637.065,630.591z M564.229,355.368
	c25.243,14.681,48.225,28.047,72.758,42.314c-1.967-25.384-3.789-48.9-5.731-73.995C608.359,334.507,587.21,344.506,564.229,355.368
	z M407.744,637.427c1.741,22.252,3.336,42.646,5.068,64.793c20.212-9.896,38.615-18.905,58.698-28.739
	C449.604,661.095,429.608,649.79,407.744,637.427z M412.872,326.993c-1.714,22.045-3.269,41.995-4.996,64.209
	c21.86-12.355,41.859-23.658,63.497-35.885C451.519,345.705,433.203,336.838,412.872,326.993z M734.8,513.95
	c-18.021-12.385-34.325-23.582-51.47-35.365c0,24.873,0,47.205,0,71.094C700.709,537.614,716.889,526.384,734.8,513.95z"/>
<path fill="#3AB14A" d="M518.863,570.677c-31.238-0.037-57.18-26.078-57.223-57.448c-0.043-30.912,26.573-57.56,57.526-57.584
	c31.266-0.028,57.366,26.047,57.438,57.383C576.68,545.263,551.184,570.714,518.863,570.677z"/>
</svg>
