<?xml version="1.0" encoding="utf-8"?>
<!-- Generator: Adobe Illustrator 16.0.0, SVG Export Plug-In . SVG Version: 6.00 Build 0)  -->
<!DOCTYPE svg PUBLIC "-//W3C//DTD SVG 1.1//EN" "http://www.w3.org/Graphics/SVG/1.1/DTD/svg11.dtd">
<svg version="1.1" xmlns="http://www.w3.org/2000/svg" xmlns:xlink="http://www.w3.org/1999/xlink" x="0px" y="0px"
	 width="233.578px" height="137.717px" viewBox="0 0 233.578 137.717" enable-background="new 0 0 233.578 137.717"
	 xml:space="preserve">
<g id="guides">
</g>
<g id="nsb_logo">
	<g>
		<g>
			<path d="M39.083,116.754c0-1.279,0.192-2.354,0.573-3.221c0.287-0.639,0.677-1.213,1.171-1.721
				c0.492-0.51,1.034-0.887,1.621-1.131c0.782-0.33,1.685-0.496,2.705-0.496c1.852,0,3.332,0.574,4.442,1.721
				c1.109,1.148,1.664,2.744,1.664,4.787c0,2.027-0.549,3.613-1.653,4.758c-1.101,1.141-2.574,1.715-4.417,1.715
				c-1.867,0-3.351-0.566-4.454-1.707C39.635,120.321,39.083,118.752,39.083,116.754 M41.696,116.667
				c0,1.422,0.329,2.502,0.984,3.232c0.656,0.736,1.49,1.104,2.5,1.104c1.011,0,1.84-0.365,2.487-1.094
				c0.65-0.727,0.973-1.82,0.973-3.273c0-1.438-0.317-2.514-0.947-3.223c-0.629-0.707-1.467-1.061-2.513-1.061
				s-1.887,0.359-2.527,1.074C42.015,114.143,41.696,115.225,41.696,116.667"/>
			<polygon points="53.265,122.954 53.265,110.401 55.73,110.401 60.867,118.784 60.867,110.401 63.223,110.401 63.223,122.954 
				60.679,122.954 55.619,114.768 55.619,122.954 			"/>
			<path d="M77.224,122.954h-2.756l-1.097-2.852h-5.018l-1.037,2.852h-2.688l4.888-12.555h2.681L77.224,122.954z M72.557,117.987
				l-1.73-4.658l-1.695,4.658H72.557z"/>
			<polygon points="78.638,122.954 78.638,110.502 81.171,110.502 81.171,120.838 87.474,120.838 87.474,122.954 			"/>
			<path d="M93.194,118.87l2.467-0.24c0.147,0.828,0.45,1.438,0.903,1.824c0.454,0.387,1.065,0.58,1.836,0.58
				c0.817,0,1.432-0.17,1.846-0.516c0.412-0.348,0.622-0.752,0.622-1.213c0-0.295-0.088-0.549-0.262-0.758
				c-0.173-0.209-0.478-0.389-0.911-0.545c-0.298-0.1-0.974-0.283-2.029-0.545c-1.361-0.338-2.313-0.752-2.862-1.244
				c-0.769-0.691-1.156-1.531-1.156-2.523c0-0.643,0.183-1.24,0.544-1.795c0.364-0.557,0.886-0.98,1.568-1.273
				c0.681-0.291,1.505-0.436,2.471-0.436c1.575,0,2.76,0.346,3.557,1.035c0.796,0.691,1.214,1.613,1.253,2.768l-2.536,0.111
				c-0.107-0.645-0.34-1.109-0.696-1.393c-0.357-0.283-0.893-0.424-1.606-0.424c-0.737,0-1.312,0.15-1.73,0.453
				c-0.268,0.195-0.401,0.455-0.401,0.781c0,0.295,0.125,0.551,0.376,0.762c0.321,0.268,1.095,0.549,2.329,0.838
				c1.233,0.291,2.145,0.592,2.736,0.902c0.592,0.313,1.052,0.738,1.388,1.277c0.336,0.539,0.502,1.207,0.502,1.998
				c0,0.721-0.201,1.395-0.6,2.023c-0.401,0.627-0.965,1.094-1.696,1.398c-0.729,0.305-1.641,0.457-2.731,0.457
				c-1.588,0-2.806-0.365-3.658-1.1C93.869,121.344,93.359,120.274,93.194,118.87"/>
			<path d="M113.564,118.338l2.459,0.779c-0.377,1.369-1.004,2.387-1.881,3.051c-0.877,0.668-1.988,0.998-3.334,0.998
				c-1.668,0-3.035-0.566-4.109-1.707c-1.072-1.139-1.611-2.697-1.611-4.67c0-2.092,0.539-3.713,1.619-4.869
				c1.078-1.158,2.498-1.734,4.256-1.734c1.535,0,2.783,0.453,3.742,1.361c0.572,0.537,0.996,1.309,1.285,2.311l-2.51,0.602
				c-0.15-0.65-0.459-1.166-0.928-1.543c-0.473-0.377-1.043-0.564-1.719-0.564c-0.932,0-1.686,0.332-2.264,1.004
				c-0.58,0.666-0.871,1.748-0.871,3.244c0,1.588,0.285,2.717,0.859,3.391c0.568,0.674,1.311,1.012,2.223,1.012
				c0.676,0,1.254-0.215,1.74-0.645C113.008,119.93,113.354,119.256,113.564,118.338"/>
			<rect x="118.121" y="110.401" width="2.535" height="12.553"/>
			<polygon points="123.07,122.954 123.07,110.401 132.379,110.401 132.379,112.522 125.605,112.522 125.605,115.307 
				131.906,115.307 131.906,117.422 125.605,117.422 125.605,120.838 132.617,120.838 132.617,122.954 			"/>
			<polygon points="134.793,122.954 134.793,110.401 137.26,110.401 142.398,118.784 142.398,110.401 144.754,110.401 
				144.754,122.954 142.209,122.954 137.148,114.768 137.148,122.954 			"/>
			<path d="M155.465,118.338l2.457,0.779c-0.377,1.369-1.004,2.387-1.881,3.051c-0.877,0.668-1.986,0.998-3.334,0.998
				c-1.666,0-3.037-0.566-4.109-1.707c-1.076-1.139-1.611-2.697-1.611-4.67c0-2.092,0.539-3.713,1.619-4.869
				c1.08-1.158,2.496-1.734,4.258-1.734c1.535,0,2.781,0.453,3.742,1.361c0.568,0.537,0.998,1.309,1.281,2.311l-2.506,0.602
				c-0.148-0.65-0.459-1.166-0.932-1.543c-0.471-0.377-1.043-0.564-1.717-0.564c-0.93,0-1.686,0.332-2.266,1.004
				c-0.576,0.666-0.867,1.748-0.867,3.244c0,1.588,0.283,2.717,0.855,3.391c0.57,0.674,1.313,1.012,2.227,1.012
				c0.674,0,1.256-0.215,1.74-0.645C154.904,119.93,155.254,119.256,155.465,118.338"/>
			<polygon points="160.098,122.954 160.098,110.401 169.406,110.401 169.406,112.522 162.631,112.522 162.631,115.307 
				168.936,115.307 168.936,117.422 162.631,117.422 162.631,120.838 169.645,120.838 169.645,122.954 			"/>
			<path d="M176.674,110.401h5.02c0.994,0,1.734,0.039,2.225,0.123c0.484,0.084,0.924,0.256,1.309,0.518s0.705,0.613,0.963,1.049
				c0.256,0.438,0.385,0.926,0.385,1.469c0,0.588-0.158,1.127-0.477,1.617c-0.314,0.492-0.746,0.861-1.289,1.107
				c0.766,0.223,1.354,0.602,1.766,1.139c0.412,0.535,0.617,1.168,0.617,1.891c0,0.572-0.135,1.127-0.398,1.668
				c-0.266,0.537-0.629,0.969-1.09,1.293c-0.455,0.318-1.023,0.52-1.697,0.594c-0.424,0.047-1.443,0.076-3.059,0.086h-4.273V110.401
				z M179.209,112.489v2.902h1.662c0.988,0,1.602-0.014,1.842-0.041c0.434-0.055,0.773-0.201,1.021-0.449
				c0.25-0.248,0.377-0.576,0.377-0.98c0-0.389-0.109-0.705-0.326-0.947c-0.213-0.242-0.531-0.391-0.953-0.439
				c-0.25-0.031-0.973-0.045-2.166-0.045H179.209z M179.209,117.481v3.357h2.348c0.914,0,1.492-0.025,1.736-0.078
				c0.377-0.066,0.686-0.234,0.92-0.5c0.24-0.266,0.357-0.621,0.357-1.066c0-0.377-0.092-0.697-0.273-0.959
				c-0.184-0.262-0.447-0.455-0.793-0.572c-0.346-0.119-1.096-0.182-2.248-0.182H179.209z"/>
			<path d="M188.818,116.754c0-1.279,0.189-2.354,0.572-3.221c0.287-0.639,0.676-1.213,1.17-1.721
				c0.494-0.51,1.033-0.887,1.623-1.131c0.781-0.33,1.682-0.496,2.705-0.496c1.848,0,3.33,0.574,4.441,1.721
				c1.109,1.148,1.664,2.744,1.664,4.787c0,2.027-0.551,3.613-1.652,4.758c-1.102,1.141-2.576,1.715-4.418,1.715
				c-1.867,0-3.352-0.566-4.453-1.707C189.369,120.321,188.818,118.752,188.818,116.754 M191.43,116.667
				c0,1.422,0.33,2.502,0.984,3.232c0.654,0.736,1.488,1.104,2.5,1.104s1.84-0.365,2.488-1.094c0.648-0.727,0.971-1.82,0.971-3.273
				c0-1.438-0.314-2.514-0.945-3.223c-0.633-0.707-1.467-1.061-2.514-1.061c-1.045,0-1.887,0.359-2.523,1.074
				C191.748,114.143,191.43,115.225,191.43,116.667"/>
			<polygon points="204.754,122.954 201.758,110.401 204.352,110.401 206.244,119.024 208.539,110.401 211.553,110.401 
				213.754,119.168 215.68,110.401 218.23,110.401 215.184,122.954 212.494,122.954 209.994,113.569 207.504,122.954 			"/>
			<polygon points="219.594,122.954 219.594,110.502 222.127,110.502 222.127,120.838 228.43,120.838 228.43,122.954 			"/>
			<polygon points="0,122.934 0,110.379 2.467,110.379 7.604,118.764 7.604,110.379 9.96,110.379 9.96,122.934 7.416,122.934 
				2.354,114.749 2.354,122.934 			"/>
			<path d="M23.96,122.934h-2.758l-1.096-2.852h-5.018l-1.036,2.852h-2.69l4.89-12.555h2.68L23.96,122.934z M19.292,117.967
				l-1.729-4.658l-1.695,4.658H19.292z"/>
			<polygon points="26.828,122.934 26.828,112.502 23.104,112.502 23.104,110.379 33.08,110.379 33.08,112.502 29.362,112.502 
				29.362,122.934 			"/>
			<rect x="34.637" y="110.379" width="2.537" height="12.555"/>
			<g>
				<path d="M231.019,110.166c0.439,0,0.861,0.11,1.265,0.33c0.403,0.219,0.722,0.535,0.952,0.945s0.346,0.839,0.346,1.287
					c0,0.447-0.113,0.872-0.339,1.277c-0.227,0.404-0.542,0.721-0.947,0.947c-0.405,0.226-0.83,0.339-1.276,0.339
					s-0.871-0.113-1.276-0.339c-0.405-0.227-0.721-0.543-0.947-0.947c-0.226-0.405-0.339-0.83-0.339-1.277
					c0-0.448,0.115-0.877,0.346-1.287s0.549-0.727,0.952-0.945C230.157,110.276,230.579,110.166,231.019,110.166z M231.022,110.667
					c-0.354,0-0.691,0.088-1.015,0.264c-0.323,0.177-0.578,0.43-0.765,0.76c-0.186,0.33-0.279,0.676-0.279,1.037
					c0,0.359,0.092,0.702,0.273,1.027c0.182,0.326,0.435,0.58,0.761,0.764c0.325,0.183,0.667,0.273,1.024,0.273
					c0.359,0,0.7-0.091,1.025-0.273c0.324-0.184,0.578-0.438,0.761-0.764c0.183-0.325,0.274-0.668,0.274-1.027
					c0-0.361-0.094-0.707-0.279-1.037s-0.441-0.583-0.767-0.76C231.713,110.755,231.374,110.667,231.022,110.667z M229.86,114.101
					v-2.721h0.553c0.518,0,0.808,0.002,0.869,0.006c0.184,0.016,0.326,0.053,0.428,0.109s0.186,0.144,0.254,0.262
					c0.068,0.116,0.102,0.246,0.102,0.389c0,0.196-0.063,0.365-0.191,0.504c-0.129,0.139-0.309,0.227-0.541,0.26
					c0.082,0.031,0.146,0.064,0.191,0.102c0.044,0.037,0.105,0.106,0.184,0.209c0.02,0.027,0.087,0.137,0.201,0.332l0.32,0.549
					h-0.683l-0.228-0.442c-0.153-0.296-0.281-0.483-0.381-0.56c-0.102-0.078-0.228-0.116-0.382-0.116h-0.144v1.118H229.86z
					 M230.413,112.554h0.225c0.318,0,0.516-0.012,0.594-0.037c0.076-0.023,0.137-0.066,0.182-0.128s0.067-0.131,0.067-0.21
					c0-0.074-0.022-0.143-0.065-0.201c-0.043-0.061-0.105-0.102-0.186-0.128c-0.08-0.025-0.277-0.038-0.592-0.038h-0.225V112.554z"
					/>
			</g>
		</g>
		<g>
			<path d="M33.402,134.298c-0.396,0.34-0.781,0.593-1.149,0.752c-0.367,0.158-0.762,0.237-1.182,0.237
				c-0.621,0-1.122-0.184-1.501-0.548c-0.381-0.366-0.572-0.836-0.572-1.407c0-0.377,0.084-0.708,0.255-0.998
				c0.174-0.291,0.399-0.522,0.684-0.699c0.284-0.179,0.632-0.301,1.041-0.377c0.255-0.052,0.748-0.09,1.469-0.12
				c0.72-0.03,1.236-0.104,1.551-0.229c0.089-0.313,0.131-0.573,0.131-0.779c0-0.268-0.097-0.477-0.288-0.63
				c-0.27-0.214-0.658-0.316-1.17-0.316c-0.484,0-0.876,0.104-1.184,0.32c-0.308,0.215-0.532,0.518-0.668,0.911l-1.163-0.102
				c0.239-0.667,0.613-1.182,1.125-1.536c0.516-0.357,1.163-0.534,1.946-0.534c0.835,0,1.492,0.2,1.982,0.597
				c0.371,0.298,0.556,0.682,0.556,1.156c0,0.358-0.053,0.776-0.156,1.249l-0.376,1.677c-0.118,0.533-0.178,0.967-0.178,1.3
				c0,0.212,0.046,0.517,0.141,0.914h-1.163C33.473,134.917,33.426,134.636,33.402,134.298 M33.826,131.72
				c-0.163,0.063-0.333,0.112-0.518,0.146c-0.182,0.036-0.49,0.068-0.92,0.109c-0.666,0.058-1.14,0.133-1.416,0.223
				c-0.275,0.093-0.482,0.238-0.622,0.437c-0.139,0.199-0.209,0.418-0.209,0.661c0,0.321,0.111,0.585,0.335,0.791
				c0.22,0.21,0.538,0.311,0.946,0.311c0.382,0,0.75-0.1,1.097-0.3c0.351-0.202,0.63-0.48,0.832-0.842
				C33.556,132.897,33.709,132.385,33.826,131.72"/>
			<path d="M44.612,132.68l1.146,0.118c-0.287,0.843-0.696,1.471-1.229,1.876c-0.527,0.41-1.134,0.613-1.813,0.613
				c-0.73,0-1.323-0.236-1.778-0.711c-0.456-0.475-0.682-1.135-0.682-1.986c0-0.735,0.144-1.459,0.435-2.17
				c0.294-0.71,0.711-1.249,1.254-1.622c0.547-0.371,1.165-0.556,1.864-0.556c0.723,0,1.296,0.204,1.721,0.612
				c0.423,0.408,0.633,0.95,0.633,1.622l-1.13,0.078c-0.004-0.428-0.128-0.762-0.371-1.005c-0.244-0.242-0.564-0.361-0.962-0.361
				c-0.46,0-0.86,0.146-1.199,0.438c-0.338,0.292-0.604,0.735-0.796,1.329c-0.194,0.596-0.286,1.169-0.286,1.716
				c0,0.577,0.125,1.008,0.381,1.295c0.25,0.29,0.564,0.432,0.936,0.432c0.371,0,0.728-0.14,1.07-0.425
				C44.146,133.691,44.416,133.258,44.612,132.68"/>
			<path d="M46.788,132.577c0-1.315,0.385-2.403,1.163-3.269c0.636-0.709,1.474-1.065,2.51-1.065c0.814,0,1.466,0.255,1.964,0.763
				c0.498,0.505,0.744,1.191,0.744,2.057c0,0.772-0.153,1.495-0.467,2.16c-0.312,0.667-0.76,1.176-1.335,1.534
				c-0.578,0.354-1.184,0.531-1.825,0.531c-0.522,0-1-0.113-1.429-0.335c-0.431-0.228-0.758-0.543-0.984-0.952
				C46.902,133.59,46.788,133.114,46.788,132.577 M47.936,132.464c0,0.634,0.153,1.115,0.459,1.441
				c0.305,0.329,0.688,0.492,1.159,0.492c0.248,0,0.487-0.048,0.73-0.147c0.24-0.1,0.463-0.25,0.673-0.453
				c0.207-0.203,0.38-0.436,0.528-0.694c0.146-0.262,0.264-0.542,0.354-0.843c0.132-0.419,0.197-0.82,0.197-1.206
				c0-0.607-0.155-1.081-0.459-1.418c-0.308-0.337-0.695-0.505-1.16-0.505c-0.36,0-0.687,0.085-0.984,0.258
				c-0.292,0.171-0.56,0.423-0.802,0.752c-0.239,0.331-0.415,0.715-0.524,1.152C47.993,131.731,47.936,132.121,47.936,132.464"/>
			<path d="M53.936,135.135l1.408-6.738h1.152l-0.236,1.11c0.426-0.479,0.808-0.808,1.146-0.992c0.337-0.18,0.7-0.272,1.094-0.272
				c0.418,0,0.767,0.111,1.05,0.335c0.282,0.221,0.468,0.531,0.555,0.93c0.342-0.424,0.702-0.74,1.082-0.95
				c0.377-0.209,0.778-0.314,1.198-0.314c0.561,0,0.986,0.134,1.266,0.4c0.278,0.267,0.42,0.641,0.42,1.124
				c0,0.206-0.049,0.552-0.144,1.028l-0.909,4.34H61.87l0.923-4.456c0.08-0.36,0.123-0.623,0.123-0.78
				c0-0.219-0.07-0.392-0.209-0.52c-0.139-0.126-0.336-0.19-0.588-0.19c-0.345,0-0.695,0.103-1.046,0.311
				c-0.357,0.209-0.634,0.478-0.831,0.817c-0.2,0.335-0.369,0.852-0.516,1.55l-0.685,3.269h-1.15l0.952-4.549
				c0.067-0.312,0.103-0.53,0.103-0.66c0-0.222-0.072-0.4-0.208-0.534c-0.137-0.136-0.318-0.203-0.535-0.203
				c-0.328,0-0.67,0.103-1.027,0.311c-0.355,0.209-0.647,0.497-0.87,0.866c-0.225,0.372-0.41,0.899-0.555,1.585l-0.666,3.185H53.936
				z"/>
			<path d="M64.336,137.717l1.947-9.32h1.058l-0.197,0.938c0.396-0.411,0.747-0.695,1.057-0.854c0.313-0.158,0.64-0.239,0.988-0.239
				c0.641,0,1.176,0.232,1.601,0.702c0.419,0.466,0.632,1.136,0.632,2.008c0,0.702-0.116,1.343-0.349,1.921
				c-0.234,0.577-0.515,1.04-0.857,1.396c-0.339,0.348-0.681,0.604-1.027,0.771c-0.348,0.166-0.702,0.247-1.064,0.247
				c-0.808,0-1.437-0.41-1.879-1.233l-0.762,3.663H64.336z M66.606,132.381c0,0.504,0.036,0.852,0.106,1.047
				c0.105,0.275,0.281,0.497,0.521,0.666c0.241,0.171,0.52,0.256,0.835,0.256c0.665,0,1.197-0.373,1.601-1.117
				c0.407-0.743,0.609-1.5,0.609-2.273c0-0.572-0.139-1.012-0.408-1.323c-0.274-0.311-0.615-0.465-1.02-0.465
				c-0.292,0-0.562,0.075-0.813,0.23c-0.248,0.154-0.48,0.387-0.695,0.691c-0.214,0.308-0.389,0.682-0.528,1.128
				C66.673,131.665,66.606,132.05,66.606,132.381"/>
			<path d="M77.207,132.845l1.116,0.113c-0.161,0.556-0.53,1.081-1.108,1.58c-0.576,0.5-1.266,0.749-2.063,0.749
				c-0.5,0-0.958-0.117-1.375-0.344c-0.417-0.233-0.735-0.566-0.951-1.007c-0.218-0.439-0.327-0.943-0.327-1.504
				c0-0.736,0.169-1.452,0.51-2.143c0.342-0.692,0.781-1.205,1.322-1.542c0.545-0.336,1.128-0.506,1.759-0.506
				c0.803,0,1.446,0.249,1.925,0.749c0.481,0.5,0.723,1.182,0.723,2.044c0,0.33-0.032,0.668-0.092,1.015h-4.959
				c-0.017,0.132-0.026,0.249-0.026,0.354c0,0.633,0.146,1.115,0.438,1.444c0.287,0.333,0.642,0.501,1.062,0.501
				c0.392,0,0.78-0.131,1.158-0.39C76.697,133.704,76.995,133.333,77.207,132.845 M73.868,131.175h3.779
				c0.008-0.119,0.009-0.204,0.009-0.254c0-0.574-0.143-1.019-0.431-1.323c-0.289-0.307-0.658-0.46-1.112-0.46
				c-0.49,0-0.937,0.169-1.343,0.51C74.369,129.983,74.065,130.495,73.868,131.175"/>
			<path d="M82.298,134.203l-0.189,0.939c-0.277,0.072-0.542,0.107-0.801,0.107c-0.455,0-0.818-0.111-1.09-0.338
				c-0.203-0.167-0.307-0.4-0.307-0.69c0-0.148,0.059-0.488,0.166-1.021l0.822-3.917h-0.909l0.183-0.887h0.91l0.347-1.658
				l1.312-0.793l-0.513,2.451h1.13l-0.19,0.887h-1.123l-0.781,3.723c-0.099,0.477-0.148,0.758-0.148,0.853
				c0,0.136,0.042,0.241,0.12,0.313c0.078,0.071,0.207,0.107,0.381,0.107C81.874,134.279,82.097,134.254,82.298,134.203"/>
			<path d="M83.313,135.135l1.408-6.738h1.146l-1.407,6.738H83.313z M84.985,127.133l0.273-1.301H86.4l-0.273,1.301H84.985z"/>
			<path d="M89.055,134.203l-0.189,0.939c-0.276,0.072-0.543,0.107-0.798,0.107c-0.457,0-0.821-0.111-1.092-0.338
				c-0.203-0.167-0.307-0.4-0.307-0.69c0-0.148,0.058-0.488,0.167-1.021l0.818-3.917h-0.907l0.186-0.887h0.908l0.345-1.658
				l1.316-0.793l-0.516,2.451h1.131l-0.19,0.887h-1.123l-0.78,3.723c-0.101,0.477-0.149,0.758-0.149,0.853
				c0,0.136,0.04,0.241,0.12,0.313c0.078,0.071,0.206,0.107,0.383,0.107C88.628,134.279,88.859,134.254,89.055,134.203"/>
			<path d="M90.066,135.135l1.411-6.738h1.148l-1.408,6.738H90.066z M91.741,127.133l0.272-1.301h1.145l-0.271,1.301H91.741z"/>
			<path d="M93.333,132.577c0-1.315,0.388-2.403,1.161-3.269c0.639-0.709,1.476-1.065,2.514-1.065c0.812,0,1.464,0.255,1.961,0.763
				c0.498,0.505,0.748,1.191,0.748,2.057c0,0.772-0.155,1.495-0.468,2.16c-0.313,0.667-0.757,1.176-1.338,1.534
				c-0.577,0.354-1.185,0.531-1.823,0.531c-0.524,0-1.003-0.113-1.433-0.335c-0.43-0.228-0.757-0.543-0.981-0.952
				C93.445,133.59,93.333,133.114,93.333,132.577 M94.481,132.464c0,0.634,0.151,1.115,0.459,1.441
				c0.303,0.329,0.689,0.492,1.16,0.492c0.245,0,0.487-0.048,0.732-0.147c0.24-0.1,0.464-0.25,0.67-0.453
				c0.205-0.203,0.384-0.436,0.531-0.694c0.144-0.262,0.261-0.542,0.352-0.843c0.132-0.419,0.199-0.82,0.199-1.206
				c0-0.607-0.158-1.081-0.46-1.418c-0.309-0.337-0.698-0.505-1.162-0.505c-0.358,0-0.687,0.085-0.981,0.258
				c-0.297,0.171-0.565,0.423-0.805,0.752c-0.235,0.331-0.414,0.715-0.523,1.152C94.538,131.731,94.481,132.121,94.481,132.464"/>
			<path d="M100.491,135.135l1.406-6.738h1.04l-0.249,1.176c0.455-0.464,0.876-0.802,1.272-1.014
				c0.393-0.209,0.794-0.316,1.205-0.316c0.547,0,0.973,0.15,1.285,0.445c0.31,0.297,0.467,0.691,0.467,1.188
				c0,0.25-0.055,0.643-0.165,1.179l-0.856,4.081h-1.151l0.896-4.272c0.085-0.412,0.13-0.72,0.13-0.919
				c0-0.224-0.076-0.408-0.23-0.547c-0.156-0.138-0.376-0.208-0.669-0.208c-0.59,0-1.111,0.21-1.572,0.635
				c-0.458,0.424-0.793,1.147-1.013,2.178l-0.652,3.134H100.491z"/>
			<polygon points="111.493,135.135 113.439,125.833 114.588,125.833 112.645,135.135 			"/>
			<path d="M114.557,135.135l1.41-6.738h1.147l-1.409,6.738H114.557z M116.233,127.133l0.274-1.301h1.143l-0.273,1.301H116.233z"/>
			<polygon points="117.633,135.135 119.581,125.833 120.723,125.833 119.516,131.6 122.867,128.397 124.385,128.397 
				121.51,130.909 123.248,135.135 121.992,135.135 120.647,131.677 119.25,132.881 118.781,135.135 			"/>
			<path d="M129.195,132.845l1.12,0.113c-0.161,0.556-0.531,1.081-1.111,1.58c-0.577,0.5-1.263,0.749-2.063,0.749
				c-0.498,0-0.957-0.117-1.374-0.344c-0.418-0.233-0.733-0.566-0.948-1.007c-0.222-0.439-0.33-0.943-0.33-1.504
				c0-0.736,0.172-1.452,0.513-2.143c0.339-0.692,0.78-1.205,1.322-1.542c0.538-0.336,1.125-0.506,1.757-0.506
				c0.804,0,1.449,0.249,1.925,0.749c0.48,0.5,0.72,1.182,0.72,2.044c0,0.33-0.028,0.668-0.089,1.015h-4.961
				c-0.019,0.132-0.023,0.249-0.023,0.354c0,0.633,0.145,1.115,0.435,1.444c0.287,0.333,0.643,0.501,1.063,0.501
				c0.389,0,0.779-0.131,1.161-0.39C128.692,133.704,128.983,133.333,129.195,132.845 M125.859,131.175h3.783
				c0.005-0.119,0.007-0.204,0.007-0.254c0-0.574-0.144-1.019-0.434-1.323c-0.287-0.307-0.658-0.46-1.109-0.46
				c-0.491,0-0.94,0.169-1.341,0.51C126.361,129.983,126.058,130.495,125.859,131.175"/>
			<path d="M135.343,135.135l1.413-6.738h1.04l-0.248,1.176c0.452-0.464,0.876-0.802,1.27-1.014
				c0.393-0.209,0.796-0.316,1.205-0.316c0.546,0,0.975,0.15,1.286,0.445c0.31,0.297,0.465,0.691,0.465,1.188
				c0,0.25-0.056,0.643-0.165,1.179l-0.854,4.081h-1.151l0.896-4.272c0.089-0.412,0.133-0.72,0.133-0.919
				c0-0.224-0.076-0.408-0.232-0.547c-0.153-0.138-0.377-0.208-0.669-0.208c-0.591,0-1.112,0.21-1.572,0.635
				c-0.457,0.424-0.795,1.147-1.01,2.178l-0.656,3.134H135.343z"/>
			<path d="M142.907,132.577c0-1.315,0.388-2.403,1.162-3.269c0.638-0.709,1.477-1.065,2.513-1.065c0.811,0,1.466,0.255,1.962,0.763
				c0.495,0.505,0.746,1.191,0.746,2.057c0,0.772-0.157,1.495-0.471,2.16c-0.313,0.667-0.756,1.176-1.335,1.534
				c-0.578,0.354-1.187,0.531-1.824,0.531c-0.521,0-1.001-0.113-1.429-0.335c-0.433-0.228-0.762-0.543-0.983-0.952
				C143.021,133.59,142.907,133.114,142.907,132.577 M144.057,132.464c0,0.634,0.15,1.115,0.456,1.441
				c0.307,0.329,0.694,0.492,1.162,0.492c0.243,0,0.486-0.048,0.729-0.147c0.243-0.1,0.465-0.25,0.674-0.453
				c0.206-0.203,0.382-0.436,0.529-0.694c0.145-0.262,0.263-0.542,0.353-0.843c0.131-0.419,0.198-0.82,0.198-1.206
				c0-0.607-0.153-1.081-0.465-1.418c-0.307-0.337-0.691-0.505-1.155-0.505c-0.363,0-0.688,0.085-0.984,0.258
				c-0.295,0.171-0.563,0.423-0.801,0.752c-0.239,0.331-0.416,0.715-0.528,1.152S144.057,132.121,144.057,132.464"/>
			<path d="M154.004,132.577c0-1.315,0.387-2.403,1.16-3.269c0.642-0.709,1.478-1.065,2.513-1.065c0.815,0,1.471,0.255,1.968,0.763
				c0.496,0.505,0.745,1.191,0.745,2.057c0,0.772-0.16,1.495-0.475,2.16c-0.308,0.667-0.754,1.176-1.331,1.534
				c-0.582,0.354-1.189,0.531-1.826,0.531c-0.522,0-1-0.113-1.429-0.335c-0.431-0.228-0.758-0.543-0.985-0.952
				C154.119,133.59,154.004,133.114,154.004,132.577 M155.154,132.464c0,0.634,0.152,1.115,0.457,1.441
				c0.304,0.329,0.69,0.492,1.16,0.492c0.242,0,0.486-0.048,0.73-0.147c0.243-0.1,0.464-0.25,0.669-0.453
				c0.211-0.203,0.386-0.436,0.532-0.694c0.146-0.262,0.261-0.542,0.352-0.843c0.133-0.419,0.196-0.82,0.196-1.206
				c0-0.607-0.151-1.081-0.46-1.418c-0.305-0.337-0.691-0.505-1.157-0.505c-0.358,0-0.689,0.085-0.985,0.258
				c-0.291,0.171-0.563,0.423-0.799,0.752c-0.241,0.331-0.414,0.715-0.53,1.152C155.209,131.731,155.154,132.121,155.154,132.464"/>
			<path d="M163.844,134.203l-0.19,0.939c-0.275,0.072-0.542,0.107-0.797,0.107c-0.46,0-0.824-0.111-1.094-0.338
				c-0.203-0.167-0.304-0.4-0.304-0.69c0-0.148,0.054-0.488,0.163-1.021l0.82-3.917h-0.905l0.179-0.887h0.909l0.351-1.658
				l1.314-0.793l-0.515,2.451h1.13l-0.195,0.887h-1.12l-0.781,3.723c-0.096,0.477-0.143,0.758-0.143,0.853
				c0,0.136,0.036,0.241,0.113,0.313c0.083,0.071,0.206,0.107,0.385,0.107C163.418,134.279,163.647,134.254,163.844,134.203"/>
			<path d="M164.898,135.135l1.94-9.303h1.151l-0.743,3.569c0.428-0.411,0.824-0.71,1.196-0.889c0.366-0.18,0.746-0.271,1.134-0.271
				c0.557,0,0.991,0.149,1.3,0.442c0.311,0.293,0.463,0.682,0.463,1.164c0,0.235-0.068,0.673-0.201,1.309l-0.833,3.978h-1.149
				l0.857-4.081c0.125-0.591,0.183-0.963,0.183-1.115c0-0.221-0.071-0.403-0.228-0.542c-0.151-0.138-0.372-0.208-0.657-0.208
				c-0.414,0-0.812,0.108-1.187,0.325c-0.379,0.22-0.671,0.517-0.889,0.896c-0.21,0.377-0.406,0.991-0.584,1.832l-0.603,2.893
				H164.898z"/>
			<path d="M177.207,132.845l1.117,0.113c-0.161,0.556-0.528,1.081-1.107,1.58c-0.578,0.5-1.267,0.749-2.063,0.749
				c-0.5,0-0.961-0.117-1.376-0.344c-0.414-0.233-0.732-0.566-0.951-1.007c-0.217-0.439-0.326-0.943-0.326-1.504
				c0-0.736,0.167-1.452,0.508-2.143c0.344-0.692,0.783-1.205,1.322-1.542c0.545-0.336,1.129-0.506,1.761-0.506
				c0.802,0,1.446,0.249,1.925,0.749c0.481,0.5,0.72,1.182,0.72,2.044c0,0.33-0.029,0.668-0.087,1.015h-4.961
				c-0.021,0.132-0.029,0.249-0.029,0.354c0,0.633,0.148,1.115,0.438,1.444c0.29,0.333,0.643,0.501,1.062,0.501
				c0.393,0,0.78-0.131,1.165-0.39C176.699,133.704,176.995,133.333,177.207,132.845 M173.87,131.175h3.782
				c0.006-0.119,0.008-0.204,0.008-0.254c0-0.574-0.146-1.019-0.435-1.323c-0.286-0.307-0.658-0.46-1.106-0.46
				c-0.492,0-0.942,0.169-1.343,0.51C174.37,129.983,174.069,130.495,173.87,131.175"/>
			<path d="M179.617,135.135l1.408-6.738h1.015l-0.284,1.377c0.344-0.521,0.685-0.904,1.02-1.154
				c0.329-0.251,0.668-0.377,1.015-0.377c0.229,0,0.512,0.084,0.845,0.249l-0.468,1.066c-0.199-0.146-0.417-0.218-0.654-0.218
				c-0.402,0-0.816,0.227-1.24,0.673c-0.422,0.45-0.749,1.256-0.992,2.42l-0.572,2.702H179.617z"/>
			<polygon points="188.13,135.135 188.403,133.834 189.709,133.834 189.424,135.135 			"/>
			<polygon points="195.612,135.135 195.883,133.834 197.186,133.834 196.906,135.135 			"/>
			<polygon points="203.094,135.135 203.369,133.834 204.669,133.834 204.389,135.135 			"/>
		</g>
		<g>
			<g>
				<g>
					<path fill="#004990" d="M228.329,59.325c-3.503-4.347-8.966-7.413-16.393-9.199c4.889-1.693,8.603-3.994,11.138-6.909
						c3.808-4.372,5.712-9.613,5.712-15.721c0-7.285-2.667-13.395-8.003-18.332c-5.333-4.933-12.98-7.4-22.946-7.4h-59.785v0.51
						c4.329,1.212,8.04,2.909,11.124,5.094c6.935,4.911,11.058,12.723,12.372,23.439l-23.496,1.377v8.733
						c3.869,1.266,7.069,2.538,9.574,3.814c6.04,3.079,10.433,6.897,13.183,11.456c2.749,4.559,4.124,9.658,4.124,15.297
						c0,6.626-1.835,12.737-5.498,18.333c-3.667,5.592-8.791,9.833-15.37,12.724c-1.861,0.817-3.875,1.506-6.013,2.091v0.48h55.134
						c2.349,0,7.117-0.469,14.309-1.409c5.405-0.706,9.449-1.834,12.126-3.384c4.326-2.49,7.731-5.875,10.225-10.152
						c2.491-4.278,3.736-9.096,3.736-14.453C233.581,69.136,231.829,63.674,228.329,59.325 M170.271,22.7h14.101
						c4.84,0,8.235,0.848,10.188,2.539c1.947,1.692,2.926,4.045,2.926,7.051c0,3.243-0.979,5.721-2.926,7.438
						c-1.953,1.716-5.419,2.573-10.401,2.573h-13.888V22.7z M198.189,79.981c-2.256,1.953-6.136,2.927-11.631,2.927h-16.287V61.969
						h16.215c5.591,0,9.505,0.931,11.74,2.786c2.229,1.857,3.347,4.313,3.347,7.366C201.573,75.412,200.445,78.031,198.189,79.981"
						/>
					<path fill="#004990" d="M131.445,32.572c-0.799-4.652-2.48-8.039-5.041-10.153c-2.562-2.114-6.099-3.172-10.611-3.172
						c-3.711,0-6.508,0.789-8.388,2.362c-1.882,1.574-2.819,3.489-2.819,5.745c0,1.647,0.774,3.126,2.326,4.441
						c1.504,1.363,5.077,2.633,10.716,3.807c9.891,2.133,17.781,4.281,23.695,6.449V31.992L131.445,32.572z"/>
					<path fill="#106636" d="M105.573,80.297c3.289,4.186,7.99,6.276,14.098,6.276c4.561,0,8.072-1.069,10.541-3.208
						c2.467-2.14,3.7-4.618,3.7-7.438c0-2.678-1.174-5.077-3.522-7.191c-2.354-2.114-7.806-4.112-16.357-5.992
						c-9.326-2.095-16.861-4.656-22.625-7.669v14.581l10.147-0.638C102.212,73.953,103.55,77.715,105.573,80.297"/>
					<path fill="#106636" d="M82.661,96.726c-6.768-6.768-10.6-15.37-11.492-25.801l27.67-1.734V58.346
						c-6.317-2.357-11.249-5.072-14.767-8.15c-6.019-5.217-9.026-11.867-9.026-19.952c0-5.31,1.542-10.327,4.62-15.051
						c3.076-4.724,7.707-8.436,13.887-11.14c1.607-0.702,3.373-1.309,5.287-1.828v-0.46H68.737v57.179L29.822,1.766H0v103.351
						h30.033V48.371l38.704,56.746h30.102v-0.275C91.798,103.166,86.403,100.465,82.661,96.726"/>
				</g>
				<path fill="#004990" d="M140.092,104.044c-1.191,0.383-1.876,0.562-3.806,1.069h11.02l0.331-4.355
					c-1.454,0.822-2.418,1.256-4.326,2.105c-0.625,0.244-1.284,0.51-1.886,0.729"/>
				<path fill="#106636" d="M96.279,104.154c1.189,0.346,1.875,0.506,3.805,0.962H89.065l-0.333-3.918
					c1.455,0.738,2.42,1.129,4.326,1.894c0.627,0.219,1.287,0.457,1.887,0.655"/>
				<path fill="#106636" d="M96.958,2.725c1.189-0.345,1.875-0.506,3.805-0.962H89.745l-0.333,3.919
					c1.456-0.739,2.42-1.13,4.326-1.894c0.627-0.22,1.287-0.459,1.888-0.655"/>
				<path fill="#004990" d="M139.921,2.834c-1.188-0.383-1.876-0.563-3.806-1.07h11.02l0.334,4.357
					c-1.456-0.821-2.421-1.256-4.326-2.105c-0.628-0.243-1.288-0.51-1.888-0.729"/>
			</g>
			<path fill="#FFFFFF" d="M71.207,70.895l30.373-1.904c0.659,4.933,1.996,8.692,4.019,11.275c3.287,4.183,7.985,6.272,14.091,6.272
				c4.558,0,8.07-1.067,10.536-3.206c2.467-2.137,3.702-4.615,3.702-7.435c0-2.677-1.176-5.073-3.524-7.187
				c-2.351-2.114-7.802-4.111-16.352-5.991c-13.999-3.147-23.983-7.329-29.95-12.544c-6.014-5.214-9.019-11.861-9.019-19.943
				c0-5.308,1.537-10.324,4.616-15.047c3.077-4.721,7.703-8.43,13.883-11.134C99.758,1.349,108.227,0,118.987,0
				c13.201,0,23.269,2.456,30.195,7.365c6.93,4.907,11.054,12.718,12.368,23.43l-30.091,1.762c-0.8-4.65-2.478-8.034-5.037-10.148
				c-2.564-2.114-6.099-3.17-10.608-3.17c-3.71,0-6.507,0.787-8.386,2.36c-1.878,1.574-2.818,3.488-2.818,5.743
				c0,1.646,0.774,3.125,2.324,4.44c1.504,1.363,5.076,2.631,10.71,3.805c13.955,3.007,23.95,6.05,29.987,9.125
				c6.038,3.079,10.43,6.896,13.178,11.452c2.75,4.557,4.122,9.655,4.122,15.293c0,6.623-1.832,12.731-5.494,18.322
				c-3.666,5.592-8.786,9.83-15.365,12.72c-6.577,2.889-14.869,4.334-24.876,4.334c-17.572,0-29.738-3.381-36.504-10.147
				C75.929,89.922,72.099,81.324,71.207,70.895"/>
		</g>
		<g>
			<path fill="#004990" d="M231.019,1.741c0.439,0,0.861,0.11,1.265,0.33c0.403,0.22,0.722,0.535,0.952,0.945
				c0.23,0.411,0.346,0.839,0.346,1.288c0,0.446-0.113,0.872-0.339,1.276c-0.227,0.405-0.542,0.721-0.947,0.947
				c-0.405,0.226-0.83,0.339-1.276,0.339s-0.871-0.113-1.276-0.339c-0.405-0.227-0.721-0.542-0.947-0.947
				c-0.226-0.405-0.339-0.83-0.339-1.276c0-0.449,0.115-0.877,0.346-1.288c0.23-0.41,0.549-0.726,0.952-0.945
				C230.157,1.852,230.579,1.741,231.019,1.741z M231.022,2.243c-0.354,0-0.691,0.088-1.015,0.264s-0.578,0.43-0.765,0.76
				c-0.186,0.33-0.279,0.676-0.279,1.037c0,0.359,0.092,0.702,0.273,1.027s0.435,0.58,0.761,0.763
				c0.325,0.183,0.667,0.274,1.024,0.274c0.359,0,0.7-0.091,1.025-0.274c0.324-0.183,0.578-0.437,0.761-0.763
				s0.274-0.668,0.274-1.027c0-0.361-0.094-0.707-0.279-1.037s-0.441-0.583-0.767-0.76C231.713,2.331,231.374,2.243,231.022,2.243z
				 M229.86,5.676v-2.72h0.553c0.518,0,0.808,0.002,0.869,0.006c0.184,0.016,0.326,0.052,0.428,0.109
				c0.102,0.057,0.186,0.144,0.254,0.261c0.068,0.117,0.102,0.247,0.102,0.39c0,0.196-0.063,0.364-0.191,0.503
				c-0.129,0.139-0.309,0.226-0.541,0.26c0.082,0.031,0.146,0.064,0.191,0.102c0.044,0.037,0.105,0.106,0.184,0.209
				c0.02,0.026,0.087,0.137,0.201,0.331l0.32,0.549h-0.683l-0.228-0.442c-0.153-0.296-0.281-0.483-0.381-0.56
				c-0.102-0.078-0.228-0.116-0.382-0.116h-0.144v1.118H229.86z M230.413,4.13h0.225c0.318,0,0.516-0.012,0.594-0.037
				c0.076-0.024,0.137-0.067,0.182-0.128s0.067-0.131,0.067-0.209c0-0.075-0.022-0.143-0.065-0.202
				c-0.043-0.06-0.105-0.102-0.186-0.127c-0.08-0.025-0.277-0.039-0.592-0.039h-0.225V4.13z"/>
		</g>
	</g>
</g>
</svg>
