<?xml version="1.0" encoding="utf-8"?>
<!-- Generator: Adobe Illustrator 16.0.0, SVG Export Plug-In . SVG Version: 6.00 Build 0)  -->
<!DOCTYPE svg PUBLIC "-//W3C//DTD SVG 1.1//EN" "http://www.w3.org/Graphics/SVG/1.1/DTD/svg11.dtd">
<svg version="1.1" id="Layer_1" xmlns="http://www.w3.org/2000/svg" xmlns:xlink="http://www.w3.org/1999/xlink" x="0px" y="0px"
	 width="210px" height="210.042px" viewBox="0 0 210 210.042" enable-background="new 0 0 210 210.042" xml:space="preserve">
<rect y="0.042" fill="#3AB14A" width="210" height="210"/>
<path d="M138.773,63.62c0,0-23.443-2.719-33.297-2.719c-16.649,0-25.654,5.438-25.654,18.688c0,15.461,8.155,18.01,28.882,22.596
	c23.444,5.268,33.81,11.043,33.81,32.109c0,25.483-14.441,35.678-38.057,35.678c-12.912,0-36.188-3.568-36.188-3.568l1.359-11.891
	c0,0,22.596,2.887,34.658,2.887c16.649,0,24.974-6.285,24.974-22.596c0-13.25-6.966-16.988-26.163-20.727
	c-24.295-5.267-36.356-11.043-36.356-34.148c0-22.086,14.78-31.6,38.735-31.6c13.081,0,34.487,3.398,34.487,3.398L138.773,63.62z"/>
</svg>
