<?xml version="1.0" encoding="utf-8"?>
<!-- Generator: Adobe Illustrator 16.0.0, SVG Export Plug-In . SVG Version: 6.00 Build 0)  -->
<!DOCTYPE svg PUBLIC "-//W3C//DTD SVG 1.1//EN" "http://www.w3.org/Graphics/SVG/1.1/DTD/svg11.dtd">
<svg version="1.1" xmlns="http://www.w3.org/2000/svg" xmlns:xlink="http://www.w3.org/1999/xlink" x="0px" y="0px" width="210px"
	 height="210.042px" viewBox="0 0 210 210.042" enable-background="new 0 0 210 210.042" xml:space="preserve">
<g id="Math_1_">
	<polygon id="Math" fill="#EBAF20" points="963.108,0.042 753.206,0.042 692.225,210.042 902.127,210.042 	"/>
	<g>
		<path d="M776.445,50.198h20.49l30.734,99.386l30.887-99.386h20.336v118.244h-11.773V65.488h-2.141l-30.887,98.707h-12.998
			l-30.734-98.707h-2.141v102.954h-11.773V50.198z"/>
	</g>
</g>
<g id="Engineering_1_">
	<polygon id="Engineering_3_" fill="#ED5025" points="732.161,1.042 522.259,1.042 461.277,210.042 671.179,210.042 	"/>
	<g>
		<path d="M564.101,50.198h71.354V62.6h-58.442v39.924h48.249v12.232h-48.249v41.283h58.442v12.402h-71.354V50.198z"/>
	</g>
</g>
<g id="Technology_1_">
	<polygon id="Technology" fill="#7398CF" points="501.214,0.042 291.312,0.042 230.33,210.042 440.232,210.042 	"/>
	<g>
		<path d="M323.3,50.198h84.946V62.77h-35.848v105.672h-12.912V62.77H323.3V50.198z"/>
	</g>
</g>
<g id="Science_1_">
	<polygon id="Science_3_" display="none" fill="#3AB14A" points="270.818,0.042 60.916,0.042 -0.066,210.042 209.837,210.042 	"/>
	<rect y="0.042" fill="#3AB14A" width="210" height="210"/>
	<g>
		<path d="M138.774,63.62c0,0-23.444-2.719-33.298-2.719c-16.649,0-25.654,5.438-25.654,18.688c0,15.461,8.155,18.01,28.882,22.596
			c23.445,5.268,33.809,11.043,33.809,32.109c0,25.484-14.441,35.678-38.056,35.678c-12.912,0-36.188-3.568-36.188-3.568
			l1.359-11.891c0,0,22.596,2.887,34.658,2.887c16.649,0,24.974-6.285,24.974-22.596c0-13.25-6.966-16.988-26.163-20.727
			c-24.295-5.266-36.356-11.043-36.356-34.148c0-22.086,14.78-31.6,38.735-31.6c13.081,0,34.487,3.398,34.487,3.398L138.774,63.62z"
			/>
	</g>
	<g>
	</g>
	<g>
	</g>
	<g>
	</g>
	<g>
	</g>
	<g>
	</g>
	<g>
	</g>
	<g>
	</g>
	<g>
	</g>
	<g>
	</g>
	<g>
	</g>
	<g>
	</g>
	<g>
	</g>
	<g>
	</g>
	<g>
	</g>
	<g>
	</g>
</g>
</svg>
