<?xml version="1.0" encoding="utf-8"?>
<!-- Generator: Adobe Illustrator 16.0.0, SVG Export Plug-In . SVG Version: 6.00 Build 0)  -->
<!DOCTYPE svg PUBLIC "-//W3C//DTD SVG 1.1//EN" "http://www.w3.org/Graphics/SVG/1.1/DTD/svg11.dtd">
<svg version="1.1" id="Layer_1" xmlns="http://www.w3.org/2000/svg" xmlns:xlink="http://www.w3.org/1999/xlink" x="0px" y="0px"
	 width="358.021px" height="156.137px" viewBox="0 0 358.021 156.137" enable-background="new 0 0 358.021 156.137"
	 xml:space="preserve">
<g id="Layer_1_1_">
	<path fill="#FFFFFF" d="M203.433,51.538"/>
</g>
<g id="_x32_0th_Layer_1">
	<path display="none" fill="#FFFFFF" d="M32.163,77.784c0,42.133,66.781,76.284,149.156,76.284
		c82.379,0,149.164-34.151,149.164-76.284c0-42.133-66.785-76.289-149.164-76.289C98.944,1.495,32.163,35.651,32.163,77.784z"/>
	<g>
		<path fill="#CEE6C1" d="M273.374,29.405c0.074-0.121,0.781-1.199,1.031-1.121c1.883,0.566,2.402,2.957,3.195,4.469
			c0.723,1.371,2.891,0.867,3.525,2.461c0.332,0.853-0.879,1.388-0.646,1.945c0.336,0.828,1.729,1.012,2.129,1.75
			c0.949,1.758-0.814,3.367-2.004,4.609c-0.387,0.414-1.547,0.336-2.227,0.039c-0.809-0.355-1.844-1.306-0.859-2.32
			c0.695-0.723,2.164-0.969,1.859-1.961c-0.922-3.017-2.406-6.305-5.07-8.103L273.374,29.405z"/>
		<path fill="#CEE6C1" d="M273.976,31.963c0.617,2.009,1.09,4.056-0.469,5.652c0.863,0.805,1.355,1.941,1.82,2.91
			c0.305,0.621-0.746,1.348-1.453,1.875c-0.176,0.133-0.594,0.141-0.723,0c-1.811-1.938-3.918-4.992-6.891-3.578
			c0.879,3.266,3.326,5.703,6.439,6.844c0.496,2.539,1.365,5.027,1.133,7.642c-0.047,0.563-0.344,1.194-0.779,1.555
			c-1.945,1.586-3.303,3.117-5.557,4.147c-0.219,0.099-0.432,0.517-0.367,0.728c0.928,2.91,4.975,4.453,3.82,7.617
			c-0.789,2.147-3.135,0.844-4.729,0.125c-0.172-0.078-0.672,0.184-0.684,0.336c-0.156,2.219,2.098,3.75,1.527,6.031
			c-1.57,1.18-2.965-0.734-3.914-1.72c-1.396-1.44-1.207-3.547-1.478-5.504c-0.25-1.848-1.702-3.113-3.022-4.492
			c-0.402-0.422-0.478-1.129-0.898-1.516c-1.496-1.396-2.879-2.504-3.648-4.449c-0.039-0.094-0.52-0.117-0.693,0.017
			c-2.188,1.707-2.543,4.434-4.357,6.483c-1.135,1.273-1.082,3.023-1.471,4.703c-0.203,0.898-1.236,1.641-2.229,1.172
			c-0.572-0.272-1.164-0.819-1.189-1.539c-0.104-2.438-1.939-4-2.861-6.035c0.279-6.125-6.281-9.034-11.678-8.051
			c-1.672-1-3.271-1.813-5.232-2.016c-1.211-1.441-2.629-2.871-4.441-3.039c-0.43-0.047-1.316,0.875-1.047,1.344
			c1.633,2.789,5.023,4.336,8.305,4.517c1.945,1.594,0.281,4.233-0.617,5.922c-0.891,1.676-2.242,3.547-4.25,3.938
			c-5.688,1.109-6.789-6.215-9.805-9.703c-1.148-1.323-1.773-2.922-3.102-4.112c-0.086-0.074-0.594,0.145-0.682,0.354
			c-0.184,0.469-0.188,1.098,0,1.563c2.023,4.871,5.281,8.961,8.949,12.758c0.813,0.84,1.832,1.772,3.082,2.078
			c1.279,0.305,2.263-0.992,3.268-1.345c2.701-0.944,1.965,2.109,1.434,3.806c-0.203,0.651-1.078,1.03-1.434,1.68
			c-1.855,3.406-4.563,5.664-6.813,8.891c-2.828,4.063-1.027,8.712-1.938,13.173c-0.699,3.426-3.145,6.017-4.189,9.305
			c-2.039,1.587-2.777,4.063-4.496,5.984c-2.207,2.469-6.617,4.348-9.063,1.551c-0.599-0.676,0.353-1.806,0.141-2.672
			c-0.305-1.272-1.168-2.375-1.375-3.673c-0.53-3.401-1.655-6.401-3.594-9.327c-0.396-0.586-0.358-1.629-0.022-2.271
			c2.219-4.211,1.008-8.957-2.828-11.867c-1.438-1.086,0.281-2.754-0.121-4.289c-0.073-0.293-0.185-0.608-0.409-0.766
			c-1.228-0.84-2.556-0.211-3.595-1.25c-3.108,0.438-6.211-1.039-9.262,0c-4.172-1.633-6.023-5.555-6.668-9.691
			c-0.25-1.604,0.992-3.245,0.805-4.776c-0.273-2.32-1.227-4.461-0.977-6.871c2.266-3.09,4.047-6.246,6.094-9.629
			c0.391-0.648,1.023-1.474,1.547-1.457c2.801,0.074,5.508,0.776,8.483,0.422c2.836-0.332,4.556,2.59,7.271,3.215
			c1.488,0.34,2.888,0.945,4.375,0.875c0.677-0.027,1.401-0.742,2.063-0.897c2.863-0.664,6.094,0.069,8.285-1.923
			c0.461-0.422-0.359-1.551-0.746-1.684c-2.066-0.715-4.926-0.98-5.574-3.414c-1.734,0.035-1.262,2.402-2.07,3.578
			c-0.094,0.133-0.473,0.078-0.742,0.031c-0.734-0.129-1.426-0.699-1.461-1.207c-0.203-2.746-1.891-5.349-4.598-5.927
			c-0.082-0.016-0.395,0.523-0.309,0.66c1.271,1.949,2.99,3.375,3.547,5.685c-1.254-0.263-2.354,0.789-3.682,0.104
			c-0.211-0.104-0.68,0.375-1.146,0.297c1.875-2.926-0.379-5.805-3.229-6.844c-2.379,0.695-4.582,1.82-6.84,2.816
			c0.189,1.151-0.279,2.504-1.613,2.801c-1.48,0.336-2.773-0.229-3.938-0.93c-1.473-0.888,0.203-2.517-0.086-3.884
			c1.355-0.84,3.305-0.094,4.297-1.315c0.332-0.41,0.865-1.199,0.482-1.879c-1.25-2.258-3.792-4.142-2.625-6.806
			c0.047-0.108,0.719-0.198,1.047-0.487c0.602-0.539,0.227-1.668,0.512-1.802c2.534-1.184,3.746,2.242,4.737,4.238
			c1.953,0.543,2.806-1.026,3.625-2.418c1.961,0.81,3.888,2.57,5.578,0.359c1.336-1.734,1.03-3.938,1.172-6
			c0.009-0.117-0.44-0.263-0.711-0.398c-0.97,1.996-1.039,4.521-2.853,6c-0.172,0.133-0.53,0.109-0.758,0.008
			c-1.188-0.512-0.384-1.952-1.281-2.715c-0.241-0.207-0.758-0.147-1.133-0.03c-1.147,0.362-2.095,2.047-3.156,0.702
			c-0.938-1.19-2.241-3.448-0.414-4.194c2.978-1.215,4.293-4.695,7.242-5.582c2.742-0.828,6.353-0.617,7.242,2.979
			c0.125,0.478,0.801,0.855,1.094,0.707c2.147-1.074,3.289-4.547,6.142-2.367c0.267,0.203,0.758,0.125,1.151,0.035
			c1.315-0.305,2.004-1.664,3.246-1.862c1.349-0.216,2.681,0.702,3.987,0.543c3.216-0.392,3.164-4.363,5.255-6.293
			c2.43-0.488,3.991,1.655,6.405,2.163c0.759,0.156,0.853,1.406,1.656,1.828c1.69,0.892,3.563,0.103,5.211,0.203
			c0.733,0.047,1.655,0.138,2.43,0.625c3.828,2.398,7.953,0.738,12.048,1.359c0.961,0.141,1.854,0.758,2.858,0.983
			c1.06,0.234,2.133-0.086,3.185,0.156c1.737,0.41,3.198,1.406,4.887,1.73c3.238,0.633,4.063-1.793,7.177-0.642
			c3.823,1.418,10.004,3.396,13.418,5.371c-0.797,0.681-2.117,0.563-2.379,1.547c-0.466,1.746,1.901,2.931,1.391,4.773
			c-0.229,0.828-1.163,1.121-1.887,0.742c-2.599-1.345-3.319-4.181-4.526-6.73c-0.103-0.215-0.574-0.44-0.695-0.354
			c-1.84,1.305-4.082,0.688-5.598,2.043c-0.306,0.272-0.195,1.094,0.34,1.469c2.879,2.008,5.383,3.934,7.737,6.363L273.976,31.963z"
			/>
		<path fill="#CEE6C1" d="M268.741,78.217c0.93,1.01,0.961,2.514-0.063,3.277c-4.049-0.695-9.781-2.609-8.859-7.647
			c0.805,0,1.75-0.267,2.32,0.133C264.44,75.581,266.87,76.19,268.741,78.217z"/>
		<path fill="#CEE6C1" d="M275.519,83.51c-1.607,0.871-4.766,0.668-5.129-1.227c-0.039-0.219,0.418-0.68,0.707-0.703
			C272.702,81.452,274.862,81.877,275.519,83.51z"/>
		<path fill="#CEE6C1" d="M278.351,78.698c-1.473,1.315-3.693,2.366-5.078,1.016c-0.813-0.789-1.016-2.328-1.676-3.508
			c-0.297-0.539-0.168-1.805,0.258-1.727c3.074,0.594,4.725-0.961,6.535-3c0.117-0.142,0.59-0.138,0.695,0
			C280.64,73.561,280.468,76.807,278.351,78.698z"/>
		<path fill="#CEE6C1" d="M283.96,71.26c-1.656,0.16-3.805-1.504-2.398-3.452c1.047,0.202,1.906-0.609,2.82-0.656
			c1.938-0.105,1.871,1.897,1.504,3.453C285.687,71.427,284.562,71.206,283.96,71.26z"/>
		<path fill="#CEE6C1" d="M280.71,61.385c0.695,1.642,3.004,2.695,2.313,4.349c-0.641,1.526-3.021,1.069-3.848-0.355
			c-0.684-1.194-0.785-2.469-1.508-3.688c-0.262-0.449-0.492-1.738,0.27-1.758C278.882,59.917,280.218,60.229,280.71,61.385z"/>
		<path fill="#CEE6C1" d="M221.202,92.792c-0.738,0.961-0.785,2.031-0.938,3.185c-0.178,1.371-1.168,2.685-2.371,3.043
			c-1.271,0.371-2.188-1.272-1.855-2.603c0.359-1.461,1.742-2.344,2.094-4.012c0.344-1.63,1.82-2.712,2.32-4.445
			c0.023-0.065,0.555-0.112,0.664,0.021C222.155,89.331,222.585,90.986,221.202,92.792z"/>
		<path fill="#CEE6C1" d="M174.054,17.802c-1.367,0.238-2.945,0.41-3.961-0.754c-0.133-0.159-0.129-0.543,0-0.741
			c1.191-1.892,3.344-0.086,5.199-0.353c0.254-0.035,0.57,0.363,0.359,0.711C175.288,17.26,174.687,17.69,174.054,17.802z"/>
		<path fill="#CEE6C1" d="M157.366,8.018c-0.539,0-0.828,0.448-1.418,0.559c-0.938,0.168-1.965-0.176-2.762,0.172
			c-1.5,0.652-2.973,0.48-4.5,1.017c-0.621,0.215-1.539,0.305-1.906-0.371c-0.234-0.418-0.172-1.355-0.035-1.398
			c3.746-1,7.355-3.789,11.145-1.633c0.273,0.156,0.113,1.004-0.32,1.469L157.366,8.018z"/>
		<path fill="#CEE6C1" d="M158.296,8.167c1.633-2.055,3.848-2.133,6.117-1.944c3.23-1.771,7.285-2.306,10.824-1.095
			c0.898,0.306,1.582,1.242,1.215,2.281c-0.523,1.453-1.922,2.102-3.082,2.969c-0.809,0.603-1.004,1.797-1.707,2.685
			c-0.543,0.68-1.301,0.938-2.039,1.125c-1.859,0.477-3.711,0.323-5.582,0.655c-3.113,0.563-4.223,4.23-7.313,4.91
			c-1.465,0.32-1.91-1.405-1.5-2.641c0.574-1.711,1.863-3.078,2.34-4.855c-1.324-1.051-0.789-2.659,0.336-3.698L158.296,8.167z"/>
		<path fill="#CEE6C1" d="M148.315,27.151c-0.012,1.25,1.41,2.397,0.41,3.633c-0.844,1.039-2.367,0.98-3.484,0.992
			c-1.633-0.031,0.777-2.332,0.961-3.435c0.012-0.09-0.547-0.395-0.652-0.313c-0.773,0.594-1.602,0.637-2.449,0.82
			c-1.898,0.414-2.227,2.332-1.633,3.938c0.953,2.555-6.625,1.84-8.055,5.23c-1.156,0.323-1.637,1.188-2.473,1.952
			c-0.652,0.603-1.816,0.685-2.215,1.355c-0.344,0.582-0.586,1.535-1.031,1.766c-3.078,1.591-4.875,4.168-5.453,7.427
			c-0.016,0.086,0.441,0.25,0.703,0.383c-1.336,0.565-1.875,3.141-3.602,1.594c-0.922-0.824,0.047-1.867-0.121-2.781
			c-0.441-2.401-2.773-0.285-4.309-0.508c-0.18-0.022-0.281-0.625-0.422-0.633c-1.852-0.059-3.789-1.078-5.105,0.426
			c-1.793,2.063-2.215,4.849-2.059,7.535c0.031,0.555,0.328,1.211,0.781,1.531c1.766,1.227,3.07-0.961,4.781-1.508
			c0.461-0.142,1.008,0.102,1.109,0.413c0.422,1.345-0.148,2.681-0.664,4.013c-0.141,0.354-0.172,0.852,0.016,1.151
			c1.297,2.07,3.859,2.845,3.664,5.681c-0.059,0.809,0.719,1.555,1.492,1.492c0.633-0.056,0.57-1.234,1.242-1.431
			c0.422-0.121,0.832-0.211,1.172-0.492c0.602-0.491,1.102-1.422,1.617-1.405c1.609,0.059,2.898,0.741,4.492,1.227
			c1.484,0.449,3.246,0.105,4.734,0.703c1.148,0.461,1.438,1.914,2.477,2.688c0.492,0.366,1.047,0.741,1.59,0.75
			c2.316,0.03,4.395,1.413,4.832,3.706c0.27-0.133,0.539-0.27,0.805-0.401c-0.137,0.27-0.414,0.625-0.328,0.758
			c1.129,1.719,3.867,1.305,4.754,3.271c1.77,0.439,3.84-0.074,5.141,1.297c1.824,1.93,3.09,4.559,2.016,7.121
			c-0.688,1.633-2.492,2.729-2.551,4.469c-0.129,3.723,0.305,8.68-3.398,10.863c-0.891,2.236-0.32,4.779-2.328,6.543
			c-0.578,0.504,0.371,0.979,0.672,1.533c0.375,0.686-0.207,1.363-0.461,1.941c-0.852,1.91-3.137,2.715-3.41,4.891
			c-0.211,1.66-0.652,3.26-0.707,4.824c-0.051,1.598,1.93,2.063,2.797,3.504c0.855,1.422,3.477,1.992,2.57,4.109
			c-0.211,0.492-0.684,1.008-1.172,1.145c-3.914,1.1-5.813-3.025-7.863-5.668c-2.121-2.732-2.012-6.602-4.996-8.732
			c-0.418-3.471-2.031-6.379-3.078-9.703c-0.699-2.211,0.512-4.479,0.199-6.793c-0.074-0.574-0.395-1.117-0.773-1.59
			c-0.73-0.914-1.73-1.518-2.293-2.492c-1.617-2.807-3.109-5.828-6.129-7.195c-0.75-2.926-2.551-4.979-4.426-7.25
			c-0.305-2.594,1.219-4.809,1.871-7.281c0.496-1.914-1.309-3.241-2.73-4.315c-1.223-0.922-2.898-1.142-3.82-2.219
			c-2.258-2.642-4.781-4.168-7.801-5.505c-2.395-2.805-3.027-6.78-3.754-10.438c-0.203-1.039-0.539-2.203-1.52-2.773
			c-0.152-0.086-0.645,0.152-0.684,0.349c-0.551,2.207,1.93,4.391,0.656,6.379c-0.078,0.125-0.563,0.133-0.688,0
			c-1.008-1.113-1.305-2.531-1.766-3.949c-0.492-1.535-0.008-2.969-0.359-4.449c-0.43-1.823-1.695-3.387-1.391-5.219
			c0.82-4.914,3.477-9.203,8.195-11.5c0.234-0.113,0.398-1.254,0.68-1.703c1.086-1.742,2.727-2.977,3.453-4.938
			c-1.168-3.845-6.008-1.539-8.871-1.306c-0.113,0.013-0.227-0.594-0.406-0.629c-2.336-0.418-4.137,1.398-6.434,1.902
			c-0.914,0.203-0.141-0.566-0.398-0.773c2.109-0.461,3.258-2.276,4.898-3.543c1.012-0.78,2.273-0.809,3.539-1.004
			c1.773-0.27,2.617-2.026,4.105-3.008c0.551-0.359,1.246,0.633,1.926,0.258c3.973-2.194,7.906-4.789,12.5-4.297
			c0.445,0.047,0.555,0.93,0.84,0.988c1.629,0.332,3.145-0.246,4.813-0.609c2.152-0.465,3.719,0.93,5.645,1.488
			c0.215,0.059,0.68-0.18,0.699-0.353c0.172-1.414-0.191-3.223,0.996-3.805c1.008-0.492,2.328-0.508,3.559-0.883
			c0.973-0.293,2.129-0.035,3.199,0.07c0.66,0.063,1.586-0.523,2.398-0.521c2.305,0,4.344,1.832,3.543,4.316
			c-0.715,2.227-2.691,3.422-4.684,4.569c-0.09,0.056-0.164,0.56-0.484,0.656c-2.734,0.848-6.023,1.892-7.234,4.461
			c1.422,1.453,1.578,2.918,2.008,4.832c0.742,0.926,1.434-1.483,2.059-2.387c0.395-0.578,1.078-0.867,1.449-1.336
			c1.699-2.172,3.773-6.781,6.836-4.556c0.438,0.32-0.203,1.617,0.582,2.169c1.098,0.762,2.73,0.073,3.52,1.309
			C147.698,23.573,148.339,25.229,148.315,27.151z"/>
		<path fill="#CEE6C1" d="M127.78,58.159c-1.516,0.258-2.961,0.777-3.219-1.219c-1.844,1.492-3.789-0.094-5.68-0.664
			c-0.625-0.188-1.418-0.349-1.875-0.676c-0.438-0.313,0.453-0.918,0.719-0.938c2.789-0.223,5.797,0.223,8.039,1.879
			c0.969-0.897,2.574-0.414,3.109,0.469c0.113,0.185-0.375,0.664-0.289,1.138C128.312,58.147,128.05,58.116,127.78,58.159z"/>
		<path fill="#CEE6C1" d="M132.202,147.514c-0.328-1.802-1.422-3.474-0.652-5.164c0.648-1.431,2.324-2.125,3.895-2.384
			c3.695-0.598,6.129,2.396,9.664,3.031c1.133,0.203,2.25-0.582,3.258-0.965c0.914-0.353,2.164-0.453,3.164,0.25
			c2.063-1.75,2-4.582,3.414-6.711c0.262-0.396,1.418-0.134,2.219-0.134c-0.031,1.095,0.359,2.117,0.563,3.188
			c0.352,1.836,2.648,2.5,3,4.474c0.195,1.073-0.066,2.121,0.129,3.198c0.082,0.449,0.387,0.931,0.777,1.156
			c1.664,0.979,3.531,0.224,5.242-0.113c2.086-0.405,4.195,0.543,6.375,0.066c2.758-0.604,3.016-4.009,5.32-5.423
			c2.473-1.522,5.297-1.582,8.008-2.44c1.219-0.387,2.147,1.104,3.164,0.94c3.664-0.594,6.897,0.13,10.478-0.366
			c1.78-0.246,3.37-1,4.905-2.195c3.547-2.772,9.156-1.957,10.582,2.695c0.043,0.155,0.935,0.164,1.426,0
			c1.203-0.406,2.156-1.375,3.289-1.828c3.695-1.483,7.772-1.19,11.22-3.353c2.344,0.031,4.551,0.806,6.858,1.063
			c5.306,0.595,11.733-1.992,15.642,3c0.133,0.172,0.133,0.574-0.004,0.728c-0.935,1.056-1.699,2.289-1.539,3.664l0.159,0.526
			c-21.172,5.896-45.438,9.246-71.233,9.246c-17.132,0-33.583-1.478-48.901-4.194L132.202,147.514z"/>
		<path fill="#CEE6C1" d="M220.397,39.62c-0.094-0.234,0.031-0.547-0.061-0.781c-0.551-1.397-2.43-2.203-1.254-4.086
			c0.086-0.141-0.154-0.645-0.34-0.68c-1.104-0.199-2.152,0.129-2.811,1.531c1.383,1.383,0.219,3.905,1.75,5.055
			c0.898,0.672,2.393,1.848,3.387,0.508C221.468,40.643,220.624,40.174,220.397,39.62z"/>
		<path fill="#CEE6C1" d="M300.862,98.802c-0.074,1.146-1.141,1.974-1.402,2.88c-1.594,5.469-5.586,9.022-10.332,11.469
			c-1.254,0.647-2.59-0.659-3.949-1.063c-0.727-2.25-3.223-0.396-4.828-0.805c0.551-1.508,0.738-3.523-1.207-4.43
			c-3.996,0.422-6.729,3.645-10.504,4.693c-0.727,0.199-1.77,0.035-2.32-0.711c-0.266-0.361,0.049-0.93,0.385-1.09
			c4.758-2.371,3.879-7.84,4.789-12.146c2.68-2.148,6.396-2.402,9.146-4.57c1.061-0.832,1.887-1.719,2.979-2.621
			c1.396-1.156,3.461,0.313,4.68-0.961c0.586-0.609,1.031-1.438,1.768-1.828c1.563-0.836,4.012-1.121,5.141,0.354
			c0.133,0.176,0.117,0.537,0.008,0.75c-0.555,1.029-1.836,1.818-1.781,2.826c0.06,0.971,1.211,2.143,2.141,1.807
			c2.225-0.797,0.646-4.117,2.221-5.691c0.561-0.559,1.814,0.004,1.828,1.082c0.012,1.604,0.451,3.273-0.346,4.828
			c0.828,0.773,1.191,1.836,1.527,2.844C301.042,97.15,300.913,97.999,300.862,98.802z"/>
		<path fill="#CEE6C1" d="M302.874,116.9c-1.48,1.397-2.492,3.298-4.445,3.935c-1.453,0.474-2.91,0.854-4.414,1.246
			c-0.5,0.133-1.25,0.379-1.555-0.345c-0.094-0.228-0.125-0.62,0.012-0.733c1.762-1.504,3.988-1.78,5.887-3.03
			c1.945-1.281,2.566-3.681,4.586-5c0.307-0.199,0.971-0.281,1.117,0.336C304.409,114.768,303.952,115.877,302.874,116.9z"/>
		<path fill="#CEE6C1" d="M304.085,86.667c-0.777,0.19-1.617,0.203-2.379-0.008c-1.434-0.398-2.285-1.773-3.66-2.306
			c-0.758-0.289-1.977,0.47-2.262-0.483c-0.246-0.84-0.457-1.699-1.012-2.306c-1.609-1.78-5.871-0.733-5.164-4.093
			c2.059-0.134,3.789,0.305,5.711,1.008c2.344,0.854,5.133-0.556,7.521,0.707c0.438,0.229,0.807,0.987,0.742,1.491
			c-0.236,2.044,1.432,3.324,1.242,5.238C304.796,86.213,304.405,86.581,304.085,86.667z"/>
	</g>
	<g>
		<path fill="none" stroke="#CEE6C1" stroke-width="1.8125" d="M181.522,77.377"/>
		<g>
			<path fill="none" stroke="#CEE6C1" stroke-width="1.8125" d="M32.163,77.784c0,42.133,66.781,76.284,149.156,76.284
				c82.379,0,149.164-34.151,149.164-76.284c0-42.133-66.785-76.289-149.164-76.289C98.944,1.495,32.163,35.651,32.163,77.784z"/>
			<path fill="none" stroke="#CEE6C1" stroke-width="1.8125" d="M181.319,77.784"/>
		</g>
		<path fill="none" stroke="#CEE6C1" stroke-width="1.8125" d="M75.897,77.881c0,42.449,47.152,76.859,105.32,76.859
			c58.164,0,105.32-34.41,105.32-76.859c0-42.444-47.156-76.854-105.32-76.854C123.05,1.026,75.897,35.436,75.897,77.881z"/>
		<path fill="none" stroke="#CEE6C1" stroke-width="1.8125" d="M181.218,77.881"/>
		<ellipse fill="none" stroke="#CEE6C1" stroke-width="1.8125" cx="181.722" cy="77.581" rx="72.871" ry="76.57"/>
		<path fill="none" stroke="#CEE6C1" stroke-width="1.8125" d="M181.722,77.581"/>
		<path fill="none" stroke="#CEE6C1" stroke-width="1.8125" d="M145.202,77.581c0,42.289,16.441,76.569,36.719,76.569
			c20.281,0,36.727-34.28,36.727-76.569S202.202,1.01,181.921,1.01C161.644,1.01,145.202,35.292,145.202,77.581z"/>
		<path fill="none" stroke="#CEE6C1" stroke-width="1.8125" d="M181.921,77.581"/>
		<line fill="none" stroke="#CEE6C1" stroke-width="1.8125" x1="181.722" y1="1.295" x2="181.722" y2="154.67"/>
		<line fill="none" stroke="#CEE6C1" stroke-width="1.8125" x1="330.468" y1="77.784" x2="32.171" y2="77.784"/>
		<line fill="none" stroke="#CEE6C1" stroke-width="1.8125" x1="318.093" y1="47.19" x2="44.749" y2="47.19"/>
		<line fill="none" stroke="#CEE6C1" stroke-width="1.8125" x1="317.688" y1="108.78" x2="44.952" y2="108.78"/>
		<line fill="none" stroke="#CEE6C1" stroke-width="1.8125" x1="280.046" y1="134.943" x2="82.694" y2="134.943"/>
		<line fill="none" stroke="#CEE6C1" stroke-width="1.8125" x1="280.757" y1="21.018" x2="82.089" y2="21.018"/>
	</g>
</g>
<g id="SO_text">
	<g>
		<g>
			<path fill="#006330" d="M21.041,59.01h1.615l0.554,11.951h-1.846c-1.338-5.122-4.661-10.196-10.567-10.196
				c-4.521,0-6.552,2.769-6.552,5.49c0,2.308,1.199,4.337,5.537,5.537l7.198,1.984c5.26,1.43,7.752,4.891,7.752,9.736
				c0,5.49-4.061,9.875-11.305,9.875c-3.784,0-7.106-1.34-9.644-3.555l-2.076,3.322H0.185L0,80.098l1.753-0.187
				c1.338,7.429,5.906,11.396,11.674,11.396c4.614,0,7.614-2.445,7.614-6.736c0-2.676-1.246-4.475-4.43-5.307l-7.476-1.938
				c-5.398-1.385-8.582-3.876-8.582-9.044c0-6.184,4.152-9.598,10.105-9.598c3.322,0,5.999,0.969,8.49,3.229L21.041,59.01z"/>
		</g>
		<g>
			<path fill="#006330" d="M199.624,68.172h11.063v1.504h-1.84c-1.303,0-1.871,0.368-1.871,1.704v18.112
				c0,1.169,0.469,1.303,2.475,1.303c6.281,0,7.951-0.301,9.391-7.418h1.338l-0.637,8.922h-19.916v-1.504h1.838
				c1.305,0,1.871-0.367,1.871-1.704V71.38c0-1.336-0.566-1.704-1.871-1.704h-1.838L199.624,68.172L199.624,68.172z"/>
			<path fill="#006330" d="M232.938,68.172h9.422v1.504c-2.539,0.101-3.407,1.069-4.61,3.208l-5.313,9.49v6.351
				c0,1.771,0.103,2.07,2.006,2.07h1.871v1.504h-11.396v-1.504h1.871c1.905,0,2.006-0.301,2.006-2.07v-6.05l-6.851-10.859
				c-1.069-1.704-1.538-2.14-3.041-2.14h-0.803v-1.504h10.692v1.504h-2.104c-0.869,0-1.203,0.2-1.203,0.603
				c0,0.367,0.065,0.635,0.535,1.37l5.547,8.854l3.844-6.784c0.635-1.136,0.936-1.805,0.936-2.64c0-1.069-0.802-1.403-3.408-1.403
				V68.172L232.938,68.172z"/>
			<path fill="#006330" d="M264.076,68.172h8.487v1.504h-1.904c-1.305,0-1.872,0.368-1.872,1.704v17.711
				c0,1.337,0.567,1.704,1.872,1.704h1.904v1.504h-11.129v-1.504h1.838c1.305,0,1.873-0.367,1.873-1.704V69.843h-0.067
				l-7.652,22.456h-1.003l-7.953-22.456h-0.066v16.24c0,3.074,0.336,4.612,3.878,4.712v1.504h-9.323v-1.504
				c2.977-0.268,3.775-0.835,3.775-5.514V71.38c0-1.336-0.567-1.704-1.871-1.704h-1.904v-1.504h8.557l6.383,18.112h0.065
				L264.076,68.172z"/>
			<path fill="#006330" d="M274.494,68.172h12.063c5.682,0,8.688,2.506,8.688,6.65c0,2.473-1.337,4.443-2.84,5.38
				c-1.838,1.136-4.045,1.37-6.885,1.37c-1.236,0-2.438-0.066-3.678-0.066v7.585c0,1.337,0.568,1.704,1.872,1.704h2.007v1.504
				h-11.229v-1.504h1.838c1.304,0,1.872-0.367,1.872-1.704V71.38c0-1.336-0.568-1.704-1.872-1.704h-1.838v-1.504H274.494z
				 M281.847,80.002c1.068,0.033,2.438,0.066,4.178,0.066c1.336,0,2.641-0.234,3.309-0.735c1.402-1.036,1.904-2.939,1.904-4.544
				c0-1.805-0.602-4.109-2.34-4.678c-1.137-0.368-1.805-0.436-3.375-0.436c-3.574,0-3.676,0.2-3.676,2.206V80.002L281.847,80.002z"
				/>
			<path fill="#006330" d="M297.079,90.795h1.838c1.305,0,1.872-0.367,1.872-1.704V71.38c0-1.336-0.567-1.704-1.872-1.704h-1.838
				v-1.504h11.062v1.504h-1.838c-1.304,0-1.872,0.368-1.872,1.704v17.711c0,1.337,0.568,1.704,1.872,1.704h1.838v1.504h-11.062
				V90.795z"/>
			<path fill="#006330" d="M309.139,90.795c1.807-0.031,2.843-0.969,3.478-2.605l8.087-20.519h1.337l8.821,21.688
				c0.502,1.234,1.104,1.437,2.939,1.437V92.3h-10.226v-1.504h0.835c2.005,0,2.604-0.301,2.604-0.869
				c0-0.301-0.134-0.769-0.468-1.637l-1.568-3.942h-9.022l-0.902,2.641c-0.334,0.936-0.501,1.537-0.501,1.904
				c0,1.569,1.403,1.871,3.408,1.903V92.3h-8.822V90.795z M324.344,82.675l-3.941-9.758l-3.812,9.758H324.344z"/>
			<path fill="#006330" d="M334.496,68.172h11.128c4.778,0,7.619,1.104,9.391,3.176c1.974,2.339,3.007,5.347,3.007,9.188
				c0,3.241-1.136,6.717-3.206,8.755c-2.341,2.307-4.778,3.008-9.457,3.008h-10.86v-1.504h1.838c1.304,0,1.872-0.367,1.872-1.704
				V71.38c0-1.336-0.568-1.704-1.872-1.704h-1.838L334.496,68.172L334.496,68.172z M341.848,89.493c0,1.169,0.471,1.303,2.476,1.303
				c4.578,0,6.182-0.532,7.483-2.237c1.537-2.007,1.938-4.611,1.938-8.32c0-8.221-2.506-10.562-8.989-10.562
				c-2.64,0-2.907,0.334-2.907,1.505L341.848,89.493L341.848,89.493z"/>
		</g>
		<g>
			<path fill="#006330" d="M45.058,67.905h1.17l0.468,9.691h-1.337c-1.103-4.445-3.308-8.422-7.585-8.422
				c-5.013,0-7.118,4.88-7.118,11.128c0,2.438,0.167,5.079,1.27,7.317c1.136,2.306,3.409,3.676,5.948,3.676
				c4.846,0,7.118-3.24,7.786-7.484l1.537,0.269c-0.769,5.414-4.01,8.722-9.758,8.722c-3.107,0-6.048-1.402-8.12-3.676
				c-2.038-2.236-2.94-5.277-2.94-8.287c0-8.288,5.915-13.166,11.495-13.166c1.905,0,4.177,0.735,5.748,2.307L45.058,67.905z"/>
			<path fill="#006330" d="M50.265,90.795h1.838c1.303,0,1.871-0.367,1.871-1.704V71.38c0-1.336-0.568-1.704-1.871-1.704h-1.838
				v-1.504h11.061v1.504h-1.838c-1.303,0-1.871,0.368-1.871,1.704v17.711c0,1.337,0.568,1.704,1.871,1.704h1.838v1.504H50.265
				V90.795z"/>
			<path fill="#006330" d="M63.562,68.172h20.184l0.468,8.622h-1.336c-1.237-6.816-2.907-7.118-9.491-7.118
				c-2.005,0-2.473,0.135-2.473,1.304v7.985h1.203c2.907,0,4.244-1.27,4.444-4.576h1.504v10.96h-1.504
				c0-2.976-1.203-4.881-3.81-4.881h-1.838v9.023c0,1.169,0.468,1.303,2.473,1.303c7.786,0,8.254-0.701,10.025-7.418h1.336
				l-0.635,8.922h-20.55v-1.504H65.4c1.303,0,1.871-0.367,1.871-1.704V71.38c0-1.336-0.568-1.704-1.871-1.704h-1.838V68.172z"/>
			<path fill="#006330" d="M103.723,68.172h9.423v1.504c-1.637,0.135-2.807,0.436-3.241,1.336c-0.435,0.902-0.635,2.039-0.635,3.812
				V92.8h-1.336L93.129,72.316h-0.067v14.502c0,2.707,0.334,3.844,3.91,3.978V92.3h-9.457v-1.504
				c2.974-0.101,3.876-1.235,3.876-3.942V70.779c-0.735-0.969-1.57-1.104-3.375-1.104h-0.501v-1.504h6.884l13.133,18.013h0.066
				V74.388c0-3.075-0.334-4.612-3.876-4.713L103.723,68.172L103.723,68.172z"/>
			<path fill="#006330" d="M134.125,67.905h1.17l0.468,9.691h-1.337c-1.103-4.445-3.308-8.422-7.585-8.422
				c-5.013,0-7.118,4.88-7.118,11.128c0,2.438,0.167,5.079,1.27,7.317c1.136,2.306,3.409,3.676,5.948,3.676
				c4.846,0,7.118-3.24,7.786-7.484l1.537,0.269c-0.769,5.414-4.01,8.722-9.757,8.722c-3.108,0-6.049-1.402-8.121-3.676
				c-2.039-2.236-2.94-5.277-2.94-8.287c0-8.288,5.915-13.166,11.495-13.166c1.905,0,4.177,0.735,5.748,2.307L134.125,67.905z"/>
			<path fill="#006330" d="M139.032,68.172h20.184l0.468,8.622h-1.336c-1.237-6.816-2.907-7.118-9.491-7.118
				c-2.005,0-2.473,0.135-2.473,1.304v7.985h1.203c2.907,0,4.244-1.27,4.444-4.576h1.504v10.96h-1.504
				c0-2.976-1.203-4.881-3.81-4.881h-1.838v9.023c0,1.169,0.468,1.303,2.473,1.303c7.786,0,8.254-0.701,10.025-7.418h1.336
				l-0.635,8.922h-20.551v-1.504h1.838c1.303,0,1.871-0.367,1.871-1.704V71.38c0-1.336-0.568-1.704-1.871-1.704h-1.838
				L139.032,68.172L139.032,68.172z"/>
		</g>
		<g>
			<path fill="#006330" d="M181.256,93.385c-9.598,0-15.919-8.443-15.919-17.35c0-6.875,5.122-17.35,15.827-17.35
				c9.599,0,15.919,8.443,15.919,17.35C197.083,82.912,191.962,93.385,181.256,93.385z M181.164,60.763
				c-8.352,0-9.921,8.583-9.921,15.272c0,4.66,0.508,15.271,10.013,15.271c8.353,0,9.92-8.582,9.92-15.271
				C191.177,71.376,190.669,60.763,181.164,60.763z"/>
		</g>
	</g>
</g>
<g id="SO_x5F_Logo_x5F_Plain_x5F_b-w_x5F_TM.ai">
</g>
<g id="text">
	<g>
		<path fill="#006330" d="M290.644,136.758h5.58l0.051,1.678h-0.235c-0.115-0.525-0.265-0.869-0.44-1.027
			c-0.179-0.158-0.555-0.238-1.125-0.238h-0.548v5.042c0,0.381,0.062,0.616,0.181,0.707c0.117,0.091,0.377,0.151,0.777,0.181v0.188
			h-2.879V143.1c0.42-0.031,0.682-0.101,0.783-0.205c0.104-0.105,0.154-0.371,0.154-0.795v-4.93h-0.553
			c-0.547,0-0.918,0.079-1.115,0.237c-0.196,0.155-0.346,0.5-0.444,1.028h-0.244L290.644,136.758z"/>
		<path fill="#006330" d="M296.592,143.098c0.406-0.041,0.669-0.137,0.783-0.275c0.115-0.143,0.173-0.475,0.173-0.993v-4
			c0-0.354-0.056-0.588-0.169-0.694c-0.112-0.105-0.369-0.171-0.769-0.188v-0.188h1.951l2.263,4.912l2.209-4.912h1.959v0.188
			c-0.366,0.025-0.603,0.091-0.708,0.197c-0.105,0.107-0.158,0.338-0.158,0.687v4.38c0,0.357,0.053,0.589,0.158,0.689
			c0.105,0.1,0.342,0.168,0.708,0.199v0.187h-2.761V143.1c0.396-0.031,0.646-0.104,0.744-0.215c0.1-0.109,0.146-0.375,0.146-0.792
			v-4.422l-2.523,5.613h-0.136l-2.479-5.384v3.929c0,0.539,0.078,0.889,0.236,1.052c0.102,0.105,0.332,0.18,0.688,0.219v0.187
			h-2.318L296.592,143.098L296.592,143.098z"/>
	</g>
</g>
</svg>
