<?xml version="1.0" encoding="utf-8"?>
<!-- Generator: Adobe Illustrator 16.0.0, SVG Export Plug-In . SVG Version: 6.00 Build 0)  -->
<!DOCTYPE svg PUBLIC "-//W3C//DTD SVG 1.1//EN" "http://www.w3.org/Graphics/SVG/1.1/DTD/svg11.dtd">
<svg version="1.1" id="Layer_1" xmlns="http://www.w3.org/2000/svg" xmlns:xlink="http://www.w3.org/1999/xlink" x="0px" y="0px"
	 width="609px" height="1024px" viewBox="0 0 609 1024" enable-background="new 0 0 609 1024" xml:space="preserve">
<polygon fill="#7398CF" points="609,592 609,544 551,544 551,496 500.83,496 502,499.616 502,447 451.075,447 454,449.843 454,399 
	401.313,399 396,400.089 396,351 351.548,351 348,350.324 348,303 301.783,303 300,300.56 300,254 252.02,254 251,250.797 251,206 
	202.256,206 203,201.042 203,148 152.501,148 155,151.184 155,100 102.728,100 107,101.429 107,51 48,51 48,3 0,3 0,872 48,872 
	48,834 107,834 107,786.721 102.728,785 155,785 155,736.957 152.323,737 203,737 203,689 251,689 251,785 300,785 300,882 348,882 
	348,882 348,882 348,979 406,979 406,1027 502,1027 502,979 551,979 551,882 502,882 502,785 454,785 454,689 406,689 406,592 "/>
</svg>
