<?xml version="1.0" encoding="utf-8"?>
<!-- Generator: Adobe Illustrator 16.0.0, SVG Export Plug-In . SVG Version: 6.00 Build 0)  -->
<!DOCTYPE svg PUBLIC "-//W3C//DTD SVG 1.1//EN" "http://www.w3.org/Graphics/SVG/1.1/DTD/svg11.dtd">
<svg version="1.1" id="Layer_1" xmlns="http://www.w3.org/2000/svg" xmlns:xlink="http://www.w3.org/1999/xlink" x="0px" y="0px"
	 width="256px" height="256px" viewBox="0 0 256 256" enable-background="new 0 0 256 256" xml:space="preserve">
<g>
	<g>
		<g>
			<g>
				<path fill="#DDDDDD" d="M149.574,146.381c-4.146,0-7.075,3.233-7.075,7.202c0,3.544,2.481,6.342,6.188,6.342
					c4.261,0,7.194-3.115,7.194-7.088C155.882,149.186,153.405,146.381,149.574,146.381z"/>
				<path fill="#DDDDDD" d="M198.952,109.015h-18.943l0.255-1.524c1.415-8.138,4.631-14.649,11.272-14.649
					c1.921,0,3.624,0.311,4.939,0.917l1.803-6.714c-1.213-0.714-3.421-1.323-6.742-1.323c-4.226,0-8.457,1.527-11.574,4.375
					c-4.331,3.969-6.75,10.28-7.943,17.089l-0.388,1.828l-5.66,0.037l-1.849,7.272l6.151-0.037l-7.708,43.638h8.363l7.646-43.638
					h12.001c-0.388,2.62-0.779,5.061-1.298,7.889l-6.65,35.802h8.16l4.628-25.616c1.905-10.489,9.561-18.63,15.599-18.63
					c6.137,0,7.25,4.281,7.25,8.444c0,1.938-0.208,3.772-0.608,6.003l-5.637,29.799h8.056l4.821-26.128
					c2.015-10.991,9.265-18.118,15.303-18.118c5.424,0,7.339,3.357,7.339,8.547c0,2.032-0.292,4.484-0.692,6.412l-5.444,29.287
					h8.146l5.647-29.999c0.509-2.746,0.807-6.106,0.807-8.34c0-9.257-6.245-12.923-11.873-12.923
					c-7.25,0.099-13.495,3.864-17.811,10.981c-0.416-6.201-3.926-10.981-11.379-10.981c-6.442,0-12.575,3.459-17.108,10.373h-0.198
					l1.251-9.771"/>
			</g>
		</g>
		<g>
			<g>
				<path fill="#DDDDDD" d="M74.843,129.345c-3.901-1.963-5.899-3.715-5.899-5.781c0-2.796,2.498-4.449,6.408-4.449
					c4.198,0,7.696,1.251,9.694,2.169l3.506-10.527c-2.404-1.345-6.905-2.583-12.608-2.583c-12.604,0-21.502,6.917-21.502,17.455
					c0,6.307,4.696,10.539,10.302,13.424c4.506,2.283,6.105,4.028,6.105,6.522c0,2.475-2.105,4.543-6.205,4.543
					c-4.705,0-9.906-2.068-12.701-3.516l-3.507,10.436c2.911,2.168,8.708,3.813,14.905,3.912c13.005,0.11,22.514-6.18,22.514-17.757
					C85.854,136.168,80.247,132.133,74.843,129.345z"/>
				<path fill="#DDDDDD" d="M142.499,109.015h-17.795l-13.143,15.785c-1.403,1.762-2.907,3.719-4.395,5.681h-0.209l8.939-45.71
					h-14.302l-14.333,75.154h14.295l2.997-16.213l5.403-5.374l9.149,21.587h16.116l-14.167-29.652L142.499,109.015z"/>
				<path fill="#DDDDDD" d="M50.794,110.726c-4.094-1.338-9.884-2.45-15.782-2.45C11.004,108.276,0,126.454,0,143.502
					c0,10.536,6,17.56,14.805,17.56c5.698,0,12.007-2.789,16.504-11.158h0.201c-0.201,3.624-0.671,7.021-0.775,10.021h13.376
					c-0.204-6.295,0.792-16.213,1.998-22.73L50.794,110.726z M32.807,131.621c-2.301,12.403-7.8,18.145-12.104,18.145
					c-4.001,0-5.694-4.088-5.694-9.048c0-9.399,6.426-21.422,15.725-21.422c1.495,0,3.176,0.446,4.277,0.646L32.807,131.621z"/>
			</g>
		</g>
	</g>
</g>
<g>
</g>
<g>
</g>
<g>
</g>
<g>
</g>
<g>
</g>
<g>
</g>
<g>
</g>
<g>
</g>
<g>
</g>
<g>
</g>
<g>
</g>
<g>
</g>
<g>
</g>
<g>
</g>
<g>
</g>
<g>
</g>
<g>
</g>
<g>
</g>
<g>
</g>
<g>
</g>
<g>
</g>
<g>
</g>
<g>
</g>
<g>
</g>
</svg>
