<?xml version="1.0" encoding="utf-8"?>
<!-- Generator: Adobe Illustrator 16.0.0, SVG Export Plug-In . SVG Version: 6.00 Build 0)  -->
<!DOCTYPE svg PUBLIC "-//W3C//DTD SVG 1.1//EN" "http://www.w3.org/Graphics/SVG/1.1/DTD/svg11.dtd">
<svg version="1.1" id="Layer_1" xmlns="http://www.w3.org/2000/svg" xmlns:xlink="http://www.w3.org/1999/xlink" x="0px" y="0px"
	 width="40.646px" height="68.4px" viewBox="0 0 40.646 68.4" enable-background="new 0 0 40.646 68.4" xml:space="preserve">
<g>
	<polygon fill="#729DD9" points="40.646,39.352 40.646,36.129 36.766,36.129 36.766,32.907 33.438,32.907 33.543,33.172 
		33.543,29.684 30.113,29.684 30.32,29.847 30.32,26.46 26.789,26.46 26.461,26.524 26.461,23.238 23.465,23.238 23.217,23.2 
		23.217,20.015 20.141,20.015 19.994,19.876 19.994,16.771 16.817,16.771 16.771,16.552 16.771,13.548 13.493,13.548 13.548,13.228 
		13.548,9.689 10.169,9.689 10.326,9.898 10.326,6.467 6.845,6.467 7.103,6.575 7.103,3.223 3.223,3.223 3.223,0 0,0 0,58.074 
		3.223,58.074 3.223,55.487 7.103,55.487 7.103,52.35 6.845,52.264 10.326,52.264 10.326,49.026 10.158,49.042 13.548,49.042 
		13.548,45.819 16.771,45.819 16.771,52.264 19.994,52.264 19.994,58.71 23.217,58.71 23.217,58.71 23.217,58.71 23.217,65.177 
		27.097,65.177 27.097,68.4 33.543,68.4 33.543,65.177 36.766,65.177 36.766,58.71 33.543,58.71 33.543,52.264 30.32,52.264 
		30.32,45.819 27.097,45.819 27.097,39.352 	"/>
</g>
</svg>
