<?xml version="1.0" encoding="utf-8"?>
<!-- Generator: Adobe Illustrator 16.0.0, SVG Export Plug-In . SVG Version: 6.00 Build 0)  -->
<!DOCTYPE svg PUBLIC "-//W3C//DTD SVG 1.1//EN" "http://www.w3.org/Graphics/SVG/1.1/DTD/svg11.dtd">
<svg version="1.1" id="Layer_1" xmlns="http://www.w3.org/2000/svg" xmlns:xlink="http://www.w3.org/1999/xlink" x="0px" y="0px"
	 width="68.4px" height="68.276px" viewBox="0 0 68.4 68.276" enable-background="new 0 0 68.4 68.276" xml:space="preserve">
<g>
	<g>
		<path fill="#FFFFFF" d="M35.096,68.338c-0.621,0-1.241,0-1.861,0c-0.034-0.025-0.064-0.061-0.103-0.071
			c-0.795-0.239-1.058-0.551-1.127-1.355c-0.016-0.183-0.005-0.367-0.016-0.551c-0.038-0.672-0.155-1.321-0.527-1.901
			c-0.177-0.274-0.404-0.416-0.747-0.476c-1.493-0.259-2.993-0.498-4.459-0.869c-0.704-0.178-1.154,0.015-1.577,0.486
			c-0.189,0.212-0.361,0.447-0.503,0.693c-0.229,0.396-0.412,0.82-0.642,1.216c-0.293,0.505-0.754,0.715-1.317,0.571
			c-0.476-0.122-0.946-0.285-1.396-0.482c-1.341-0.588-1.518-1.092-1.032-2.459c0.188-0.531,0.274-1.112,0.318-1.677
			c0.032-0.419-0.077-0.819-0.54-1.062c-1.438-0.751-2.771-1.67-4.04-2.679c-0.237-0.188-0.493-0.285-0.765-0.184
			c-0.445,0.17-0.9,0.341-1.299,0.594c-0.413,0.262-0.753,0.636-1.144,0.935c-0.451,0.345-0.946,0.368-1.403,0.031
			c-0.395-0.291-0.77-0.617-1.113-0.968c-1.038-1.061-1.031-1.615-0.017-2.684c0.463-0.489,0.842-1.032,1.011-1.696
			c0.088-0.348,0.038-0.644-0.189-0.964c-0.856-1.205-1.717-2.413-2.481-3.678c-0.339-0.562-0.704-0.871-1.348-0.839
			c-0.206,0.01-0.418,0.002-0.613,0.054c-0.564,0.148-1.116,0.343-1.682,0.481c-0.626,0.154-1.105-0.023-1.399-0.592
			c-0.315-0.608-0.587-1.246-0.796-1.897C2.07,45.629,2.286,45.178,2.9,44.8c0.194-0.12,0.408-0.208,0.615-0.306
			c0.662-0.313,1.273-0.686,1.676-1.327c0.148-0.237,0.171-0.466,0.11-0.749c-0.327-1.526-0.671-3.051-0.913-4.591
			c-0.094-0.603-0.366-0.925-0.871-1.147c-0.602-0.267-1.236-0.326-1.883-0.34c-0.963-0.02-1.448-0.373-1.568-1.169
			C0.062,35.146,0.023,35.126,0,35.104c0-0.644,0-1.287,0-1.931c0.024-0.034,0.06-0.064,0.072-0.103
			c0.238-0.794,0.55-1.059,1.354-1.127c0.183-0.017,0.368-0.006,0.551-0.017c0.672-0.037,1.321-0.154,1.901-0.526
			c0.275-0.177,0.416-0.405,0.476-0.747c0.259-1.492,0.498-2.993,0.869-4.458c0.178-0.703-0.013-1.154-0.486-1.577
			c-0.212-0.189-0.447-0.361-0.693-0.503c-0.396-0.229-0.819-0.412-1.216-0.642c-0.504-0.292-0.715-0.753-0.571-1.316
			c0.122-0.476,0.284-0.946,0.481-1.396c0.588-1.342,1.092-1.519,2.46-1.034c0.531,0.188,1.111,0.275,1.676,0.318
			c0.419,0.032,0.82-0.077,1.062-0.539c0.752-1.438,1.669-2.771,2.679-4.039c0.188-0.237,0.288-0.494,0.183-0.764
			c-0.175-0.455-0.357-0.917-0.615-1.326c-0.254-0.404-0.62-0.735-0.912-1.118c-0.344-0.451-0.37-0.946-0.033-1.403
			c0.299-0.403,0.631-0.789,0.992-1.138c1.042-1.012,1.6-1,2.66,0.006c0.489,0.464,1.032,0.843,1.696,1.012
			c0.348,0.088,0.644,0.039,0.963-0.188c1.206-0.856,2.414-1.717,3.678-2.481c0.561-0.339,0.871-0.705,0.841-1.348
			c-0.01-0.205-0.002-0.417-0.053-0.613c-0.149-0.563-0.343-1.116-0.482-1.682c-0.155-0.626,0.023-1.105,0.591-1.399
			c0.607-0.315,1.247-0.587,1.897-0.796c0.687-0.221,1.14-0.006,1.518,0.607c0.119,0.194,0.208,0.407,0.305,0.615
			c0.301,0.641,0.663,1.233,1.268,1.64c0.261,0.177,0.517,0.21,0.842,0.14c1.524-0.331,3.051-0.665,4.591-0.911
			c0.559-0.089,0.871-0.339,1.088-0.802c0.3-0.638,0.35-1.321,0.371-2.015C32.025,0.707,32.288,0.119,33.233,0
			c0.026-0.003,0.047-0.04,0.07-0.062c0.597,0,1.195,0,1.792,0c0.035,0.022,0.066,0.058,0.104,0.066
			c0.825,0.18,1.139,0.542,1.197,1.396c0.013,0.184,0.004,0.368,0.015,0.551c0.041,0.66,0.161,1.297,0.526,1.867
			c0.178,0.275,0.406,0.415,0.748,0.474c1.492,0.26,2.993,0.499,4.459,0.87c0.703,0.178,1.153-0.016,1.575-0.488
			c0.19-0.212,0.361-0.447,0.504-0.693c0.229-0.396,0.411-0.82,0.642-1.216c0.293-0.504,0.754-0.713,1.316-0.569
			c0.477,0.122,0.947,0.284,1.396,0.482c1.341,0.588,1.517,1.09,1.031,2.46c-0.188,0.531-0.273,1.112-0.317,1.676
			c-0.032,0.419,0.079,0.819,0.54,1.061c1.438,0.751,2.771,1.669,4.04,2.679c0.235,0.188,0.492,0.285,0.765,0.182
			c0.444-0.169,0.899-0.341,1.299-0.594c0.412-0.261,0.753-0.635,1.145-0.934c0.449-0.344,0.946-0.369,1.402-0.031
			c0.395,0.291,0.77,0.618,1.113,0.968c1.037,1.061,1.03,1.616,0.017,2.684c-0.465,0.489-0.842,1.032-1.012,1.697
			c-0.087,0.348-0.037,0.643,0.189,0.963c0.856,1.206,1.715,2.414,2.48,3.677c0.331,0.548,0.688,0.857,1.313,0.843
			c0.218-0.005,0.441-0.002,0.647-0.056c0.564-0.147,1.116-0.342,1.682-0.482c0.627-0.154,1.105,0.024,1.399,0.591
			c0.315,0.608,0.587,1.247,0.797,1.897c0.221,0.687,0.005,1.14-0.608,1.517c-0.194,0.12-0.408,0.208-0.614,0.306
			c-0.641,0.3-1.233,0.663-1.641,1.268c-0.177,0.261-0.21,0.518-0.14,0.841c0.331,1.525,0.665,3.051,0.911,4.591
			c0.089,0.558,0.34,0.871,0.801,1.087c0.64,0.3,1.322,0.351,2.016,0.371c0.797,0.023,1.385,0.285,1.505,1.231
			c0.002,0.026,0.04,0.047,0.062,0.07c0,0.62,0,1.241,0,1.861c-0.024,0.034-0.064,0.064-0.071,0.103
			c-0.147,0.763-0.571,1.074-1.458,1.133c-0.16,0.011-0.322,0.002-0.482,0.012c-0.66,0.041-1.298,0.16-1.867,0.526
			c-0.275,0.176-0.417,0.404-0.476,0.746c-0.259,1.492-0.498,2.993-0.869,4.459c-0.179,0.703,0.013,1.153,0.486,1.576
			c0.212,0.189,0.447,0.36,0.693,0.503c0.396,0.229,0.819,0.412,1.215,0.642c0.505,0.294,0.716,0.753,0.571,1.317
			c-0.122,0.475-0.284,0.945-0.48,1.396c-0.589,1.341-1.093,1.519-2.461,1.032c-0.53-0.188-1.111-0.274-1.675-0.317
			c-0.419-0.032-0.82,0.076-1.063,0.539c-0.747,1.428-1.653,2.754-2.66,4.011c-0.226,0.281-0.307,0.58-0.185,0.895
			c0.165,0.423,0.35,0.848,0.597,1.225c0.262,0.399,0.622,0.735,0.913,1.117c0.344,0.45,0.37,0.946,0.033,1.402
			c-0.299,0.404-0.632,0.789-0.992,1.139c-1.042,1.011-1.601,0.998-2.66-0.007c-0.488-0.464-1.031-0.843-1.696-1.012
			c-0.348-0.088-0.644-0.039-0.963,0.188c-1.216,0.862-2.423,1.746-3.708,2.495c-0.67,0.39-0.844,0.869-0.812,1.54
			c0.008,0.136,0.016,0.277,0.052,0.408c0.157,0.561,0.346,1.114,0.485,1.68c0.155,0.627-0.023,1.105-0.591,1.399
			c-0.607,0.315-1.247,0.588-1.898,0.797c-0.686,0.221-1.139,0.006-1.517-0.607c-0.119-0.193-0.207-0.407-0.306-0.614
			c-0.312-0.662-0.686-1.273-1.326-1.676c-0.236-0.149-0.465-0.173-0.749-0.111c-1.525,0.326-3.05,0.672-4.59,0.913
			c-0.617,0.097-0.94,0.381-1.163,0.9c-0.265,0.616-0.308,1.263-0.329,1.921c-0.026,0.797-0.287,1.385-1.233,1.504
			C35.141,68.279,35.12,68.316,35.096,68.338z M9.99,33.896c-0.003,2.006,0.237,3.737,0.981,5.367c0.807,1.769,2.1,2.91,4.11,3.063
			c1.225,0.092,2.369-0.193,3.431-0.814c1.718-1.003,3.2-2.3,4.583-3.715c1.224-1.252,1.734-2.754,1.528-4.497
			c-0.13-1.103-0.508-2.118-1.072-3.066c-0.113-0.19-0.275-0.369-0.454-0.5c-1.699-1.249-3.404-2.49-5.113-3.725
			c-0.267-0.193-0.545-0.45-0.847-0.498c-0.731-0.116-1.486-0.22-2.218-0.16c-1.994,0.165-3.686,1.61-4.201,3.503
			C10.25,30.579,9.998,32.338,9.99,33.896z M29.72,25.322c0.194-0.015,0.39-0.021,0.583-0.046c1.781-0.231,3.157-1.176,4.324-2.477
			c0.133-0.148,0.249-0.333,0.311-0.521c0.723-2.198,1.436-4.4,2.147-6.603c0.042-0.127,0.085-0.277,0.058-0.4
			c-0.164-0.724-0.268-1.477-0.543-2.159c-0.706-1.738-2.66-3.015-4.379-2.946c-1.542,0.062-3.063,0.278-4.555,0.675
			c-2.032,0.541-3.93,1.354-5.513,2.783c-0.929,0.839-1.617,1.834-1.759,3.108c-0.207,1.848,0.486,3.38,1.801,4.637
			c1.365,1.305,2.982,2.248,4.64,3.127C27.741,24.98,28.68,25.318,29.72,25.322z M30.805,57.858c0.138,0,0.275,0.006,0.412-0.001
			c1.312-0.056,2.57-0.313,3.581-1.211c1.498-1.329,1.937-3.055,1.638-4.971c-0.303-1.937-1.104-3.707-1.958-5.455
			c-0.526-1.077-1.215-2.001-2.278-2.599c-1.67-0.939-3.437-0.945-5.243-0.517c-0.106,0.025-0.206,0.098-0.297,0.165
			c-1.877,1.361-3.754,2.726-5.629,4.093c-0.1,0.072-0.205,0.156-0.269,0.258c-0.668,1.079-1.088,2.237-0.964,3.523
			c0.144,1.487,0.756,2.763,2.03,3.589c0.998,0.647,2.055,1.221,3.134,1.723C26.808,57.313,28.749,57.847,30.805,57.858z
			 M49.131,31.176L49.131,31.176c1.158,0.001,2.317,0.004,3.477-0.003c0.155-0.001,0.332-0.011,0.465-0.081
			c0.515-0.274,1.047-0.532,1.518-0.873c2.006-1.454,2.422-4.138,1.631-5.78c-0.548-1.135-1.059-2.294-1.694-3.38
			c-1.084-1.853-2.469-3.457-4.326-4.592c-1.475-0.9-3.032-1.269-4.689-0.546c-1.498,0.653-2.484,1.81-3.096,3.308
			c-0.723,1.775-1.147,3.628-1.409,5.52c-0.202,1.455,0.136,2.784,1.023,3.959c0.803,1.061,1.857,1.8,3.067,2.322
			c0.203,0.088,0.439,0.136,0.661,0.139C46.883,31.183,48.006,31.176,49.131,31.176z M48.977,37.293
			c-0.667,0.064-1.867,0.166-3.063,0.306c-1.121,0.13-2.177,0.456-3.071,1.187c-1.309,1.067-1.944,2.501-2.226,4.117
			c-0.069,0.398-0.151,0.849-0.037,1.217c0.688,2.233,1.43,4.449,2.158,6.67c0.038,0.118,0.089,0.241,0.167,0.333
			c0.527,0.614,1.132,1.134,1.845,1.53c1.817,1.011,4.203,0.626,5.427-0.515c0.905-0.845,1.833-1.676,2.658-2.597
			c1.465-1.633,2.587-3.477,3.124-5.636c0.68-2.737-0.411-4.979-2.994-6.093C51.862,37.337,50.688,37.313,48.977,37.293z
			 M34.198,37.231c1.713,0.002,3.091-1.372,3.096-3.083c0.004-1.714-1.365-3.097-3.075-3.104c-1.73-0.007-3.115,1.372-3.113,3.101
			C31.109,35.856,32.485,37.229,34.198,37.231z"/>
	</g>
</g>
<g>
</g>
<g>
</g>
<g>
</g>
<g>
</g>
<g>
</g>
<g>
</g>
<g>
</g>
<g>
</g>
<g>
</g>
<g>
</g>
<g>
</g>
<g>
</g>
<g>
</g>
<g>
</g>
<g>
</g>
</svg>
