<?xml version="1.0" encoding="utf-8"?>
<!-- Generator: Adobe Illustrator 16.0.0, SVG Export Plug-In . SVG Version: 6.00 Build 0)  -->
<!DOCTYPE svg PUBLIC "-//W3C//DTD SVG 1.1//EN" "http://www.w3.org/Graphics/SVG/1.1/DTD/svg11.dtd">
<svg version="1.1" id="Layer_1" xmlns="http://www.w3.org/2000/svg" xmlns:xlink="http://www.w3.org/1999/xlink" x="0px" y="0px"
	 width="60.727px" height="68.369px" viewBox="0 0 60.727 68.369" enable-background="new 0 0 60.727 68.369" xml:space="preserve">
<g>
	<g>
		<path fill="#34CD34" d="M21.494,50.601c-1.974,0.657-3.87,1.289-5.785,1.926c-0.385,1.691-1.316,2.934-3.094,3.262
			C10.87,56.11,9.478,55.45,8.47,53.89c-0.985,0-1.999,0.06-3.004-0.014c-1.638-0.122-3.266-0.409-4.406-1.732
			c-0.873-1.014-1.305-2.154-0.919-3.596c0.925-3.46,3.03-6.17,5.409-8.68c1.765-1.86,3.727-3.532,5.601-5.288
			c0.13-0.122,0.262-0.244,0.444-0.412c-0.98-0.878-1.945-1.71-2.875-2.578c-2.745-2.562-5.329-5.268-7.088-8.629
			c-0.492-0.944-0.855-1.99-1.086-3.031c-0.47-2.137,0.507-3.841,2.537-4.636c1.854-0.727,3.793-0.722,5.732-0.562
			c4.229,0.349,8.247,1.576,12.215,2.999c0.126,0.045,0.253,0.087,0.368,0.126c0.746-3.014,1.487-6.009,2.24-9.056
			c-1.493-1.747-1.818-3.325-0.958-4.886c0.878-1.595,2.332-2.183,4.638-1.847c0.81-0.88,1.735-1.676,2.967-1.95
			c0.438-0.098,0.938-0.104,1.368,0.008c1.901,0.491,3.072,1.885,4.063,3.457c1.814,2.876,2.843,6.067,3.654,9.334
			c0.395,1.584,0.72,3.186,1.089,4.846c0.79-0.257,1.57-0.521,2.358-0.765c3.884-1.202,7.808-2.175,11.92-1.958
			c1.522,0.081,3.01,0.369,4.217,1.4c1.341,1.147,1.521,2.637,1.132,4.254c-0.539,2.246-1.79,4.118-3.173,5.907
			c-2.037,2.632-4.408,4.939-6.938,7.091c-0.151,0.13-0.293,0.276-0.486,0.458c1.142,1.014,2.262,2.008,3.381,3.001
			c1.823-0.733,3.505-0.612,4.813,0.928c1.243,1.462,1.208,3.085,0.23,4.704c0.492,0.813,1.066,1.582,1.442,2.438
			c0.526,1.188,0.97,2.418,1.323,3.668c0.235,0.826-0.48,2.807-1.831,3.609c-1.796,1.064-3.766,1.143-5.758,1.063
			c-4.182-0.164-8.146-1.332-12.07-2.674c-0.171-0.057-0.341-0.113-0.579-0.193c-0.229,1.115-0.431,2.209-0.678,3.291
			c-0.782,3.432-1.718,6.82-3.459,9.91c-0.624,1.104-1.4,2.164-2.278,3.08c-1.88,1.963-4.182,1.937-6.132,0.041
			c-1.62-1.574-2.612-3.549-3.458-5.601c-1.336-3.237-2.148-6.624-2.787-10.056C21.606,51.119,21.552,50.878,21.494,50.601z
			 M21.055,20.533c-4.713-1.954-9.398-3.81-14.46-4.361c-1.224-0.133-2.522,0.023-3.732,0.292c-1.243,0.276-1.848,1.403-1.469,2.62
			c0.323,1.036,0.771,2.082,1.389,2.968c2.922,4.198,6.906,7.307,10.884,10.424c2.256-1.586,4.479-3.148,6.688-4.7
			C20.586,25.378,20.817,22.991,21.055,20.533z M23.988,49.608c0.106,0.789,0.2,1.548,0.312,2.3
			c0.536,3.604,1.215,7.18,2.485,10.608c0.579,1.563,1.219,3.111,2.45,4.303c1.181,1.146,2.429,1.164,3.522-0.068
			c0.662-0.747,1.224-1.624,1.661-2.523c1.311-2.688,2.01-5.576,2.563-8.5c0.375-1.975,0.674-3.965,1.002-5.916
			c-2.527-1.143-4.939-2.235-7.317-3.313C28.449,47.53,26.252,48.556,23.988,49.608z M15.289,50.216
			c1.928-0.763,3.843-1.52,5.76-2.277c-0.24-2.515-0.473-4.941-0.701-7.336c-2.221-1.576-4.421-3.137-6.619-4.697
			c-0.072,0.029-0.144,0.043-0.194,0.082c-3.496,2.635-6.871,5.406-9.729,8.744c-1.145,1.336-2.225,2.732-2.701,4.474
			c-0.379,1.381,0.073,2.43,1.272,2.888c1.842,0.703,3.705,0.393,5.572,0.1c0.195-1.942,1.031-3.353,2.938-3.84
			C12.739,47.876,14.187,48.576,15.289,50.216z M47.401,32.451c0.077-0.044,0.179-0.089,0.264-0.155
			c3.243-2.488,6.357-5.121,9.009-8.251c1.037-1.223,1.997-2.512,2.5-4.061c0.588-1.793-0.136-3.021-1.982-3.391
			c-1.594-0.319-3.185-0.154-4.76,0.13c-4.007,0.721-7.805,2.102-11.552,3.636c0.252,2.673,0.501,5.307,0.75,7.94
			C43.537,29.67,45.456,31.05,47.401,32.451z M30.673,21.918c2.434-1.089,4.829-2.163,7.259-3.25
			c-0.467-3.595-1.056-7.157-2.097-10.631c-0.563-1.882-1.196-3.738-2.31-5.379c-1.629-2.401-3.356-2.427-5.047-0.095
			c-0.022,0.031-0.019,0.08-0.029,0.142c1.285,1.21,1.833,2.667,1.184,4.383c-0.67,1.773-2.076,2.514-4.072,2.497
			c-0.553,3.088-1.103,6.17-1.646,9.214C26.264,19.885,28.466,20.9,30.673,21.918z M56.54,43.987
			c-1.685,0.654-3.169,0.537-4.42-0.685c-1.257-1.224-1.521-2.7-0.843-4.407c-1.276-1.018-2.555-2.037-3.828-3.054
			c-2,1.45-3.945,2.862-5.811,4.218c-0.255,2.713-0.5,5.351-0.747,7.992c0.025,0.021,0.055,0.061,0.092,0.076
			c3.718,1.561,7.501,2.932,11.472,3.689c1.765,0.336,3.557,0.613,5.35,0.135c1.562-0.417,2.201-1.514,1.774-3.074
			C59.056,46.952,57.786,45.487,56.54,43.987z M38.793,29.865c-2.694-1.563-5.396-3.132-8.124-4.713
			c-2.528,1.443-4.989,2.848-7.49,4.276c0,3.195,0,6.341,0,9.54c2.515,1.438,4.991,2.852,7.49,4.279
			c2.76-1.609,5.457-3.186,8.124-4.74C38.793,35.572,38.793,32.76,38.793,29.865z M20.202,31.322
			c-1.427,0.967-2.781,1.884-4.22,2.858c1.444,0.982,2.785,1.895,4.22,2.871C20.202,35.097,20.202,33.289,20.202,31.322z
			 M38.642,41.963c-1.688,0.992-3.234,1.899-4.892,2.873c1.577,0.747,3.009,1.423,4.518,2.136
			C38.396,45.271,38.514,43.687,38.642,41.963z M33.777,23.579c1.687,0.981,3.221,1.874,4.859,2.827
			c-0.132-1.695-0.254-3.267-0.383-4.942C36.725,22.187,35.312,22.854,33.777,23.579z M23.324,42.42
			c0.116,1.486,0.223,2.849,0.339,4.328c1.351-0.662,2.58-1.263,3.92-1.92C26.121,44.001,24.786,43.245,23.324,42.42z
			 M23.667,21.684c-0.113,1.473-0.218,2.806-0.334,4.29c1.461-0.826,2.796-1.581,4.242-2.397
			C26.249,22.934,25.025,22.342,23.667,21.684z M45.17,34.171c-1.203-0.826-2.291-1.575-3.437-2.362c0,1.662,0,3.153,0,4.749
			C42.894,35.752,43.975,35.002,45.17,34.171z"/>
		<path fill="#34CD34" d="M30.748,37.961c-2.087-0.003-3.819-1.742-3.822-3.837c-0.003-2.065,1.775-3.845,3.843-3.846
			c2.088-0.002,3.832,1.74,3.837,3.833C34.609,36.265,32.906,37.963,30.748,37.961z"/>
	</g>
</g>
</svg>
