<?xml version="1.0" encoding="utf-8"?>
<!-- Generator: Adobe Illustrator 16.0.0, SVG Export Plug-In . SVG Version: 6.00 Build 0)  -->
<!DOCTYPE svg PUBLIC "-//W3C//DTD SVG 1.1//EN" "http://www.w3.org/Graphics/SVG/1.1/DTD/svg11.dtd">
<svg version="1.1" id="Layer_1" xmlns="http://www.w3.org/2000/svg" xmlns:xlink="http://www.w3.org/1999/xlink" x="0px" y="0px"
	 width="512px" height="496.88px" viewBox="0 7.56 512 496.88" enable-background="new 0 7.56 512 496.88" xml:space="preserve">
<path fill="#FFFFFF" d="M467.147,52.259C407.639-6.978,311.733-7.465,252.934,51.56c-39.633,39.471-52.246,95.737-38.264,146.436
	L0,412.66l0.332,73.64c0.066,13.306,4.949,17.854,18.131,18.141l89.311-0.017l0.01-52.327l52.322-0.013l0.01-51.614l50.25,0.007
	l-0.015-52.35h68.4l43.179-43.178c50.639,13.861,106.765,1.249,146.27-38.127C527.017,207.825,526.53,111.906,467.147,52.259z
	 M435.404,140.554c-15.641,15.336-41.116,15.178-56.892-0.359c-15.76-15.997-15.912-41.473-0.342-56.875
	c15.68-15.826,41.14-15.68,56.87,0.354C450.844,99.181,451.001,124.664,435.404,140.554z"/>
</svg>
