<?xml version="1.0" encoding="utf-8"?>
<!-- Generator: Adobe Illustrator 16.0.0, SVG Export Plug-In . SVG Version: 6.00 Build 0)  -->
<!DOCTYPE svg PUBLIC "-//W3C//DTD SVG 1.1//EN" "http://www.w3.org/Graphics/SVG/1.1/DTD/svg11.dtd">
<svg version="1.1"
	 id="svg3465" xmlns:dc="http://purl.org/dc/elements/1.1/" xmlns:svg="http://www.w3.org/2000/svg" xmlns:sodipodi="http://inkscape.sourceforge.net/DTD/sodipodi-0.dtd" xmlns:inkscape="http://www.inkscape.org/namespaces/inkscape" xmlns:cc="http://web.resource.org/cc/" xmlns:rdf="http://www.w3.org/1999/02/22-rdf-syntax-ns#" sodipodi:docbase="/home/luca/Desktop/black-and-white/scalable/emblems" sodipodi:docname="emblem-readonly.svg" inkscape:version="0.42" sodipodi:version="0.32"
	 xmlns="http://www.w3.org/2000/svg" xmlns:xlink="http://www.w3.org/1999/xlink" x="0px" y="0px" width="35px" height="40px"
	 viewBox="0 0 35 40" enable-background="new 0 0 35 40" xml:space="preserve">
<sodipodi:namedview  id="base" borderopacity="1.0" inkscape:cy="24.000000" inkscape:zoom="15.791667" pagecolor="#ffffff" inkscape:cx="24.000000" bordercolor="#666666" showgrid="true" inkscape:window-width="1280" inkscape:grid-points="true" inkscape:current-layer="layer1" inkscape:document-units="px" inkscape:window-y="25" inkscape:window-x="0" inkscape:pageopacity="0.0" inkscape:pageshadow="2" inkscape:window-height="948" inkscape:grid-bbox="true">
	</sodipodi:namedview>
<g id="layer1" inkscape:label="Layer 1" inkscape:groupmode="layer">
	<rect id="rect4928" display="none" fill="#FFFFFF" width="48" height="48"/>
	
		<path id="path4200" inkscape:r_cy="true" inkscape:r_cx="true" sodipodi:nodetypes="cccccccccccccsccsccccc" display="none" fill="#FFFFFF" stroke="#FFFFFF" stroke-width="8" stroke-miterlimit="10" d="
		M24,4c-7,0-12,4.174-12,11v6h-2c-2,0-3,1-3,3v17c0,0.98,1,3,3,3h29.384C41,43.99,42,41.98,42,41V24c0-2-1-3.009-3-3.009L37,21v-6
		c0-7-5-11-12-11H24z M24,9h1c7,0,7,6,7,8v4H17v-4C17,15,17,9,24,9z"/>
	<path id="path2086" inkscape:r_cy="true" inkscape:r_cx="true" sodipodi:nodetypes="cccccccccccccsccsccccc" fill="#FFFFFF" d="
		M17,0C10,0,5,4.174,5,11v6H3c-2,0-3,1-3,3v17c0,0.98,1,3,3,3h29.384C34,39.99,35,37.98,35,37V20c0-2-1-3.009-3-3.009L30,17v-6
		c0-7-5-11-12-11H17z M17,5h1c7,0,7,6,7,8v4H10v-4C10,11,10,5,17,5z"/>
</g>
</svg>
