<?xml version="1.0" encoding="utf-8"?>
<!-- Generator: Adobe Illustrator 16.0.0, SVG Export Plug-In . SVG Version: 6.00 Build 0)  -->
<!DOCTYPE svg PUBLIC "-//W3C//DTD SVG 1.1//EN" "http://www.w3.org/Graphics/SVG/1.1/DTD/svg11.dtd">
<svg version="1.1" id="Layer_1" xmlns="http://www.w3.org/2000/svg" xmlns:xlink="http://www.w3.org/1999/xlink" x="0px" y="0px"
	 width="216px" height="121.5px" viewBox="0 0 216 121.5" enable-background="new 0 0 216 121.5" xml:space="preserve">
<g>
	<path fill="#222222" d="M43.224,44.295V15.868c0-0.688,0.102-2.653,0.307-5.892h-0.112c-0.577,1.508-1.061,2.672-1.452,3.491
		L27.726,44.295h-0.894L12.536,13.634c-0.466-0.986-0.903-2.243-1.313-3.77h-0.14c0.13,1.788,0.195,3.565,0.195,5.333v29.097H8.515
		V4.252h2.569l14.939,32.252c0.093,0.187,0.195,0.438,0.307,0.754c0.112,0.317,0.232,0.633,0.363,0.95
		c0.186,0.484,0.381,1.024,0.586,1.62h0.168l0.307-0.894c0.018-0.074,0.335-0.958,0.949-2.653L43.419,4.252h2.458v40.043H43.224z"/>
	<path fill="#222222" d="M56.209,30.109c0,3.928,0.908,7,2.723,9.215c1.815,2.216,4.305,3.323,7.47,3.323
		c3.202,0,6.329-1.182,9.382-3.546v2.736c-2.96,2.104-6.265,3.156-9.913,3.156c-3.686,0-6.665-1.322-8.936-3.965
		c-2.271-2.643-3.407-6.376-3.407-11.198c0-4.17,1.187-7.684,3.561-10.541c2.374-2.857,5.459-4.287,9.257-4.287
		c3.555,0,6.283,1.248,8.182,3.742c1.899,2.495,2.848,5.902,2.848,10.22v1.145H56.209z M74.695,27.764
		c-0.112-3.295-0.903-5.854-2.374-7.679c-1.471-1.824-3.5-2.736-6.087-2.736c-2.681,0-4.901,0.898-6.66,2.695
		s-2.844,4.37-3.253,7.721H74.695z"/>
	<path fill="#222222" d="M85.083,30.109c0,3.928,0.908,7,2.723,9.215c1.815,2.216,4.305,3.323,7.47,3.323
		c3.202,0,6.329-1.182,9.382-3.546v2.736c-2.96,2.104-6.265,3.156-9.913,3.156c-3.686,0-6.665-1.322-8.936-3.965
		c-2.271-2.643-3.407-6.376-3.407-11.198c0-4.17,1.187-7.684,3.561-10.541c2.374-2.857,5.459-4.287,9.257-4.287
		c3.555,0,6.283,1.248,8.182,3.742c1.899,2.495,2.848,5.902,2.848,10.22v1.145H85.083z M103.568,27.764
		c-0.112-3.295-0.903-5.854-2.374-7.679c-1.471-1.824-3.5-2.736-6.087-2.736c-2.681,0-4.901,0.898-6.66,2.695
		s-2.844,4.37-3.253,7.721H103.568z"/>
	<path fill="#222222" d="M124.65,43.904c-1.34,0.633-2.596,0.95-3.77,0.95c-4.227,0-6.338-2.532-6.338-7.596V18.046h-5.139v-2.346
		h5.139V8.273c0.408-0.149,0.838-0.298,1.283-0.447c0.447-0.13,0.875-0.27,1.285-0.419v8.293h7.539v2.346h-7.539v18.876
		c0,1.974,0.313,3.402,0.936,4.287s1.68,1.326,3.17,1.326c1.061,0,2.205-0.344,3.434-1.033V43.904z"/>
	<path fill="#222222" d="M157.294,43.904c-1.34,0.633-2.597,0.95-3.77,0.95c-4.227,0-6.339-2.532-6.339-7.596V18.046h-5.138v-2.346
		h5.138V8.273c0.409-0.149,0.838-0.298,1.284-0.447c0.447-0.13,0.875-0.27,1.285-0.419v8.293h7.539v2.346h-7.539v18.876
		c0,1.974,0.312,3.402,0.936,4.287c0.623,0.884,1.68,1.326,3.169,1.326c1.062,0,2.206-0.344,3.435-1.033V43.904z"/>
	<path fill="#222222" d="M182.397,44.295V27.149c0-3.388-0.614-5.868-1.843-7.442c-1.229-1.573-3.146-2.359-5.753-2.359
		c-2.457,0-4.616,0.959-6.478,2.876c-1.862,1.918-2.793,4.664-2.793,8.238v15.833h-2.569V1.962h2.569v18.877h0.112
		c2.252-3.891,5.528-5.836,9.829-5.836c3.09,0,5.445,0.996,7.064,2.988c1.62,1.992,2.43,4.85,2.43,8.573v17.732H182.397z"/>
	<path fill="#222222" d="M194.183,30.109c0,3.928,0.907,7,2.722,9.215c1.815,2.216,4.305,3.323,7.47,3.323
		c3.202,0,6.33-1.182,9.383-3.546v2.736c-2.96,2.104-6.265,3.156-9.913,3.156c-3.686,0-6.664-1.322-8.936-3.965
		c-2.271-2.643-3.407-6.376-3.407-11.198c0-4.17,1.188-7.684,3.561-10.541c2.374-2.857,5.459-4.287,9.257-4.287
		c3.556,0,6.283,1.248,8.182,3.742c1.899,2.495,2.849,5.902,2.849,10.22v1.145H194.183z M212.668,27.764
		c-0.111-3.295-0.903-5.854-2.374-7.679c-1.471-1.824-3.5-2.736-6.087-2.736c-2.681,0-4.9,0.898-6.66,2.695
		c-1.759,1.796-2.844,4.37-3.253,7.721H212.668z"/>
	<path fill="#222222" d="M7.713,119.295V64.579H27.63c6.105,0,10.798,1.12,14.08,3.358c3.282,2.239,4.922,5.393,4.922,9.463
		c0,2.951-0.999,5.532-2.996,7.746c-1.997,2.213-4.547,3.752-7.65,4.617v0.153c3.892,0.483,7.001,1.921,9.329,4.312
		c2.327,2.391,3.491,5.304,3.491,8.738c0,5.011-1.793,8.986-5.38,11.923c-3.587,2.938-8.484,4.407-14.69,4.407H7.713z
		 M20.037,73.661v12.973h5.418c2.543,0,4.546-0.616,6.01-1.851c1.462-1.233,2.194-2.931,2.194-5.094
		c0-4.019-3.002-6.028-9.005-6.028H20.037z M20.037,95.791v14.423h6.677c2.849,0,5.081-0.661,6.696-1.984
		c1.615-1.322,2.423-3.128,2.423-5.418c0-2.188-0.795-3.904-2.385-5.151c-1.59-1.246-3.81-1.87-6.658-1.87H20.037z"/>
	<path fill="#222222" d="M75.249,120.249c-6.512,0-11.632-1.825-15.358-5.476c-3.727-3.649-5.59-8.604-5.59-14.862
		c0-6.461,1.933-11.517,5.8-15.167c3.866-3.65,9.094-5.475,15.682-5.475c6.486,0,11.574,1.825,15.262,5.475
		c3.688,3.65,5.533,8.477,5.533,14.48c0,6.486-1.902,11.613-5.704,15.376C87.07,118.366,81.862,120.249,75.249,120.249z
		 M75.554,88.503c-2.849,0-5.062,0.979-6.639,2.938c-1.578,1.959-2.366,4.731-2.366,8.318c0,7.504,3.027,11.255,9.081,11.255
		c5.774,0,8.662-3.854,8.662-11.561C84.292,92.153,81.378,88.503,75.554,88.503z"/>
	<path fill="#222222" d="M136.146,119.295h-11.41v-5.609h-0.152c-2.619,4.376-6.5,6.563-11.637,6.563
		c-3.791,0-6.773-1.074-8.948-3.225c-2.175-2.149-3.262-5.018-3.262-8.604c0-7.58,4.489-11.955,13.468-13.125l10.607-1.412
		c0-4.274-2.314-6.411-6.943-6.411c-4.654,0-9.082,1.387-13.278,4.159v-9.081c1.679-0.864,3.974-1.627,6.888-2.29
		c2.912-0.661,5.564-0.992,7.955-0.992c11.141,0,16.713,5.558,16.713,16.674V119.295z M124.813,103.422v-2.633l-7.096,0.916
		c-3.918,0.509-5.877,2.277-5.877,5.304c0,1.374,0.477,2.499,1.432,3.377c0.953,0.877,2.244,1.316,3.873,1.316
		c2.264,0,4.107-0.782,5.531-2.347C124.102,107.791,124.813,105.813,124.813,103.422z"/>
	<path fill="#222222" d="M171.172,91.098c-1.449-0.788-3.142-1.183-5.074-1.183c-2.62,0-4.668,0.96-6.144,2.88
		c-1.476,1.921-2.213,4.535-2.213,7.841v18.658h-12.057V80.223h12.057v7.25h0.152c1.908-5.291,5.342-7.936,10.303-7.936
		c1.271,0,2.264,0.152,2.976,0.458V91.098z"/>
	<path fill="#222222" d="M214.708,119.295h-12.057v-5.38h-0.153c-2.747,4.223-6.779,6.334-12.095,6.334
		c-4.884,0-8.814-1.724-11.79-5.17c-2.977-3.447-4.465-8.261-4.465-14.442c0-6.461,1.641-11.638,4.922-15.529
		c3.282-3.892,7.58-5.838,12.897-5.838c5.036,0,8.547,1.806,10.53,5.418h0.153V61.451h12.057V119.295z M202.88,100.293v-2.938
		c0-2.543-0.738-4.655-2.213-6.334c-1.476-1.679-3.396-2.519-5.762-2.519c-2.671,0-4.757,1.049-6.258,3.148
		s-2.251,4.979-2.251,8.643c0,3.434,0.726,6.08,2.175,7.936c1.45,1.857,3.459,2.785,6.029,2.785c2.441,0,4.432-0.979,5.971-2.938
		C202.11,106.119,202.88,103.524,202.88,100.293z"/>
</g>
<g>
</g>
<g>
</g>
<g>
</g>
<g>
</g>
<g>
</g>
<g>
</g>
<g>
</g>
<g>
</g>
<g>
</g>
<g>
</g>
<g>
</g>
<g>
</g>
<g>
</g>
<g>
</g>
<g>
</g>
</svg>
