<?xml version="1.0" encoding="utf-8"?>
<!-- Generator: Adobe Illustrator 16.0.0, SVG Export Plug-In . SVG Version: 6.00 Build 0)  -->
<!DOCTYPE svg PUBLIC "-//W3C//DTD SVG 1.1//EN" "http://www.w3.org/Graphics/SVG/1.1/DTD/svg11.dtd">
<svg version="1.1" id="Layer_1" xmlns="http://www.w3.org/2000/svg" xmlns:xlink="http://www.w3.org/1999/xlink" x="0px" y="0px"
	 width="216px" height="121.5px" viewBox="0 0 216 121.5" enable-background="new 0 0 216 121.5" xml:space="preserve">
<g>
	<path fill="#DDDDDD" d="M43.224,44.295V15.868c0-0.688,0.102-2.653,0.307-5.892h-0.112c-0.577,1.508-1.061,2.672-1.452,3.491
		L27.726,44.295h-0.894L12.536,13.634c-0.466-0.986-0.903-2.243-1.313-3.77h-0.14c0.13,1.788,0.195,3.565,0.195,5.333v29.097H8.515
		V4.252h2.569l14.939,32.252c0.093,0.187,0.195,0.438,0.307,0.754c0.112,0.317,0.232,0.633,0.363,0.95
		c0.186,0.484,0.381,1.024,0.586,1.62h0.168l0.307-0.894c0.018-0.074,0.335-0.958,0.949-2.653L43.419,4.252h2.458v40.043H43.224z"/>
	<path fill="#DDDDDD" d="M56.209,30.109c0,3.928,0.908,7,2.723,9.215c1.815,2.216,4.305,3.323,7.47,3.323
		c3.202,0,6.329-1.182,9.382-3.546v2.736c-2.96,2.104-6.265,3.156-9.913,3.156c-3.686,0-6.665-1.322-8.936-3.965
		c-2.271-2.643-3.407-6.376-3.407-11.198c0-4.17,1.187-7.684,3.561-10.541c2.374-2.857,5.459-4.287,9.257-4.287
		c3.555,0,6.283,1.248,8.182,3.742c1.899,2.495,2.848,5.902,2.848,10.22v1.145H56.209z M74.695,27.764
		c-0.112-3.295-0.903-5.854-2.374-7.679c-1.471-1.824-3.5-2.736-6.087-2.736c-2.681,0-4.901,0.898-6.66,2.695
		s-2.844,4.37-3.253,7.721H74.695z"/>
	<path fill="#DDDDDD" d="M85.083,30.109c0,3.928,0.908,7,2.723,9.215c1.815,2.216,4.305,3.323,7.47,3.323
		c3.202,0,6.329-1.182,9.382-3.546v2.736c-2.96,2.104-6.265,3.156-9.913,3.156c-3.686,0-6.665-1.322-8.936-3.965
		c-2.271-2.643-3.407-6.376-3.407-11.198c0-4.17,1.187-7.684,3.561-10.541c2.374-2.857,5.459-4.287,9.257-4.287
		c3.555,0,6.283,1.248,8.182,3.742c1.899,2.495,2.848,5.902,2.848,10.22v1.145H85.083z M103.568,27.764
		c-0.112-3.295-0.903-5.854-2.374-7.679c-1.471-1.824-3.5-2.736-6.087-2.736c-2.681,0-4.901,0.898-6.66,2.695
		s-2.844,4.37-3.253,7.721H103.568z"/>
	<path fill="#DDDDDD" d="M124.65,43.904c-1.34,0.633-2.596,0.95-3.77,0.95c-4.227,0-6.338-2.532-6.338-7.596V18.046h-5.139v-2.346
		h5.139V8.273c0.408-0.149,0.838-0.298,1.283-0.447c0.447-0.13,0.875-0.27,1.285-0.419v8.293h7.539v2.346h-7.539v18.876
		c0,1.974,0.313,3.402,0.936,4.287s1.68,1.326,3.17,1.326c1.061,0,2.205-0.344,3.434-1.033V43.904z"/>
	<path fill="#DDDDDD" d="M157.294,43.904c-1.34,0.633-2.597,0.95-3.77,0.95c-4.227,0-6.339-2.532-6.339-7.596V18.046h-5.138v-2.346
		h5.138V8.273c0.409-0.149,0.838-0.298,1.284-0.447c0.447-0.13,0.875-0.27,1.285-0.419v8.293h7.539v2.346h-7.539v18.876
		c0,1.974,0.312,3.402,0.936,4.287c0.623,0.884,1.68,1.326,3.169,1.326c1.062,0,2.206-0.344,3.435-1.033V43.904z"/>
	<path fill="#DDDDDD" d="M182.397,44.295V27.149c0-3.388-0.614-5.868-1.843-7.442c-1.229-1.573-3.146-2.359-5.753-2.359
		c-2.457,0-4.616,0.959-6.478,2.876c-1.862,1.918-2.793,4.664-2.793,8.238v15.833h-2.569V1.962h2.569v18.877h0.112
		c2.252-3.891,5.528-5.836,9.829-5.836c3.09,0,5.445,0.996,7.064,2.988c1.62,1.992,2.43,4.85,2.43,8.573v17.732H182.397z"/>
	<path fill="#DDDDDD" d="M194.183,30.109c0,3.928,0.907,7,2.722,9.215c1.815,2.216,4.305,3.323,7.47,3.323
		c3.202,0,6.33-1.182,9.383-3.546v2.736c-2.96,2.104-6.265,3.156-9.913,3.156c-3.686,0-6.664-1.322-8.936-3.965
		c-2.271-2.643-3.407-6.376-3.407-11.198c0-4.17,1.188-7.684,3.561-10.541c2.374-2.857,5.459-4.287,9.257-4.287
		c3.556,0,6.283,1.248,8.182,3.742c1.899,2.495,2.849,5.902,2.849,10.22v1.145H194.183z M212.668,27.764
		c-0.111-3.295-0.903-5.854-2.374-7.679c-1.471-1.824-3.5-2.736-6.087-2.736c-2.681,0-4.9,0.898-6.66,2.695
		c-1.759,1.796-2.844,4.37-3.253,7.721H212.668z"/>
	<path fill="#DDDDDD" d="M51.557,102.295h-8.411V79.672c0-2.443,0.105-5.142,0.316-8.095h-0.211c-0.439,2.32-0.835,3.991-1.187,5.01
		l-8.859,25.708h-6.961l-9.018-25.444c-0.247-0.686-0.642-2.443-1.187-5.273h-0.237c0.228,3.727,0.343,6.997,0.343,9.809v20.909
		H8.473V64.484h12.472l7.726,22.412c0.615,1.793,1.063,3.595,1.345,5.405h0.158c0.475-2.092,0.976-3.911,1.503-5.458l7.726-22.359
		h12.155V102.295z"/>
	<path fill="#DDDDDD" d="M83.593,91.168H65.979c0.281,3.92,2.751,5.88,7.409,5.88c2.97,0,5.581-0.703,7.831-2.109v6.012
		c-2.496,1.336-5.739,2.004-9.729,2.004c-4.36,0-7.743-1.208-10.151-3.625c-2.409-2.417-3.612-5.788-3.612-10.112
		c0-4.482,1.301-8.033,3.902-10.652c2.601-2.619,5.801-3.929,9.598-3.929c3.938,0,6.983,1.169,9.136,3.507
		c2.153,2.338,3.23,5.511,3.23,9.519V91.168z M75.867,86.053c0-3.867-1.565-5.801-4.693-5.801c-1.336,0-2.492,0.554-3.467,1.661
		s-1.569,2.488-1.78,4.14H75.867z"/>
	<path fill="#DDDDDD" d="M114.627,102.295h-8.306V87.292c0-4.183-1.494-6.275-4.482-6.275c-1.441,0-2.628,0.554-3.56,1.661
		c-0.932,1.107-1.397,2.514-1.397,4.219v15.398H88.55v-27h8.332v4.271h0.105c1.986-3.287,4.878-4.931,8.675-4.931
		c5.977,0,8.965,3.709,8.965,11.127V102.295z"/>
	<path fill="#DDDDDD" d="M137.54,101.979c-1.23,0.65-3.085,0.976-5.563,0.976c-5.871,0-8.807-3.049-8.807-9.149V81.438h-4.377
		v-6.144h4.377v-5.827l8.306-2.373v8.2h6.064v6.144h-6.064v10.916c0,2.813,1.116,4.219,3.349,4.219c0.879,0,1.784-0.254,2.716-0.765
		V101.979z"/>
	<path fill="#DDDDDD" d="M154.89,102.954c-4.5,0-8.038-1.261-10.613-3.784c-2.575-2.522-3.862-5.946-3.862-10.27
		c0-4.465,1.336-7.958,4.008-10.481c2.672-2.522,6.284-3.784,10.837-3.784c4.482,0,7.998,1.262,10.547,3.784
		c2.549,2.522,3.823,5.858,3.823,10.006c0,4.482-1.314,8.025-3.942,10.626C163.059,101.653,159.46,102.954,154.89,102.954z
		 M155.101,81.017c-1.969,0-3.498,0.677-4.588,2.03c-1.09,1.354-1.635,3.27-1.635,5.748c0,5.186,2.092,7.778,6.275,7.778
		c3.99,0,5.985-2.663,5.985-7.989C161.139,83.539,159.126,81.017,155.101,81.017z"/>
	<path fill="#DDDDDD" d="M192.647,82.81c-1.002-0.544-2.171-0.817-3.507-0.817c-1.811,0-3.226,0.664-4.245,1.991
		c-1.02,1.328-1.529,3.134-1.529,5.418v12.894h-8.332v-27h8.332v5.01h0.105c1.318-3.656,3.691-5.484,7.119-5.484
		c0.879,0,1.564,0.105,2.057,0.316V82.81z"/>
	<path fill="#DDDDDD" d="M195.073,101.583v-6.75c1.371,0.827,2.737,1.441,4.1,1.846c1.362,0.405,2.65,0.606,3.863,0.606
		c1.477,0,2.641-0.202,3.493-0.606c0.853-0.404,1.279-1.019,1.279-1.846c0-0.527-0.193-0.966-0.58-1.318
		c-0.387-0.352-0.884-0.659-1.49-0.923s-1.27-0.501-1.99-0.712s-1.415-0.448-2.083-0.712c-1.072-0.404-2.018-0.839-2.835-1.305
		c-0.817-0.465-1.503-1.006-2.057-1.622c-0.554-0.615-0.976-1.327-1.266-2.136c-0.29-0.808-0.435-1.767-0.435-2.874
		c0-1.512,0.329-2.812,0.988-3.902c0.659-1.09,1.538-1.981,2.637-2.676c1.099-0.694,2.355-1.204,3.771-1.529
		c1.415-0.325,2.888-0.488,4.417-0.488c1.195,0,2.408,0.092,3.639,0.277s2.443,0.453,3.639,0.804v6.434
		c-1.055-0.615-2.185-1.077-3.389-1.384c-1.204-0.307-2.386-0.461-3.546-0.461c-0.545,0-1.06,0.049-1.543,0.145
		c-0.483,0.097-0.909,0.237-1.278,0.422s-0.659,0.422-0.87,0.712s-0.316,0.62-0.316,0.989c0,0.492,0.158,0.914,0.475,1.266
		c0.316,0.352,0.729,0.655,1.239,0.91c0.51,0.255,1.076,0.484,1.7,0.686c0.624,0.202,1.244,0.409,1.859,0.62
		c1.107,0.387,2.109,0.809,3.006,1.266c0.896,0.458,1.665,0.993,2.307,1.608c0.642,0.616,1.134,1.336,1.477,2.162
		c0.343,0.827,0.515,1.811,0.515,2.953c0,1.6-0.348,2.966-1.042,4.1s-1.617,2.057-2.769,2.769s-2.479,1.23-3.981,1.556
		s-3.063,0.488-4.68,0.488C200.355,102.954,197.604,102.497,195.073,101.583z"/>
</g>
<g>
</g>
<g>
</g>
<g>
</g>
<g>
</g>
<g>
</g>
<g>
</g>
<g>
</g>
<g>
</g>
<g>
</g>
<g>
</g>
<g>
</g>
<g>
</g>
<g>
</g>
<g>
</g>
<g>
</g>
</svg>
