<?xml version="1.0" encoding="utf-8"?>
<!-- Generator: Adobe Illustrator 16.0.0, SVG Export Plug-In . SVG Version: 6.00 Build 0)  -->
<!DOCTYPE svg PUBLIC "-//W3C//DTD SVG 1.1//EN" "http://www.w3.org/Graphics/SVG/1.1/DTD/svg11.dtd">
<svg version="1.1" id="Layer_1" xmlns="http://www.w3.org/2000/svg" xmlns:xlink="http://www.w3.org/1999/xlink" x="0px" y="0px"
	 width="69.504px" height="68.398px" viewBox="0 0 69.504 68.398" enable-background="new 0 0 69.504 68.398" xml:space="preserve">
<g>
	<g>
		<path fill="#FFFFFF" d="M44.937,10.665c-5.634,0-11.294,0-17.03,0c-0.06,0.785-0.124,1.554-0.175,2.323
			c-0.298,4.508-0.562,9.019-0.895,13.525c-0.608,8.209-1.23,16.421-2.876,24.507c-0.59,2.896-1.207,5.79-1.955,8.647
			c-0.585,2.235-1.618,4.289-3.253,5.984c-2.018,2.095-5.202,2.787-7.646,1.663c-2.759-1.271-4.376-4.8-3.399-7.845
			c0.44-1.372,1.19-2.679,1.983-3.893c1.328-2.032,2.881-3.918,4.198-5.955c1.591-2.466,2.223-5.315,2.898-8.126
			c1.096-4.558,1.823-9.181,2.093-13.856c0.317-5.494,0.47-10.996,0.692-16.496c0.006-0.135-0.014-0.272-0.025-0.475
			c-1.647-0.381-3.301-0.419-4.962-0.13c-3.998,0.694-7,2.971-9.429,6.082c-0.884,1.132-1.619,2.381-2.471,3.65
			c-0.813,0-1.724,0-2.674,0c0-0.136-0.028-0.271,0.003-0.39C1.344,15.02,3.192,10.4,6.459,6.472
			c2.646-3.181,5.895-5.427,10.017-6.234c0.805-0.158,1.639-0.239,2.458-0.239c16.568-0.003,33.136,0.01,49.703,0.022
			c0.272,0,0.544,0,0.867,0c0,3.544,0,7.038,0,10.592c-5.559,0-11.102,0-16.757,0c-0.133,0.889-0.294,1.735-0.378,2.589
			c-0.693,6.98-1.493,13.954-2.011,20.949c-0.282,3.832-0.192,7.703-0.064,11.55c0.09,2.729,0.796,5.361,2.528,7.585
			c1.932,2.48,4.589,3.195,7.556,2.813c3.912-0.503,6.111-2.926,6.438-6.863c0.017-0.178,0.049-0.354,0.076-0.557
			c0.825,0,1.616,0,2.556,0c-0.252,1.705-0.436,3.362-0.751,4.993c-0.668,3.461-1.848,6.724-4.08,9.516
			c-2.578,3.227-5.944,5-10.068,5.198c-3.654,0.175-6.397-1.481-8.349-4.51c-1.772-2.75-2.635-5.833-3.234-9.005
			c-0.649-3.436-0.907-6.908-1-10.398c-0.192-7.241,0.343-14.44,1.246-21.616C43.72,18.813,44.35,14.784,44.937,10.665z"/>
	</g>
</g>
<g>
</g>
<g>
</g>
<g>
</g>
<g>
</g>
<g>
</g>
<g>
</g>
<g>
</g>
<g>
</g>
<g>
</g>
<g>
</g>
<g>
</g>
<g>
</g>
<g>
</g>
<g>
</g>
<g>
</g>
</svg>
