<?xml version="1.0" encoding="utf-8"?>
<!-- Generator: Adobe Illustrator 16.0.0, SVG Export Plug-In . SVG Version: 6.00 Build 0)  -->
<!DOCTYPE svg PUBLIC "-//W3C//DTD SVG 1.1//EN" "http://www.w3.org/Graphics/SVG/1.1/DTD/svg11.dtd">
<svg version="1.1" id="Layer_1" xmlns="http://www.w3.org/2000/svg" xmlns:xlink="http://www.w3.org/1999/xlink" x="0px" y="0px"
	 width="32px" height="32px" viewBox="0 0 32 32" enable-background="new 0 0 32 32" xml:space="preserve">
<g id="icomoon-ignore">
</g>
<path fill="#FFFFFF" d="M31,12H20V1c0-0.552-0.448-1-1-1h-6c-0.552,0-1,0.448-1,1v11H1c-0.552,0-1,0.448-1,1v6c0,0.552,0.448,1,1,1
	h11v11c0,0.552,0.448,1,1,1h6c0.552,0,1-0.448,1-1V20h11c0.552,0,1-0.448,1-1v-6C32,12.448,31.552,12,31,12z"/>
</svg>
