<?xml version="1.0" encoding="utf-8"?>
<!-- Generator: Adobe Illustrator 16.0.0, SVG Export Plug-In . SVG Version: 6.00 Build 0)  -->
<!DOCTYPE svg PUBLIC "-//W3C//DTD SVG 1.1//EN" "http://www.w3.org/Graphics/SVG/1.1/DTD/svg11.dtd">
<svg version="1.1" xmlns="http://www.w3.org/2000/svg" xmlns:xlink="http://www.w3.org/1999/xlink" x="0px" y="0px"
	 width="2521.608px" height="717.5px" viewBox="0 0 2521.608 717.5" enable-background="new 0 0 2521.608 717.5"
	 xml:space="preserve">
<g id="O">
</g>
<g id="A">
	<g>
		<path fill="#FFFFFF" d="M573.675,690.34c-32.9-47-65.79-93.99-98.69-140.979c-22.767-32.532-45.541-65.067-68.312-97.602
			c8.35-6.489,16.351-13.537,23.95-21.136c47.645-47.645,73.883-110.991,73.883-178.37s-26.239-130.725-73.883-178.37
			S319.632,0,252.253,0c-67.379,0-130.726,26.239-178.37,73.883C26.239,121.527,0,184.874,0,252.253s26.239,130.726,73.883,178.37
			c39.358,39.357,89.436,64.09,143.646,71.509c-0.925,10.563-1.85,21.126-2.774,31.688c-4.59,52.47-9.19,104.939-13.78,157.41
			c-0.76,8.72-1.53,17.449-2.29,26.18c0,0.03-0.01,0.06-0.01,0.09h25c0-0.03,0.013-0.06,0.013-0.09
			c2.68-30.66,5.372-61.311,8.053-91.97c3.535-40.381,7.073-80.762,10.61-121.143c3.292,0.126,6.59,0.208,9.902,0.208
			c48.151,0,94.239-13.408,134.013-38.444c36.007,51.437,72.013,102.872,108.019,154.318c22.66,32.37,45.32,64.74,67.98,97.12h30.42
			C586.345,708.45,580.015,699.39,573.675,690.34z M25,252.253C25,126.945,126.945,25,252.253,25
			c125.308,0,227.253,101.945,227.253,227.253c0,72.545-34.171,137.258-87.26,178.894c-9.777-13.969-19.553-27.936-29.331-41.906
			c-27.54-39.33-55.07-78.67-82.61-118.01c-5.52-7.891-11.04-15.771-16.56-23.66h0c-0.03-0.196-0.049-0.39-0.049-0.58v-0.01
			c0-0.171-0.36-0.434-0.46-0.593c-0.58-1.021-1.5-2.054-2.35-2.882c-2.42-2.342-5.75-4.006-8.99-4.006h-0.12
			c-0.19,0-0.37,0.416-0.55,0.426c-0.568,0.024-1.114-0.426-1.645,0.574c-0.002,0-0.003,0-0.005,0s-0.003-0.221-0.004-0.219
			c-0.092,0.023-0.184-0.061-0.275-0.041c-0.05,0-0.09-0.046-0.13-0.025c-0.09,0.02-0.18,0.013-0.27,0.032
			c-0.09,0.021-0.18,0.026-0.27,0.057c-0.23,0.06-0.46,0.123-0.69,0.203c-0.06,0.02-0.12,0.037-0.18,0.057
			c-0.22,0.08-0.44,0.169-0.66,0.259c-0.062,0.027-0.126,0.058-0.188,0.085c-0.079,0.035-0.157,0.07-0.235,0.107
			c-0.112,0.052-0.222,0.098-0.337,0.155c-0.17,0.09-0.34,0.18-0.51,0.28c-0.08,0.04-0.16,0.08-0.24,0.13
			c-3.75,2.2-6.29,6.74-6.29,11.18c0,0.17,0,0.351,0.02,0.521c-2.65,30.359-5.32,60.7-7.97,91.05
			c-3.876,44.283-7.753,88.56-11.63,132.837C109.768,461.333,25,366.514,25,252.253z M244.535,479.36
			c1.267-14.467,2.535-28.934,3.801-43.4c4.329-49.46,8.669-98.921,12.999-148.38c7.4,10.57,14.79,21.13,22.19,31.7
			c29.429,42.054,58.865,84.099,88.295,126.144c-34.756,21.591-75.727,34.082-119.567,34.082
			C249.669,479.506,247.099,479.446,244.535,479.36z"/>
	</g>
</g>
<g id="Science_1_">
	<polygon id="Science" fill="#34CD34" points="1095.396,38.5 662.967,38.5 537.335,470.5 969.764,470.5 	"/>
	<g>
		<path d="M886.72,169.358c0,0-48.301-5.6-68.601-5.6c-34.301,0-52.851,11.2-52.851,38.5c0,31.851,16.8,37.101,59.501,46.551
			c48.301,10.85,69.651,22.75,69.651,66.15c0,52.501-29.75,73.502-78.401,73.502c-26.601,0-74.551-7.351-74.551-7.351l2.8-24.5
			c0,0,46.551,5.95,71.401,5.95c34.301,0,51.451-12.95,51.451-46.551c0-27.301-14.351-35.001-53.901-42.701
			c-50.051-10.851-74.901-22.75-74.901-70.351c0-45.501,30.45-65.101,79.801-65.101c26.951,0,71.051,7,71.051,7L886.72,169.358z"/>
	</g>
</g>
<g id="Technology_1_">
	<polygon id="Technology" fill="#729DD9" points="1570.042,38.5 1137.614,38.5 1011.982,470.5 1444.41,470.5 	"/>
	<g>
		<path d="M1203.514,141.707h175.003v25.901h-73.851v217.704h-26.601V167.608h-74.552V141.707z"/>
	</g>
</g>
<g id="Engineering_1_">
	<polygon id="Engineering" fill="#F75111" points="2045.824,39.5 1613.397,39.5 1487.766,471.5 1920.192,471.5 	"/>
	<g>
		<path d="M1699.598,141.707H1846.6v25.551h-120.402v82.251h99.402v25.201h-99.402v85.051H1846.6v25.551h-147.002V141.707z"/>
	</g>
</g>
<g id="Math_1_">
	<polygon id="Math" fill="#F1B216" points="2521.608,38.5 2089.18,38.5 1963.549,470.5 2395.977,470.5 	"/>
	<g>
		<path d="M2137.055,141.707h42.21l63.315,204.754l63.631-204.754h41.896v243.604h-24.256V173.208h-4.41l-63.63,203.354h-26.775
			l-63.315-203.354h-4.41v212.104h-24.255V141.707z"/>
	</g>
</g>
<g id="Below_Text" display="none">
	<g display="inline">
		<path d="M571.25,488.276c0,0-10.081-1.224-14.257-1.224c-6.48,0-9.793,2.16-9.793,6.984c0,5.328,2.952,6.48,11.449,8.568
			c10.153,2.664,14.185,5.329,14.185,14.113c0,10.585-6.48,15.121-16.562,15.121c-5.4,0-15.193-1.656-15.193-1.656l0.72-6.336
			c0,0,9.289,1.224,14.401,1.224c6.48,0,9.649-2.231,9.649-8.137c0-4.752-2.521-6.265-10.297-8.064
			c-10.585-2.448-15.41-5.4-15.41-14.689c0-9.433,6.48-13.896,16.85-13.896c5.544,0,14.833,1.655,14.833,1.655L571.25,488.276z"/>
		<path d="M616.61,530.184c0,0-8.208,1.729-13.897,1.729c-15.049,0-18.434-8.929-18.434-25.706c0-17.498,3.96-25.851,18.434-25.851
			c6.409,0,13.897,1.801,13.897,1.801l-0.216,6.265c0,0-8.137-1.225-12.817-1.225c-9.937,0-12.025,5.473-12.025,19.01
			c0,13.177,1.8,18.865,12.169,18.865c4.248,0,12.673-1.224,12.673-1.224L616.61,530.184z"/>
		<path d="M630.431,481.147h6.984v49.973h-6.984V481.147z"/>
		<path d="M654.406,481.147h30.747v6.697h-23.834v14.977h19.514v6.553h-19.514v15.05h23.834v6.696h-30.747V481.147z"/>
		<path d="M700.053,481.147h11.809l17.857,41.476h1.44v-41.476h6.985v49.973h-11.521l-18.146-41.476h-1.44v41.476h-6.984V481.147z"
			/>
		<path d="M785.087,530.184c0,0-8.208,1.729-13.896,1.729c-15.05,0-18.434-8.929-18.434-25.706c0-17.498,3.96-25.851,18.434-25.851
			c6.408,0,13.896,1.801,13.896,1.801l-0.216,6.265c0,0-8.137-1.225-12.817-1.225c-9.937,0-12.024,5.473-12.024,19.01
			c0,13.177,1.8,18.865,12.169,18.865c4.248,0,12.673-1.224,12.673-1.224L785.087,530.184z"/>
		<path d="M799.125,481.147h30.747v6.697h-23.835v14.977h19.514v6.553h-19.514v15.05h23.835v6.696h-30.747V481.147z"/>
		<path d="M860.539,481.147h36.002v6.697H882.14v43.275h-7.057v-43.275h-14.545V481.147z"/>
		<path d="M907.338,481.147h30.748v6.697H914.25v14.977h19.514v6.553H914.25v15.05h23.836v6.696h-30.748V481.147z"/>
		<path d="M982.725,530.184c0,0-8.209,1.729-13.896,1.729c-15.051,0-18.434-8.929-18.434-25.706
			c0-17.498,3.959-25.851,18.434-25.851c6.408,0,13.896,1.801,13.896,1.801l-0.217,6.265c0,0-8.137-1.225-12.816-1.225
			c-9.938,0-12.025,5.473-12.025,19.01c0,13.177,1.801,18.865,12.17,18.865c4.248,0,12.672-1.224,12.672-1.224L982.725,530.184z"/>
		<path d="M1026.717,509.158h-22.971v21.962h-6.984v-49.973h6.984v21.314h22.971v-21.314h7.057v49.973h-7.057V509.158z"/>
		<path d="M1050.979,481.147h11.809l17.857,41.476h1.439v-41.476h6.984v49.973h-11.52l-18.146-41.476h-1.439v41.476h-6.984V481.147z
			"/>
		<path d="M1103.752,506.422c0-16.562,4.465-26.066,19.875-26.066c15.408,0,19.945,9.433,19.945,26.066
			c0,16.993-4.465,25.49-19.945,25.49C1108.217,531.912,1103.752,523.127,1103.752,506.422z M1136.299,506.422
			c0-12.385-2.375-19.298-12.672-19.298s-12.674,6.841-12.674,19.298c0,12.529,2.305,18.722,12.674,18.722
			C1134.066,525.144,1136.299,519.239,1136.299,506.422z"/>
		<path d="M1158.256,531.12v-49.973h6.984v43.276h20.594v6.696H1158.256z"/>
		<path d="M1197.279,506.422c0-16.562,4.465-26.066,19.873-26.066c15.41,0,19.945,9.433,19.945,26.066
			c0,16.993-4.463,25.49-19.945,25.49C1201.744,531.912,1197.279,523.127,1197.279,506.422z M1229.826,506.422
			c0-12.385-2.377-19.298-12.674-19.298s-12.672,6.841-12.672,19.298c0,12.529,2.303,18.722,12.672,18.722
			C1227.594,525.144,1229.826,519.239,1229.826,506.422z"/>
		<path d="M1271.297,505.342h13.896v24.842c0,0-10.225,1.729-16.346,1.729c-15.266,0-19.586-9.36-19.586-25.778
			c0-16.993,4.537-25.778,19.371-25.778c7.561,0,16.561,2.017,16.561,2.017l-0.287,6.12c0,0-8.785-1.296-15.338-1.296
			c-10.514,0-13.105,5.473-13.105,18.938c0,13.249,2.232,19.01,12.889,19.01c3.816,0,8.713-0.792,8.93-0.792v-12.745h-6.984V505.342
			z"/>
		<path d="M1318.24,531.12h-6.986v-21.386l-15.553-28.587h7.777l11.232,20.738l11.09-20.738h7.848l-15.408,28.587V531.12z"/>
		<path d="M1368.205,481.147h30.746v6.697h-23.834v14.977h19.514v6.553h-19.514v15.05h23.834v6.696h-30.746V481.147z"/>
		<path d="M1413.852,481.147h11.809l17.859,41.476h1.439v-41.476h6.984v49.973h-11.521l-18.145-41.476h-1.441v41.476h-6.984V481.147
			z"/>
		<path d="M1488.66,505.342h13.898v24.842c0,0-10.227,1.729-16.346,1.729c-15.266,0-19.586-9.36-19.586-25.778
			c0-16.993,4.537-25.778,19.369-25.778c7.561,0,16.563,2.017,16.563,2.017l-0.289,6.12c0,0-8.785-1.296-15.338-1.296
			c-10.512,0-13.104,5.473-13.104,18.938c0,13.249,2.23,19.01,12.889,19.01c3.816,0,8.713-0.792,8.928-0.792v-12.745h-6.984V505.342
			z"/>
		<path d="M1517.674,481.147h6.984v49.973h-6.984V481.147z"/>
		<path d="M1541.648,481.147h11.809l17.859,41.476h1.439v-41.476h6.984v49.973h-11.521l-18.145-41.476h-1.441v41.476h-6.984V481.147
			z"/>
		<path d="M1596.943,481.147h30.748v6.697h-23.836v14.977h19.514v6.553h-19.514v15.05h23.836v6.696h-30.748V481.147z"/>
		<path d="M1642.592,481.147h30.748v6.697h-23.836v14.977h19.514v6.553h-19.514v15.05h23.836v6.696h-30.748V481.147z"/>
		<path d="M1707.826,513.118h-12.602v18.002h-6.984v-49.973h18.648c11.018,0,16.346,4.608,16.346,15.626
			c0,7.633-2.736,12.169-8.496,14.473l8.785,19.874h-7.705L1707.826,513.118z M1706.889,487.772h-11.664v18.722h11.736
			c6.77,0,9.072-3.816,9.072-9.577C1716.033,490.725,1713.082,487.772,1706.889,487.772z"/>
		<path d="M1737.92,481.147h6.984v49.973h-6.984V481.147z"/>
		<path d="M1761.895,481.147h11.809l17.857,41.476H1793v-41.476h6.984v49.973h-11.52l-18.146-41.476h-1.439v41.476h-6.984V481.147z"
			/>
		<path d="M1836.703,505.342h13.896v24.842c0,0-10.225,1.729-16.346,1.729c-15.266,0-19.586-9.36-19.586-25.778
			c0-16.993,4.537-25.778,19.371-25.778c7.561,0,16.561,2.017,16.561,2.017l-0.287,6.12c0,0-8.785-1.296-15.338-1.296
			c-10.514,0-13.105,5.473-13.105,18.938c0,13.249,2.232,19.01,12.889,19.01c3.816,0,8.713-0.792,8.93-0.792v-12.745h-6.984V505.342
			z"/>
		<path d="M1888.107,481.147h11.736l12.889,40.036l12.961-40.036h11.594v49.973h-6.984v-41.476h-1.08l-12.816,39.604h-7.418
			l-12.816-39.604h-1.08v41.476h-6.984V481.147z"/>
		<path d="M1963.205,481.147h14.328l12.674,49.9h-7.057l-3.24-11.161h-19.441l-3.098,11.233h-6.984L1963.205,481.147z
			 M1961.98,513.19h16.49l-6.41-25.563h-3.527L1961.98,513.19z"/>
		<path d="M1996.898,481.147h36.004v6.697H2018.5v43.275h-7.057v-43.275h-14.545V481.147z"/>
		<path d="M2073.652,509.158h-22.969v21.962h-6.984v-49.973h6.984v21.314h22.969v-21.314h7.057v49.973h-7.057V509.158z"/>
		<path d="M2097.914,481.147h30.748v6.697h-23.836v14.977h19.514v6.553h-19.514v15.05h23.836v6.696h-30.748V481.147z"/>
		<path d="M2143.563,481.147h11.736l12.889,40.036l12.961-40.036h11.594v49.973h-6.984v-41.476h-1.08l-12.816,39.604h-7.418
			l-12.816-39.604h-1.08v41.476h-6.984V481.147z"/>
		<path d="M2218.658,481.147h14.33l12.672,49.9h-7.057l-3.24-11.161h-19.441l-3.096,11.233h-6.984L2218.658,481.147z
			 M2217.434,513.19h16.49l-6.408-25.563h-3.529L2217.434,513.19z"/>
		<path d="M2252.354,481.147h36.002v6.697h-14.4v43.275h-7.057v-43.275h-14.545V481.147z"/>
		<path d="M2298.938,481.147h6.984v49.973h-6.984V481.147z"/>
		<path d="M2352.65,530.184c0,0-8.207,1.729-13.896,1.729c-15.049,0-18.434-8.929-18.434-25.706
			c0-17.498,3.961-25.851,18.434-25.851c6.408,0,13.896,1.801,13.896,1.801l-0.215,6.265c0,0-8.137-1.225-12.818-1.225
			c-9.936,0-12.023,5.473-12.023,19.01c0,13.177,1.799,18.865,12.168,18.865c4.248,0,12.674-1.224,12.674-1.224L2352.65,530.184z"/>
		<path d="M2394.627,488.276c0,0-10.082-1.224-14.258-1.224c-6.48,0-9.793,2.16-9.793,6.984c0,5.328,2.953,6.48,11.449,8.568
			c10.152,2.664,14.186,5.329,14.186,14.113c0,10.585-6.48,15.121-16.563,15.121c-5.4,0-15.193-1.656-15.193-1.656l0.721-6.336
			c0,0,9.289,1.224,14.4,1.224c6.482,0,9.65-2.231,9.65-8.137c0-4.752-2.521-6.265-10.297-8.064
			c-10.586-2.448-15.41-5.4-15.41-14.689c0-9.433,6.48-13.896,16.85-13.896c5.545,0,14.834,1.655,14.834,1.655L2394.627,488.276z"/>
	</g>
</g>
<g id="Guides">
	<g>
	</g>
	<g>
	</g>
	<g>
	</g>
	<g>
	</g>
	<g>
	</g>
	<g>
	</g>
	<g>
	</g>
	<g>
	</g>
	<g>
	</g>
	<g>
	</g>
	<g>
	</g>
	<g>
	</g>
	<g>
	</g>
	<g>
	</g>
	<g>
	</g>
</g>
</svg>
