<?xml version="1.0" encoding="utf-8"?>
<!-- Generator: Adobe Illustrator 16.0.0, SVG Export Plug-In . SVG Version: 6.00 Build 0)  -->
<!DOCTYPE svg PUBLIC "-//W3C//DTD SVG 1.1//EN" "http://www.w3.org/Graphics/SVG/1.1/DTD/svg11.dtd">
<svg version="1.1" xmlns="http://www.w3.org/2000/svg" xmlns:xlink="http://www.w3.org/1999/xlink" x="0px" y="0px"
	 width="1223.999px" height="348.631px" viewBox="51 10.258 1223.999 348.631" enable-background="new 51 10.258 1223.999 348.631"
	 xml:space="preserve">
<g id="Layer_2">
</g>
<g id="Layer_1">
	<g id="Math_1_">
		<polygon id="Math" fill="#EBAF20" points="1274.999,28.889 1065.097,28.889 1004.115,238.89 1214.018,238.89 		"/>
		<g>
			<path d="M1088.336,79.045h20.49l30.734,99.386l30.887-99.386h20.336V197.29h-11.773V94.335h-2.141l-30.887,98.707h-12.998
				l-30.734-98.707h-2.141V197.29h-11.773V79.045L1088.336,79.045z"/>
		</g>
	</g>
	<g id="Engineering_1_">
		<polygon id="Engineering_3_" fill="#ED5025" points="1044.052,29.889 834.149,29.889 773.168,238.89 983.069,238.89 		"/>
		<g>
			<path d="M875.991,79.045h71.354v12.402h-58.441v39.924h48.249v12.232h-48.249v41.283h58.441v12.402h-71.354V79.045z"/>
		</g>
	</g>
	<g id="Technology_1_">
		<polygon id="Technology" fill="#7398CF" points="813.104,28.889 603.202,28.889 542.221,238.89 752.123,238.89 		"/>
		<g>
			<path d="M635.19,79.045h84.945v12.572h-35.848V197.29h-12.912V91.618H635.19V79.045z"/>
		</g>
	</g>
	<g id="Science_1_">
		<polygon id="Science_3_" fill="#3AB14A" points="582.709,28.889 372.807,28.889 311.824,238.89 521.729,238.89 		"/>
		<g>
			<path d="M481.415,92.467c0,0-23.444-2.719-33.298-2.719c-16.649,0-25.654,5.438-25.654,18.688
				c0,15.461,8.155,18.01,28.882,22.596c23.445,5.268,33.81,11.043,33.81,32.109c0,25.484-14.441,35.678-38.057,35.678
				c-12.912,0-36.188-3.568-36.188-3.568l1.358-11.891c0,0,22.597,2.887,34.658,2.887c16.649,0,24.975-6.285,24.975-22.596
				c0-13.25-6.967-16.988-26.163-20.727c-24.295-5.266-36.356-11.043-36.356-34.148c0-22.086,14.78-31.6,38.735-31.6
				c13.081,0,34.486,3.398,34.486,3.398L481.415,92.467z"/>
		</g>
	</g>
	<g id="A">
		<path fill="#FFFFFF" d="M339.031,358.889h-14.766c-11.111-16-22.227-31.688-33.338-47.563
			c-18.135-25.91-36.27-51.784-54.404-77.69c-15.965-22.809-31.935-45.602-47.899-68.415c-3.597-5.131-7.189-10.258-10.781-15.389
			c-2.102,24.014-4.204,48.024-6.306,72.038c-2.684,30.658-5.369,61.318-8.053,91.977c-1.301,14.882-2.606,29.694-3.907,44.577
			c-0.015,0.18-0.039,0.465-0.068,0.465h-12.082c-0.005,0,0-0.282,0.015-0.463c0.369-4.238,0.743-8.442,1.111-12.676
			c2.228-25.47,4.461-50.922,6.689-76.392c2.684-30.657,5.369-61.308,8.053-91.97c1.292-14.737,2.583-29.475,3.869-44.212
			c-0.092-2.228,1.155-4.551,3.044-5.657c0.034-0.02,0.067-0.033,0.102-0.053c0.117-0.068,0.238-0.126,0.359-0.189
			c0.044-0.02,0.087-0.043,0.131-0.062c0.146-0.068,0.301-0.127,0.456-0.18c0.039-0.015,0.083-0.034,0.126-0.049
			c0.083-0.029,0.175-0.049,0.262-0.073c0.122-0.034,0.238-0.067,0.359-0.097c0.015,0,0.024,0,0.039-0.005
			c0.194-0.039,0.383-0.067,0.573-0.087c0.02,0,0.034,0,0.054-0.006c0.165-0.014,0.334-0.023,0.5-0.023
			c0.034,0,0.067-0.005,0.102-0.005c2.189,0,4.466,1.397,5.505,3.383c2.762,3.946,5.523,7.893,8.286,11.84
			c13.368,19.096,26.731,38.191,40.099,57.281c18.135,25.91,36.27,51.816,54.399,77.724c15.97,22.81,31.935,45.552,47.904,68.366
			C332.653,349.844,335.843,354.889,339.031,358.889z"/>
	</g>
	<g id="O">
		<g>
			<path fill="#FFFFFF" d="M173.444,255.147c-32.706,0-63.455-12.736-86.582-35.863S51,165.409,51,132.703
				s12.736-63.455,35.863-86.582c23.127-23.126,53.875-35.863,86.582-35.863s63.455,12.736,86.582,35.863
				c23.126,23.127,35.863,53.876,35.863,86.582s-12.736,63.454-35.863,86.581C236.899,242.411,206.15,255.147,173.444,255.147z
				 M173.444,22.393c-60.825,0-110.31,49.485-110.31,110.31c0,60.823,49.484,110.31,110.31,110.31
				c60.826,0,110.31-49.484,110.31-110.31C283.754,71.877,234.27,22.393,173.444,22.393z"/>
		</g>
	</g>
	<g id="Guides">
	</g>
</g>
</svg>
